<svg width="340" height="226" viewBox="0 0 340 226" fill="none" xmlns="http://www.w3.org/2000/svg">
<g clip-path="url(#clip0_16_1418)">
<path d="M340 0H0V226H340V0Z" fill="#A1CAC4"/>
<path d="M323.255 128.54C323.3 131.434 323.237 134.332 323.162 137.225C322.894 146.476 321.306 155.621 320.457 164.825C320.117 167.808 319.725 170.789 319.116 173.73C318.725 175.47 318.367 177.294 317.393 178.819C316.335 180.592 314.411 180.242 312.644 180.308C289.761 180.526 266.906 181.833 244.035 182.503C224.251 183.035 204.459 183.079 184.677 183.688C154.581 184.699 124.483 185.462 94.3726 185.863C72.5069 186.536 50.6857 188.28 28.8106 188.744C26.4397 188.741 24.0637 188.655 21.7177 188.293C20.1129 188.026 18.4587 187.681 17.0851 186.766C15.3711 185.7 14.9536 183.594 14.9427 181.709C14.8457 176.216 15.3724 170.73 15.6476 165.247C16.2342 155.684 17.2025 146.146 17.5988 136.572C18.004 129.111 17.7678 121.61 18.5585 114.173C19.0861 110.341 19.3377 109.658 23.4463 109.601C27.4937 109.354 31.5551 109.495 35.5825 109.945C45.9838 111.133 56.0115 114.471 65.619 118.514C73.7754 121.892 81.6588 125.922 89.3342 130.271C93.9578 132.939 98.6888 135.411 103.346 138.018C108.578 140.861 113.88 143.626 119.506 145.62C124.119 147.21 128.91 148.03 133.662 148.891C137.515 149.55 141.38 150.15 145.253 150.678C151.629 151.42 158.068 151.734 164.486 151.643C170.866 151.528 177.262 151.375 183.585 150.444C186.028 150.104 188.487 149.662 190.893 149.168C198.045 147.734 205.216 146.394 212.334 144.789C216.796 143.9 221.168 142.63 225.557 141.448C228.533 140.672 231.492 139.841 234.453 139.009C241.9 136.974 249.342 134.908 256.727 132.661C261.041 131.228 265.449 130.114 269.823 128.879C272.866 127.978 276.144 127.357 279.2 126.763C282.137 126.16 285.057 125.46 288.005 124.907C291.074 124.343 294.149 123.806 297.238 123.363C301.721 122.764 306.256 122.57 310.775 122.603C314.438 122.695 318.166 122.665 321.73 123.599C322.189 123.391 322.784 123.669 322.906 124.164C322.992 124.498 323.015 124.849 323.055 125.192C323.183 126.304 323.232 127.422 323.255 128.54Z" fill="#F2F2F2"/>
<path d="M82.2078 66.2772C81.8804 65.9857 81.6778 65.5703 81.6497 65.1332C81.6207 64.6875 81.7753 64.2409 82.0745 63.9074C82.3533 63.5968 82.7935 63.351 83.2219 63.351C83.6806 63.351 84.1018 63.4626 84.4513 63.7745C84.7781 64.066 84.9812 64.4814 85.0093 64.9185C85.0379 65.3642 84.8838 65.8107 84.5846 66.1443C84.3058 66.4548 83.8656 66.7007 83.4372 66.7007C82.9789 66.7007 82.5573 66.5895 82.2078 66.2772Z" fill="white"/>
<path d="M66.9437 77.6662C66.6169 77.3747 66.4138 76.9593 66.3857 76.5222C66.3571 76.0766 66.5113 75.63 66.8105 75.2964C67.0893 74.9859 67.5295 74.74 67.9579 74.74C68.4166 74.74 68.8382 74.8512 69.1873 75.1635C69.5146 75.4551 69.7172 75.8704 69.7453 76.3075C69.7744 76.7532 69.6198 77.1998 69.3206 77.5333C69.0418 77.8439 68.6016 78.0898 68.1732 78.0898C67.7144 78.0902 67.2928 77.9786 66.9437 77.6662Z" fill="white"/>
<path d="M109.645 64.2757C109.319 63.9842 109.116 63.5688 109.087 63.1317C109.058 62.686 109.213 62.2395 109.512 61.9059C109.791 61.5954 110.231 61.3495 110.66 61.3495C111.118 61.3495 111.54 61.4611 111.889 61.773C112.216 62.0645 112.419 62.4799 112.447 62.917C112.476 63.3627 112.322 63.8093 112.022 64.1428C111.744 64.4534 111.303 64.6993 110.875 64.6993C110.416 64.6993 109.995 64.5881 109.645 64.2757Z" fill="white"/>
<path d="M109.958 85.9266C109.634 85.6382 109.432 85.226 109.404 84.7934C109.376 84.3518 109.529 83.9093 109.826 83.5793C110.102 83.2711 110.538 83.027 110.962 83.027C111.417 83.027 111.834 83.1386 112.18 83.4473C112.505 83.7357 112.706 84.1479 112.734 84.5805C112.762 85.0221 112.61 85.4646 112.313 85.7946C112.037 86.1028 111.6 86.3469 111.176 86.3469C110.722 86.3469 110.304 86.2357 109.958 85.9266Z" fill="white"/>
<path d="M137.789 93.6757C137.464 93.3873 137.263 92.9751 137.235 92.5425C137.207 92.1009 137.36 91.6584 137.656 91.328C137.932 91.0197 138.369 90.7756 138.793 90.7756C139.248 90.7756 139.665 90.8868 140.011 91.196C140.336 91.4844 140.537 91.8966 140.565 92.3292C140.593 92.7708 140.44 93.2133 140.143 93.5437C139.867 93.852 139.431 94.096 139.007 94.096C138.553 94.096 138.135 93.9844 137.789 93.6757Z" fill="white"/>
<path d="M122.864 101.487C122.621 101.27 122.47 100.962 122.449 100.638C122.408 99.9946 122.934 99.3162 123.615 99.3162C123.955 99.3162 124.268 99.3989 124.526 99.6299C124.769 99.8464 124.92 100.154 124.941 100.479C124.982 101.122 124.456 101.8 123.775 101.8C123.434 101.8 123.122 101.718 122.864 101.487Z" fill="white"/>
<path d="M124.112 129.773C123.869 129.556 123.718 129.248 123.697 128.924C123.656 128.281 124.182 127.602 124.863 127.602C125.203 127.602 125.516 127.685 125.775 127.916C126.017 128.132 126.168 128.44 126.189 128.765C126.23 129.408 125.704 130.086 125.023 130.086C124.683 130.086 124.371 130.004 124.112 129.773Z" fill="white"/>
<path d="M130.897 72.3634C130.674 72.1645 130.534 71.8797 130.515 71.581C130.477 70.987 130.962 70.361 131.591 70.361C131.905 70.361 132.193 70.4374 132.432 70.6512C132.656 70.8505 132.795 71.1348 132.814 71.4336C132.852 72.0275 132.367 72.6536 131.739 72.6536C131.425 72.6536 131.137 72.5772 130.897 72.3634Z" fill="white"/>
<path d="M90.4584 78.9558C90.3111 78.8238 90.2195 78.6362 90.2059 78.4387C90.1814 78.0468 90.5019 77.6332 90.9167 77.6332C91.1239 77.6332 91.3143 77.6839 91.4721 77.8249C91.6189 77.9569 91.711 78.1444 91.7246 78.342C91.7491 78.7339 91.4286 79.1474 91.0137 79.1474C90.807 79.1474 90.6162 79.0968 90.4584 78.9558Z" fill="white"/>
<path d="M52.1242 93.0013C51.9769 92.8693 51.8848 92.6817 51.8717 92.4842C51.8472 92.0923 52.1677 91.6787 52.5825 91.6787C52.7897 91.6787 52.9801 91.7293 53.1383 91.8704C53.2852 92.0023 53.3772 92.1899 53.3903 92.3875C53.4148 92.7793 53.0943 93.1929 52.6795 93.1929C52.4723 93.1929 52.2819 93.1423 52.1242 93.0013Z" fill="white"/>
<path d="M240.495 60.9915C240.256 60.7786 240.108 60.4753 240.087 60.1567C240.047 59.5234 240.564 58.8553 241.235 58.8553C241.57 58.8553 241.877 58.9372 242.132 59.1641C242.37 59.377 242.519 59.6802 242.539 59.9989C242.58 60.6322 242.063 61.3002 241.392 61.3002C241.057 61.3002 240.749 61.2184 240.495 60.9915Z" fill="white"/>
<path d="M240.726 83.2525C240.434 82.9913 240.251 82.6193 240.226 82.2274C240.2 81.8274 240.339 81.4269 240.607 81.1277C240.857 80.8497 241.252 80.6287 241.635 80.6287C242.047 80.6287 242.424 80.7295 242.738 81.0088C243.031 81.2701 243.213 81.642 243.239 82.0339C243.264 82.4339 243.125 82.8344 242.857 83.1336C242.608 83.4116 242.212 83.6327 241.829 83.6327C241.418 83.6327 241.041 83.5319 240.726 83.2525Z" fill="white"/>
<path d="M265.336 54.6726C265.017 54.3873 264.818 53.9819 264.79 53.5548C264.762 53.119 264.914 52.6829 265.205 52.3579C265.477 52.0537 265.908 51.8137 266.326 51.8137C266.774 51.8137 267.186 51.9226 267.527 52.2272C267.846 52.5124 268.045 52.9179 268.073 53.345C268.101 53.7808 267.949 54.2169 267.658 54.5419C267.386 54.8461 266.955 55.0861 266.537 55.0861C266.089 55.0861 265.677 54.9772 265.336 54.6726Z" fill="white"/>
<path d="M285.5 73.6914C285.173 73.3998 284.97 72.9845 284.942 72.5474C284.913 72.1017 285.068 71.6551 285.367 71.3216C285.646 71.011 286.086 70.7651 286.514 70.7651C286.973 70.7651 287.394 70.8763 287.744 71.1887C288.071 71.4802 288.274 71.8956 288.302 72.3327C288.33 72.7783 288.176 73.2249 287.877 73.5585C287.598 73.869 287.158 74.1149 286.73 74.1149C286.271 74.1149 285.849 74.0033 285.5 73.6914Z" fill="white"/>
<path d="M283.568 95.3616C283.241 95.0701 283.038 94.6547 283.01 94.2176C282.981 93.7719 283.136 93.3253 283.435 92.9918C283.713 92.6812 284.154 92.4354 284.582 92.4354C285.041 92.4354 285.462 92.5466 285.812 92.8589C286.138 93.1504 286.342 93.5658 286.37 94.0029C286.398 94.4486 286.244 94.8951 285.945 95.2287C285.666 95.5392 285.226 95.7851 284.797 95.7851C284.339 95.7856 283.917 95.6739 283.568 95.3616Z" fill="white"/>
<path d="M288.987 119.662C288.697 119.403 288.516 119.034 288.491 118.646C288.466 118.25 288.603 117.853 288.868 117.557C289.116 117.281 289.508 117.063 289.888 117.063C290.296 117.063 290.67 117.162 290.981 117.439C291.271 117.698 291.452 118.067 291.476 118.455C291.501 118.851 291.364 119.248 291.099 119.544C290.851 119.82 290.46 120.039 290.08 120.039C289.671 120.039 289.298 119.94 288.987 119.662Z" fill="white"/>
<path d="M276.666 117.656C276.536 117.54 276.457 117.378 276.445 117.205C276.424 116.863 276.703 116.503 277.065 116.503C277.246 116.503 277.412 116.547 277.55 116.67C277.679 116.785 277.759 116.948 277.77 117.12C277.792 117.463 277.512 117.823 277.151 117.823C276.97 117.823 276.803 117.779 276.666 117.656Z" fill="white"/>
<path d="M228.821 135.68C230.219 137.876 232.881 141.278 232.533 143.954C232.316 144.832 231.38 145.222 230.541 145.211C228.656 145.047 227.032 143.907 225.638 142.714C223.346 140.725 221.845 138.059 220.541 135.367C221.078 138.044 221.544 140.736 221.827 143.453C222.054 145.77 222.221 148.176 221.662 150.459C221.347 151.479 220.151 151.809 219.256 151.309C216.435 149.538 214.094 144.051 212.814 140.982C212.971 143.773 215.144 159.608 210.736 159.044C206.635 158.194 203.527 146.943 202.82 143.163C202.259 147.208 201.388 151.316 199.387 154.919C198.856 155.798 198.327 156.794 197.362 157.259C195.709 158.075 194.481 156.758 193.95 155.289C193.381 153.957 193.106 152.516 192.867 151.095C192.499 148.732 192.234 146.354 192.011 143.973C191.256 146.813 190.1 149.544 188.515 152.024C187.192 154.096 185.648 156.228 183.442 157.426C182.179 158.064 180.814 157.354 180.267 156.128C179.558 154.673 179.515 153.015 179.461 151.428C179.449 148.902 179.904 146.395 180.395 143.924C177.805 147.774 173.873 152.267 169.405 153.835C164.748 155.403 163.288 150.198 164.111 146.595C165.118 142.185 167.624 138.306 169.725 134.357C172.507 129.26 175.243 124.138 177.789 118.919C180.311 113.641 183.009 108.316 186.937 103.923C188.425 102.303 190.129 100.899 191.898 99.5964C194.143 97.9538 196.707 96.5047 199.556 96.4206C201.733 96.3732 203.868 96.958 205.973 97.4403C207.259 97.764 208.497 98.2779 209.603 99.0128C213.092 101.31 214.365 102.286 215.857 106.286C215.941 106.206 216.085 106.208 216.155 106.292C216.301 106.567 216.332 106.905 216.436 107.183C217.097 109.176 217.932 111.107 218.628 113.092C220.486 118.602 222.234 124.224 225.029 129.341C226.198 131.508 227.457 133.628 228.821 135.68Z" fill="#77966D"/>
<path d="M224.861 118.241C225.027 119.058 225.247 119.879 225.274 120.716C224.919 123.401 220.204 117.976 219.582 117.214C217.905 115.196 216.599 112.911 215.367 110.604C216.155 113.483 216.812 116.402 217.286 119.347C217.561 121.216 217.849 123.117 217.707 125.008C217.646 126.075 216.584 126.442 215.864 125.652C214.801 124.45 214.159 122.932 213.398 121.535C212.053 118.913 210.829 116.223 209.867 113.438C210.411 117.747 210.649 122.096 210.536 126.44C210.513 127.317 210.467 128.193 210.354 129.063C210.285 129.789 210.1 130.811 209.197 130.866C207.567 130.938 206.494 126.739 206.035 125.451C204.981 121.961 204.125 118.409 203.464 114.824C203.261 118.373 202.827 121.935 201.728 125.329C201.326 126.595 200.853 127.837 200.284 129.038C199.957 129.671 199.687 130.354 199.214 130.894C195.898 133.821 195.033 125.444 194.79 123.526C194.338 119.907 194.026 116.225 193.971 112.591C192.92 116.827 191.463 120.976 189.444 124.854C188.831 126.055 188.153 127.223 187.382 128.33C186.814 129.095 186.318 129.983 185.511 130.522C184.834 130.969 183.914 130.757 183.449 130.105C182.426 128.528 182.612 126.508 182.723 124.715C183.063 121.151 184.077 117.694 185.212 114.311C183.378 117.169 181.346 120.031 178.971 122.454C177.85 123.627 176.641 124.719 175.348 125.702C173.693 127.021 171.704 127.725 171 125.058C170.305 121.573 173.534 116.818 175.29 113.877C178.215 109.271 181.837 105.173 185.09 100.806C188.566 96.1313 191.46 91.0572 193.966 85.8081C194.988 83.5725 195.872 81.2772 196.839 79.0186C197.514 77.3792 198.229 75.7515 199.145 74.2292C199.715 73.2764 200.352 72.3335 201.256 71.6646C202.751 70.4523 205.277 70.4916 206.08 72.4782C206.734 73.9964 206.678 75.6553 207.176 77.1984C207.652 78.6977 208.227 80.164 208.691 81.6682C208.737 81.8115 208.743 81.958 208.689 82.0972C211.028 89.2415 213.807 96.271 217.393 102.882C219.992 107.933 223.579 112.626 224.861 118.241Z" fill="#77966D"/>
<path d="M0 0V226H340V0H0ZM151.474 136.954L150.632 165.969C150.632 165.969 102.533 168.074 80.4766 168.642C58.4206 169.211 41.2076 166.569 41.2076 166.569C41.2076 166.569 39.105 128.118 42.1197 108.114C45.1343 88.1111 56.2569 60.1273 77.1505 51.0068C98.0442 41.8864 124.863 40.3315 140.04 60.8532C155.216 81.3749 151.474 136.954 151.474 136.954ZM304.903 163.252C298.354 165.74 254.488 167.245 254.488 167.245H197.384C197.384 167.245 195.444 147.097 195.757 141.177C196.069 135.256 196.068 101.378 199.603 88.0076C203.137 74.6374 213.504 59.6645 224.654 51.8137C235.805 43.9629 266.65 38.9841 284.939 53.4499C303.228 67.9157 303.136 92.7753 304.487 102.359C305.838 111.943 304.903 163.252 304.903 163.252Z" fill="#F4EDE4"/>
<path d="M304.156 89.9616C303.658 86.2611 303.215 82.5348 302.224 78.9255C301.265 75.3254 299.81 71.8639 298.11 68.5517C295.961 64.0484 293.249 59.7716 289.574 56.3477C286.793 53.7776 283.738 51.4629 280.394 49.668C277.033 47.8103 273.444 46.4593 269.73 45.4929C261.896 43.2275 253.615 42.3063 245.507 43.4928C241.738 44.0958 237.976 44.8696 234.37 46.1366C230.759 47.5134 227.205 49.0913 223.872 51.0512C218.305 54.3114 213.65 58.9101 209.943 64.1533C207.649 67.2233 205.781 70.5861 204.181 74.0611C202.554 77.4651 201.144 80.979 200.097 84.6045C197.353 95.2735 196.177 106.283 195.364 117.247C194.912 123.48 195.258 129.729 195.11 135.969C194.892 141.866 195.625 147.742 195.763 153.632C195.88 156.695 195.951 159.765 196.285 162.814C196.433 163.858 196.53 164.912 196.734 165.945C196.844 166.415 196.977 166.936 197.384 167.245C197.67 167.462 198.026 167.558 198.381 167.578C199.216 167.627 200.053 167.61 200.889 167.621C202.006 167.636 203.123 167.677 204.239 167.721C207.281 167.832 210.489 167.897 213.557 167.952C218.554 168.057 223.551 168.271 228.549 168.123C233.621 167.979 238.692 168.081 243.763 168.21C252.934 168.466 262.101 167.867 271.274 168.033C279.171 168.127 287.015 167.058 294.859 166.299C297.364 166.065 299.87 165.785 302.336 165.284C303.575 164.951 305.409 164.85 305.827 163.4C305.823 156.28 305.974 149.127 305.874 141.996C305.69 134.519 305.538 127.043 305.662 119.564C305.795 109.674 305.509 99.7704 304.156 89.9616ZM269.782 47.6119C272.129 48.2646 274.458 49.0059 276.659 50.0604C279.327 51.3002 281.91 52.7272 284.242 54.5266C287.228 56.7079 289.968 59.2622 292.118 62.2793C293.543 64.2925 294.789 66.496 295.882 68.7248C297.88 72.574 299.594 76.5991 300.545 80.8416C301.282 84.1226 301.672 87.4674 302.119 90.7973C302.738 95.6269 303.203 100.476 303.446 105.338C302.832 105.302 302.163 105.279 301.538 105.26C300.585 105.218 299.564 105.149 298.597 105.064C293.136 104.458 287.639 104.274 282.148 104.503C273.411 104.839 264.671 105.203 255.929 105.464C255.811 99.1024 255.71 92.7396 255.537 86.3795C255.432 82.6161 255.12 78.8659 254.856 75.1125C254.601 68.972 254.47 62.8267 254.266 56.684C254.175 53.1191 254.104 49.5519 253.84 45.9946C253.816 45.6837 253.79 45.3731 253.76 45.0626C257.314 45.1037 260.862 45.4893 264.33 46.2527C266.168 46.6193 267.984 47.0835 269.782 47.6119ZM202.538 83.6896C204.821 76.9589 207.832 70.3719 212.167 64.6916C214.414 61.6234 216.971 58.7867 219.941 56.3974C224.265 52.8122 229.387 50.3591 234.573 48.2727C240.145 46.2839 246.072 45.1937 252.014 45.0707C251.992 45.3071 251.975 45.5444 251.961 45.7813C251.708 54.2775 252.245 62.7801 252.408 71.275C252.5 76.195 253.096 81.0861 253.194 86.0066C253.417 92.5127 253.451 99.0242 253.592 105.533C247.319 105.706 241.046 105.821 234.771 105.822C231.375 105.78 227.976 105.698 224.578 105.756C218.985 105.953 213.402 106.395 207.859 107.165C205.764 107.325 203.662 107.37 201.563 107.455C200.834 107.515 199.323 107.473 198.229 107.76C198.737 102.935 199.383 98.1337 200.32 93.3294C200.921 90.0872 201.529 86.8351 202.538 83.6896ZM234.942 165.68C231.131 165.654 227.321 165.81 223.511 165.836C217.316 165.802 211.12 165.809 204.925 165.799C202.742 165.76 200.558 165.809 198.381 165.969C197.99 164.155 197.859 162.287 197.598 160.45C197.437 157.132 197.424 153.817 197.309 150.497C197.188 147.002 196.866 143.516 196.832 140.016C196.787 137.556 196.939 135.099 196.98 132.64C197.007 127.215 197.033 121.786 197.441 116.373C197.643 113.9 197.86 111.439 198.107 108.983C198.206 108.998 198.304 109.012 198.402 109.026C201.203 109.426 204.041 109.436 206.865 109.382C209.064 109.317 211.235 108.93 213.424 108.736C216.242 108.508 219.065 108.331 221.887 108.179C229.54 107.837 237.199 108.41 244.856 108.115C247.786 108.076 250.716 108.013 253.645 107.939C253.649 108.11 253.651 108.281 253.656 108.451C253.78 119.947 254.712 131.061 254.976 142.488C255.124 150.267 255.186 158.05 255.049 165.829C254.74 165.837 254.431 165.841 254.122 165.85C247.728 166.066 241.335 165.706 234.942 165.68ZM303.616 110.298C303.729 117.696 303.57 125.096 303.709 132.495C304 142.534 304.031 152.586 303.916 162.623C301.259 163.331 298.503 163.587 295.776 163.886C293.165 164.116 290.478 164.416 287.852 164.679C283.191 165.103 278.512 165.615 273.824 165.654C268.214 165.644 262.604 165.664 256.996 165.785C257.022 165.109 257.043 164.433 257.069 163.757C257.299 156.809 257.245 149.856 257.16 142.906C257.11 135.324 256.601 127.76 256.28 120.188C256.149 116.085 256.056 111.983 255.976 107.879C265.816 107.608 275.653 107.204 285.492 106.931C288.448 106.917 291.362 106.944 294.32 107.151C296.358 107.345 298.398 107.483 300.446 107.433C301.475 107.416 302.501 107.33 303.531 107.331C303.567 108.319 303.598 109.309 303.616 110.298Z" fill="white"/>
<path d="M152.664 125.034C152.708 116.082 152.148 107.149 151.406 98.2318C150.598 89.5837 149.704 80.8434 147.014 72.5433C146.327 70.2322 145.57 67.9338 144.5 65.7665C142.276 61.5005 139.394 57.5297 135.922 54.1871C134.053 52.5025 132.056 50.9504 129.925 49.6102C126.295 47.3927 122.456 45.4269 118.326 44.3267C110.621 42.3108 102.538 42.9188 94.791 44.386C89.9653 45.3022 85.2733 46.7861 80.7449 48.6763C78.4474 49.5984 76.1807 50.6041 74.0324 51.8381C67.5996 55.5544 62.0363 60.6295 57.4649 66.4576C55.1289 69.3793 52.8572 72.3874 51.0974 75.6969C49.9436 77.8837 48.9821 80.1749 48.1026 82.4832C45.2861 89.4974 43.4057 96.8256 42.1531 104.269C40.2514 114.082 39.7006 124.1 39.5065 134.076C39.4385 143.266 39.4775 152.466 40.2273 161.631C40.3207 163.096 39.4458 167.074 41.1716 167.669C42.2034 168.024 43.3023 168.079 44.3799 168.188C45.5254 168.295 46.6737 168.39 47.8225 168.461C51.9691 168.666 56.1185 169.069 60.2719 169.339C67.926 169.639 75.5851 169.789 83.241 170.071C95.7217 170.48 108.116 168.601 120.584 168.52C124.639 168.398 128.697 168.278 132.747 168.022C136.088 167.774 139.811 167.469 143.254 167.324C145.24 167.215 147.219 167.04 149.201 166.88C150.985 166.868 151.873 166.193 151.901 164.441C152.042 162.469 152.295 160.507 152.42 158.534C152.625 155.043 152.536 151.545 152.659 148.05C152.952 140.381 152.817 132.705 152.664 125.034ZM117.817 46.8557C123.737 48.6036 129.278 51.702 133.921 55.7538C138.2 59.7824 141.862 64.7472 143.815 70.3167C144.897 73.6543 145.99 77.0027 146.706 80.442C147.318 83.5603 147.813 86.7754 148.202 89.9453C148.972 96.5531 149.547 103.189 149.91 109.836C148.41 109.638 146.913 109.401 145.397 109.35C137.788 108.946 130.18 109.586 122.569 109.552C115.127 109.535 107.701 110.006 100.271 110.37C100.278 105.019 100.31 99.6687 100.419 94.3184C100.398 84.3834 100.254 74.4489 100.319 64.5144C100.361 59.768 100.467 55.0233 100.34 50.2769C100.292 48.8183 100.231 47.3506 100.02 45.9051C105.969 45.1602 112 45.3044 117.817 46.8557ZM52.4084 77.4669C53.9139 74.5312 55.9684 71.6958 58.0352 69.0968C61.2479 64.999 64.8402 61.18 68.9727 57.9884C71.5064 56.1126 74.1489 54.3634 76.951 52.9102C80.0608 51.3942 83.2954 50.1422 86.5494 48.9706C90.3587 47.752 94.3077 46.7576 98.3066 46.1438C98.2925 46.3318 98.2798 46.5199 98.2612 46.7052C98.1742 47.9956 98.1456 49.2897 98.1289 50.5824C98.0745 52.9708 98.1624 55.3596 98.1815 57.748C98.2064 67.6373 98.1511 77.5266 98.3016 87.415C98.2386 95.1004 98.1747 102.786 98.1275 110.471C97.1211 110.517 96.1147 110.561 95.1079 110.599C90.5428 110.776 85.9732 110.852 81.4068 110.984C69.9451 111.049 58.5107 111.87 47.0631 112.331C45.6374 112.416 44.1709 112.359 42.7533 112.568C43.5802 106.233 44.8019 99.9422 46.3759 93.7525C47.9304 88.178 49.8811 82.6803 52.4084 77.4669ZM81.3764 167.739C76.2311 167.576 71.0889 167.355 65.9408 167.304C62.4216 167.254 58.9087 167.101 55.4004 166.819C50.8938 166.496 46.3768 166.416 41.8689 166.115C41.7197 165.731 41.8856 165.362 41.892 164.971C41.887 163.479 41.795 161.986 41.7374 160.494C40.9844 145.272 40.8738 129.971 42.4759 114.798C42.5094 114.509 42.5489 114.22 42.5838 113.931C43.8241 114.259 45.1582 114.22 46.4316 114.323C48.6711 114.444 50.9124 114.368 53.1505 114.258C61.2112 114.062 69.2552 113.485 77.3163 113.285C84.2528 113.211 91.1833 112.97 98.1121 112.671C98.0622 121.581 98.0409 130.492 98.0872 139.404C98.0495 146.778 98.113 154.151 98.2377 161.524C98.2608 163.243 98.2948 164.962 98.2884 166.681C98.2871 166.914 98.2785 167.149 98.2857 167.381C92.6562 167.716 87.0086 167.88 81.3764 167.739ZM150.614 143.816C150.569 146.385 150.473 148.952 150.46 151.521C150.514 155.854 150.313 160.177 149.808 164.481C146.223 164.665 142.639 164.868 139.055 165.075C134.861 165.404 130.673 165.816 126.466 165.941C119.774 166.273 113.072 166.299 106.388 166.791C104.375 166.963 102.359 167.118 100.339 167.254C100.289 165.229 100.35 163.205 100.352 161.18C100.255 151.216 100.261 141.251 100.269 131.286C100.293 125.049 100.267 118.812 100.268 112.575C105.179 112.354 110.088 112.108 114.998 111.872C119.556 111.744 124.117 111.757 128.675 111.669C133.032 111.531 137.39 111.38 141.75 111.397C143.823 111.43 145.898 111.403 147.968 111.531C148.671 111.573 149.261 111.616 150.002 111.664C150.151 114.721 150.26 117.78 150.314 120.84C150.385 128.499 150.711 136.156 150.614 143.816Z" fill="white"/>
<path d="M248.754 85.7674C248.581 85.6413 248.542 85.39 248.399 85.2219C247.875 84.5186 247.267 83.883 246.808 83.1309C245.395 81.1837 244.091 79.166 243.064 76.986C242.39 75.6322 241.753 74.2518 241.349 72.7905C240.867 70.8704 241.036 68.8328 241.544 66.9353C242.034 65.271 242.88 63.7424 243.663 62.2038C244.002 61.4309 245.5 58.9616 244.988 58.2917C244.245 57.4026 242.953 58.3541 242.233 58.8522C240.854 60.0721 239.806 61.6437 238.915 63.2434C238.434 61.8476 238.471 60.3402 238.458 58.8816C238.478 53.119 241.358 47.9151 243.542 42.7303C243.919 41.6907 244.462 40.628 244.426 39.5012C244.376 38.6541 243.388 38.2717 242.687 38.6446C240.748 39.7154 239.196 42.6846 238.216 44.635C236.862 47.4021 235.787 50.3243 235.369 53.3884C234.445 51.1605 233.445 48.9837 232.112 46.9596C231.505 46.0348 230.96 45.0422 230.144 44.2802C228.731 43.0787 227.778 44.522 227.878 45.9548C227.944 48.3626 228.572 50.7212 229.499 52.9373C230.322 54.9776 231.495 57.013 232.481 59.0023C233.471 61.1886 234.298 63.454 234.889 65.7813C232.417 64.113 230.198 61.8173 227.216 61.1C225.917 60.7723 223.896 61.161 223.947 62.8257C223.973 64.1984 224.904 65.3167 225.826 66.2496C227.316 67.7629 229.293 68.8527 231.019 70.097C231.827 70.6557 232.667 71.1656 233.444 71.7694C234.157 72.324 234.716 73.0387 235.255 73.7551C237.082 76.3401 238.688 79.1095 240.44 81.751C241.75 83.6674 243.897 87.3006 246.129 88.0306C246.659 88.2132 247.279 88.1942 247.744 87.8575C248.27 87.4457 248.759 86.8206 248.724 86.1222C248.802 86.111 248.87 86.0486 248.877 85.9609C248.884 85.8633 248.824 85.8172 248.754 85.7674ZM292.481 48.8634C291.496 48.3025 288.888 49.3091 287.862 49.7444C284.625 51.1818 281.864 53.4643 279.423 55.9928C279.649 55.0274 279.944 54.0759 280.144 53.1046C280.344 51.7784 281.169 47.6168 279.656 47.0102C278.632 46.6428 277.98 47.9188 277.497 48.6167C276.57 50.1747 276.323 52.0044 275.874 53.7324C274.943 57.5495 274.181 61.4471 272.226 64.9117C271.439 66.0539 270.7 67.3837 269.453 68.0802C269.452 67.0845 269.78 66.1244 270.003 65.1635C270.425 63.5101 270.783 61.8006 270.634 60.0866C270.502 59.3607 270.384 58.1466 269.446 58.0937C268.173 58.2922 267.147 60.8207 266.691 61.933C265.314 65.8862 264.958 70.2372 263.17 74.0746C261.775 77.0533 260.258 80.0162 258.18 82.5854C257.602 83.2846 256.985 83.9518 256.363 84.613C256.089 84.9692 254.615 86.1991 255.001 86.6158C254.73 87.0638 254.837 87.7083 255.352 87.9235C256.98 88.4528 258.958 87.0127 260.285 86.1503C264.55 82.8276 267.256 78.031 270.944 74.1366C273.302 71.534 275.983 69.2536 279.065 67.5234C281.769 66.0367 284.844 65.0676 287.445 63.3455C288.13 62.8641 288.883 62.3104 289.199 61.5099C289.48 60.7655 288.857 60.1562 288.121 60.2064C285.693 60.243 283.324 61.0769 281.143 62.0912C279.598 62.7435 278.2 63.835 276.539 64.1664C277.862 61.9244 279.754 60.2163 281.845 58.6583C284.86 56.4304 288.016 54.4045 290.947 52.06C291.752 51.377 293.588 49.96 292.481 48.8634Z" fill="#673632"/>
<path d="M309.529 213.391C309.519 214.67 309.408 215.938 309.246 217.206C309.188 217.665 309.121 218.12 308.998 218.567C308.85 219.099 308.539 219.569 308.16 219.965C307.178 220.99 305.831 221.538 304.518 222.01C303.883 222.238 303.242 222.442 302.596 222.635C301.242 223.035 299.865 223.343 298.477 223.606C297.085 223.869 295.686 224.091 294.281 224.277C292.857 224.465 291.427 224.6 289.995 224.718C288.606 224.832 287.215 224.936 285.823 225.006C283.033 225.145 280.237 225.029 277.448 224.937C276.038 224.89 274.628 224.834 273.219 224.744C272.844 224.719 272.47 224.692 272.096 224.663C271.06 224.579 270.026 224.475 268.993 224.361C266.168 224.051 263.342 223.758 260.535 223.313C259.184 223.099 257.836 222.868 256.49 222.624C255.064 222.367 253.656 222.042 252.259 221.659C250.701 221.232 249.162 220.736 247.675 220.105C246.915 219.782 246.182 219.403 245.453 219.016C244.84 218.69 244.226 218.369 243.63 218.014C243.486 217.928 243.387 217.795 243.337 217.644C242.904 217.405 242.499 217.12 242.154 216.767C241.964 216.831 241.747 216.808 241.564 216.645C241.103 216.07 240.782 215.422 240.553 214.733C240.512 214.707 240.475 214.674 240.442 214.636C240.142 214.25 240.074 213.744 239.942 213.287C239.731 212.452 239.514 211.619 239.328 210.778C238.47 207.237 238.284 203.587 238.28 199.957C238.218 194.237 238.808 188.571 239.934 182.995C240.47 180.618 241.094 178.264 241.743 175.916C241.054 176.966 240.335 177.996 239.531 178.96C238.597 180.152 236.763 181.352 235.236 180.63C234.243 179.984 233.801 178.75 233.498 177.656C233.05 175.761 233.674 173.841 234.375 172.089C235.26 169.649 236.45 167.348 237.848 165.163C239.022 163.344 240.185 161.512 241.431 159.742C242.479 158.383 243.565 157.054 244.75 155.811C245.46 155.127 246.329 154.543 246.952 153.777C248.211 145.83 248.15 136.157 241.086 130.965C237.979 128.725 234.118 127.796 230.366 127.318C228.318 127.101 226.218 127.127 224.171 127.181C222.888 127.224 221.605 127.285 220.321 127.29C220.077 127.269 219.791 127.288 219.504 127.295C219.313 127.453 219.109 127.597 218.908 127.741C217.554 128.713 216.075 129.653 214.365 129.775C213.22 129.856 212.118 129.566 211.071 129.121C210.538 128.895 210.024 128.614 209.564 128.263C209.111 127.918 208.706 127.522 208.347 127.081C207.666 126.215 207.194 125.219 206.87 124.169C206.738 123.721 206.641 123.274 206.579 122.811C206.51 122.298 206.515 121.779 206.532 121.263C206.549 120.719 206.608 120.175 206.676 119.636C206.762 118.948 206.878 118.26 207.041 117.587C207.327 116.407 207.778 115.253 208.429 114.223C208.788 113.654 209.173 113.091 209.631 112.597C210.095 112.097 210.604 111.641 211.128 111.206C212.294 110.236 213.55 109.375 214.739 108.435C215.619 107.728 216.452 106.973 217.246 106.173C218.376 104.997 219.449 103.757 220.432 102.455C220.786 101.979 221.138 101.499 221.496 101.025C221.881 100.514 222.282 100.016 222.682 99.5182C223.525 98.4691 224.375 97.4272 225.234 96.3917C226.103 95.343 226.996 94.3175 227.92 93.3181C228.856 92.3047 229.857 91.3487 230.874 90.4153C232.058 89.3274 233.31 88.3068 234.616 87.3612C233.835 87.2554 233.058 87.1266 232.288 86.9462C230.297 86.4897 228.414 85.6698 226.571 84.8029C224.734 83.9102 222.966 82.848 221.384 81.5548C219.6 80.1491 218.366 77.3159 219.793 75.2779C220.613 74.2699 222.067 74.1619 223.279 74.2224C225.729 74.5077 228.049 75.5518 230.09 76.9014C233.084 78.7207 235.794 80.9726 238.215 83.497C238.529 83.8302 238.836 84.1692 239.136 84.514H239.137C239.767 84.1823 240.408 83.8713 241.059 83.5816C241.7 83.2959 242.353 83.041 243.009 82.7937C243.638 82.5564 244.277 82.3399 244.923 82.155C247.568 81.3975 250.318 80.8659 253.082 81.0264C254.324 81.0987 255.552 81.2533 256.765 81.5295C258.018 81.8138 259.254 82.1718 260.461 82.6116C261.762 83.0848 263.015 83.6891 264.209 84.387C264.234 84.4019 264.26 84.4169 264.286 84.4322C266.709 82.2802 269.512 80.5694 272.43 79.1727C274.145 78.3207 275.895 77.5356 277.723 76.9552C280.849 75.9654 284.242 74.9411 287.526 75.6815C288.839 76.0467 290.301 76.8355 289.818 78.4364C288.951 81.3252 284.545 83.3085 281.961 84.4923C279.347 85.6278 276.624 86.4802 273.879 87.2364C272.452 87.6365 271.043 88.0943 269.621 88.5079C269.954 88.8116 270.28 89.1235 270.6 89.4408C271.517 90.3503 272.396 91.3008 273.239 92.278C274.14 93.3235 275.014 94.392 275.812 95.5171C276.579 96.5978 277.3 97.712 277.947 98.8677C279.317 101.321 280.405 103.921 281.46 106.52C281.98 107.799 282.448 109.099 282.929 110.394C283.414 111.704 283.878 113.019 284.318 114.345C284.751 115.651 285.207 116.949 285.652 118.251C286.124 119.629 286.54 121.024 286.97 122.415C287.388 123.763 287.808 125.112 288.219 126.462C288.623 127.79 289.05 129.111 289.467 130.435C290.327 133.169 291.137 135.919 291.866 138.692C292.601 141.482 293.254 144.294 293.944 147.096C294.281 148.47 294.613 149.845 294.946 151.22C295.275 152.572 295.632 153.914 296.002 155.256C296.396 156.683 296.779 158.114 297.154 159.396C297.982 162.149 298.801 164.908 299.728 167.629C300.204 169.027 300.719 170.41 301.206 171.804C301.721 173.275 302.214 174.754 302.684 176.239C303.568 179.037 304.31 181.874 305.047 184.713C305.759 187.452 306.415 190.205 307.002 192.972C307.591 195.745 308.063 198.545 308.525 201.341C308.759 202.749 308.976 204.16 309.132 205.579C309.274 206.874 309.373 208.174 309.439 209.476C309.505 210.779 309.538 212.086 309.529 213.391Z" fill="#FDC5AE"/>
<path d="M241.506 89.0083C241.02 89.3713 239.636 90.8728 240.277 91.4364C240.625 91.6299 240.888 91.1946 241.142 91.0197C241.561 90.6658 242.017 90.334 242.364 89.9064C242.815 89.3414 242.093 88.5879 241.506 89.0083ZM243.909 86.3474C243.635 86.6656 243.315 87.0014 243.149 87.3942C243.121 87.4249 243.104 87.4647 243.136 87.5054C243.166 87.5443 243.215 87.5456 243.251 87.5203C243.52 87.49 243.754 87.3169 243.987 87.1895C244.36 86.9079 245.31 86.6498 244.955 86.0364C244.615 85.6097 244.162 86.0617 243.909 86.3474ZM246.499 88.6214C246.067 88.9405 245.752 89.3884 245.432 89.8133C245.36 89.9385 245.233 90.061 245.256 90.2151C245.327 90.4443 245.579 90.2866 245.719 90.2183C246.011 90.0863 246.3 89.9507 246.587 89.8088C246.8 89.703 246.994 89.5805 247.171 89.4219C247.638 88.9821 247.016 88.2426 246.499 88.6214ZM249.756 83.5115C249.476 83.7145 249.239 83.9699 249.006 84.2239C248.835 84.4445 248.585 84.6573 248.532 84.9398C248.519 85.0741 248.674 85.1839 248.795 85.113C249.023 84.9037 249.329 84.7961 249.604 84.6528C249.831 84.5489 250.06 84.4485 250.278 84.3265C250.86 83.9766 250.316 83.1318 249.756 83.5115ZM240.261 86.5707C239.997 86.8233 239.763 87.1027 239.529 87.382C239.392 87.5944 238.737 88.1201 239.142 88.3158C239.201 88.3344 239.266 88.3195 239.313 88.2806C239.791 87.9127 240.298 87.5565 240.786 87.1962C241.235 86.841 240.687 86.1914 240.261 86.5707ZM275.352 111.564C275.451 112.08 275.444 112.794 275.945 113.095C276.367 113.299 276.859 112.879 276.738 112.432C276.621 111.926 276.366 111.468 276.111 111.019C276.036 110.888 275.935 110.726 275.793 110.663C275.244 110.499 275.283 111.221 275.352 111.564ZM275.453 106.348C275.854 106.542 276.315 106.102 276.14 105.693C276.009 105.371 275.811 105.086 275.608 104.806C275.485 104.592 275.239 104.421 275.084 104.708C274.937 105.024 275.052 105.393 275.093 105.724C275.142 105.963 275.201 106.242 275.453 106.348ZM279.703 110.079C279.471 109.895 279.117 110.102 279.128 110.39C279.177 110.766 279.397 111.105 279.497 111.473C279.63 111.892 279.747 112.315 279.884 112.734C279.929 112.903 280.013 113.054 280.166 113.147C280.606 113.434 281.201 112.994 281.064 112.491C280.892 111.565 280.427 110.69 279.703 110.079ZM278.16 118.137C278.085 117.993 277.984 117.829 277.833 117.752C277.376 117.568 277.21 118.038 277.308 118.41C277.389 118.99 277.409 119.582 277.579 120.145C277.623 120.29 277.705 120.414 277.836 120.494C278.263 120.769 278.824 120.347 278.699 119.862C278.58 119.272 278.435 118.677 278.16 118.137ZM282.808 119.076C282.858 118.76 282.416 118.576 282.22 118.831C281.82 119.425 282.331 120.444 282.499 121.081C282.764 121.739 283.763 121.415 283.595 120.729C283.455 120.122 283.106 119.611 282.808 119.076ZM280.635 125.304C280.617 125.124 280.384 124.989 280.216 125.122C280.001 125.314 280.042 125.644 280.06 125.904C280.081 126.207 280.096 126.51 280.126 126.813C280.26 127.606 281.423 127.313 281.168 126.551C281.015 126.125 280.791 125.726 280.635 125.304ZM296.658 188.826C296.519 188.586 296.363 188.276 296.065 188.218C295.732 188.173 295.597 188.536 295.66 188.808C295.709 189.219 295.711 189.633 295.806 190.038C296.028 190.828 297.196 190.531 297.018 189.733C296.945 189.417 296.813 189.11 296.658 188.826ZM299.091 184.064C299.014 183.59 298.895 183.118 298.689 182.681C298.633 182.567 298.573 182.465 298.458 182.406C298.057 182.264 297.978 182.805 297.959 183.086C297.958 183.573 297.724 184.218 298.126 184.595C298.511 184.932 299.175 184.573 299.091 184.064ZM303.034 190.341C302.93 189.359 302.56 188.444 302.175 187.545C302.126 187.26 301.696 187.234 301.608 187.507C301.546 187.655 301.571 187.829 301.596 187.981C301.766 188.841 301.949 189.635 302.103 190.513C302.153 190.765 302.437 190.916 302.679 190.855C302.902 190.799 303.067 190.574 303.034 190.341ZM298.289 193.735C298.126 194.276 298.29 194.874 298.355 195.423C298.388 195.594 298.581 195.696 298.744 195.655C299.332 195.49 298.595 194.341 298.613 193.909C298.749 193.688 298.405 193.504 298.289 193.735ZM303.386 194.598C303.292 194.192 302.952 193.313 302.436 193.787C302.23 194.132 302.111 194.902 302.462 195.186C302.87 195.537 303.532 195.115 303.386 194.598ZM268.606 184.419C267.837 181.72 267.036 178.986 265.709 176.49C263.99 173.382 261.313 170.508 257.697 169.781C255.682 169.325 253.522 169.629 251.626 170.409C250.451 170.932 249.436 171.753 248.557 172.68C245.496 176.187 243.397 180.456 242.65 185.079C242.011 189.041 241.752 193.131 242.558 197.087C242.864 198.648 243.391 200.154 243.696 201.713C243.884 202.403 243.833 203.382 244.556 203.755C246.07 204.267 247.698 204.402 249.276 204.642C253.098 205.075 256.954 205.139 260.798 205.074C262.287 205.056 263.776 204.956 265.255 204.779C266.215 204.649 267.196 204.504 268.075 204.075C269.498 203.53 269.564 202.15 269.742 200.834C269.939 199.302 270.046 197.759 270.105 196.215C270.201 192.238 269.686 188.248 268.606 184.419Z" fill="white"/>
<path d="M307.876 177.381C307.542 177.201 307.192 176.89 306.797 176.849C306.153 177.018 306.9 178.022 307.144 178.3C307.503 178.728 307.973 179.068 308.513 179.23C309.126 179.461 309.628 178.636 309.133 178.207C308.746 177.881 308.308 177.644 307.876 177.381ZM312.032 177.139C311.526 176.731 310.912 176.499 310.335 176.213C310.154 176.162 309.768 175.875 309.692 176.177C309.855 176.932 310.829 177.883 311.553 178.174C312.208 178.398 312.616 177.505 312.032 177.139ZM315.8 174.853C315.071 174.231 314.078 174.108 313.215 173.755C312.701 173.783 312.951 174.398 313.183 174.657C313.684 175.305 314.305 175.951 315.134 176.139C315.862 176.315 316.372 175.343 315.8 174.853ZM318.98 170.889C318.377 170.634 317.706 170.653 317.068 170.557C316.764 170.507 316.28 170.353 316.252 170.839C316.305 171.308 316.805 171.595 317.146 171.866C317.558 172.155 317.999 172.433 318.503 172.523C319.536 172.729 319.963 171.27 318.98 170.889ZM320.236 167.368C319.686 167.405 319.086 167.285 318.566 167.484C317.921 168.083 319.535 168.713 319.966 168.872C320.903 169.225 322.786 170.071 323.047 168.537C323.053 167.122 321.204 167.41 320.236 167.368ZM320.451 165.286C321.268 165.423 321.95 165.456 322.809 165.308C323.915 165.06 323.609 163.453 322.487 163.621C321.688 163.73 320.962 164.095 320.201 164.339C319.175 164.615 319.66 165.155 320.451 165.286ZM313.786 171.928C315.698 170.047 317.512 167.902 318.36 165.319C319.117 163.124 318.018 161.826 316.016 161.048C310.817 159.212 305.043 158.915 300.279 155.932C298.538 154.791 296.68 153.432 295.877 151.425C297.318 150.287 298.63 148.971 299.143 147.189C299.434 145.909 299.138 144.583 298.906 143.316C298.333 140.652 297.4 138.041 295.9 135.751C295.435 135.031 295.014 134.242 294.316 133.72C293.082 132.879 291.424 132.883 290.077 133.447C288.951 134.005 287.964 134.62 286.823 135.233C283.568 137.207 279.878 138.323 276.18 139.219C270.754 140.57 265.221 141.458 259.659 142.002C257.41 142.132 255.16 142.2 252.921 142.471C251.222 142.627 249.512 142.614 247.814 142.772C246.472 142.944 244.937 143.305 244.175 144.53C243.459 145.744 243.007 147.089 242.608 148.434C242.07 150.38 241.513 152.39 241.304 154.413C241.106 155.89 241.41 157.183 243.171 156.908C243.619 157.266 244.114 156.897 244.391 156.514C244.925 156.062 245.36 155.464 245.982 155.128C247.772 154.476 249.001 156.288 250.303 157.181C250.939 157.642 251.673 157.935 252.344 158.339C252.94 158.725 253.509 159.166 254.162 159.454C255.826 160.081 257.346 158.682 258.511 157.66C259.652 156.649 262.39 152.494 264.019 153.24C266.305 154.285 268.284 155.887 270.407 157.22C273.311 159.177 273.146 159.892 276.897 159.269C279.633 158.837 282.329 158.169 284.922 157.2C284.989 157.428 285.069 157.654 285.139 157.88C285.505 159.057 285.87 160.235 286.324 161.383C287.421 163.931 289.026 166.242 290.72 168.429C293.666 172.177 297.262 176.531 302.358 176.952C306.459 177.188 310.848 174.619 313.786 171.928Z" fill="#673632"/>
<path d="M268.031 148.414C267.584 147.812 267.027 147.183 267.236 146.377C267.622 144.515 268.78 142.79 268.471 140.826C268.189 140.873 267.908 140.922 267.626 140.968C267.636 142.739 266.718 144.16 266.293 146.082C266.094 146.923 266.346 147.759 266.89 148.417C267.958 149.693 268.185 150.848 267.645 152.429C267.445 153.078 267.246 153.731 267.174 154.41C267.15 154.617 267.109 154.865 267.202 155.058C267.207 155.069 267.215 155.076 267.221 155.087C267.323 155.154 267.424 155.223 267.526 155.292C267.706 155.319 267.902 155.248 267.986 155.07C268.093 154.833 268.033 154.56 268.091 154.309C268.334 152.895 269.139 151.496 268.766 150.026C268.659 149.437 268.374 148.899 268.031 148.414ZM250.133 152.637C250.147 151.434 249.829 150.264 249.329 149.177C249.115 148.672 248.958 148.128 249.048 147.576C249.281 146.505 249.878 145.544 250.111 144.468C250.262 143.866 250.262 143.24 250.154 142.631C249.898 142.642 249.643 142.654 249.387 142.667C249.388 142.936 249.388 143.207 249.333 143.464C248.97 145.48 246.988 147.089 247.91 149.259C248.173 149.972 248.5 150.528 248.696 151.295C248.899 152.102 248.93 152.94 248.861 153.767C248.838 154.086 249.079 154.374 249.402 154.4C250.277 154.417 250.062 153.228 250.133 152.637ZM253.232 144.649C253.275 143.89 253.06 143.163 252.734 142.485C252.511 142.504 252.288 142.518 252.065 142.533C252.724 145.495 251.118 145.543 250.708 148.316C250.665 149.528 251.33 150.62 251.32 151.831C251.314 152.148 251.275 152.513 251.23 152.878C251.201 153.116 251.383 153.343 251.612 153.393C252.358 153.485 252.308 152.456 252.355 151.948C252.396 151.235 252.239 150.538 252.063 149.852C251.83 148.987 251.751 148.075 252.191 147.26C252.547 146.423 253.182 145.596 253.232 144.649ZM266.143 149.67C266.039 148.877 265.856 148.078 265.467 147.375C265.018 146.657 264.405 145.957 264.494 145.05C264.48 144.173 264.924 143.475 265.027 142.573C265.07 142.17 265.064 141.763 264.998 141.364C264.789 141.394 264.579 141.424 264.37 141.452C264.364 141.568 264.354 141.685 264.338 141.801C264.166 142.966 263.351 143.943 263.342 145.148C263.274 145.798 263.412 146.46 263.709 147.041C264.047 147.659 264.528 148.204 264.667 148.915C264.913 149.803 264.953 150.727 264.877 151.64C264.859 152.271 264.62 152.977 264.757 153.603C265.053 153.757 265.345 153.917 265.633 154.086C265.713 154.028 265.779 153.949 265.814 153.848C265.898 153.633 265.81 153.413 265.818 153.192C265.962 152.028 266.291 150.877 266.143 149.67ZM299.243 167.106C300.218 165.424 302.701 166.731 304.292 164.685C304.566 164.332 304.776 163.93 304.891 163.498C305.108 162.854 304.925 162.019 305.484 161.527C306.411 160.549 308.003 160.118 308.939 159.155C308.626 159.079 308.314 159.003 308.003 158.925C306.654 159.712 304.988 160.128 304.184 161.532C303.768 162.429 303.904 163.603 303.023 164.244C302.447 164.689 301.694 164.799 300.992 164.914C298.987 165.176 298.215 166.317 297.534 168.078C297.002 169.313 296.283 170.505 295.195 171.328C294.759 171.629 294.287 171.868 293.808 172.095C294.076 172.38 294.351 172.657 294.631 172.929C295.228 172.652 295.818 172.343 296.31 171.901C296.951 171.335 297.465 170.677 297.903 169.938C298.428 169.101 298.749 167.993 299.243 167.106ZM312.205 159.937C311.57 161.106 310.738 162.174 309.528 162.788C308.947 163.101 308.196 163.3 307.609 163.674C304.565 165.825 308.118 167.845 302.875 169.179C301.146 169.542 299.831 170.237 299.18 171.972C298.945 172.574 298.928 173.244 298.636 173.823C298.269 174.361 297.744 174.752 297.152 175.014C297.468 175.227 297.792 175.425 298.122 175.61C298.77 175.257 299.34 174.762 299.668 174.1C299.956 173.497 300.007 172.809 300.28 172.198C300.602 171.502 301.116 170.876 301.849 170.596C303.553 170.033 305.557 169.761 306.634 168.144C307.039 167.507 306.969 166.726 307.048 166.007C307.258 164.437 308.436 164.254 309.696 163.788C311.313 163.136 312.523 161.771 313.298 160.219C312.934 160.122 312.57 160.028 312.205 159.937ZM285.355 154.609C285.176 153.103 285.997 151.71 286.058 150.221C286.117 149.352 285.888 148.469 285.354 147.772C284.624 146.853 283.487 146.622 283.58 145.209C283.718 142.442 284.637 139.609 282.69 137.243C282.558 137.295 282.425 137.344 282.292 137.394C283.812 139.867 282.896 141.865 282.372 144.888C282.013 147.874 284.109 147.412 284.726 149.212C284.988 150.211 284.56 151.217 284.309 152.176C283.751 154.089 283.916 155.066 285.12 156.649C285.481 157.194 286.316 156.709 286.037 156.135C285.805 155.631 285.434 155.17 285.355 154.609ZM280.618 155.149C281.004 153.088 282.533 151.12 281.488 148.961C281.077 147.975 280.054 147.481 279.429 146.658C278.473 145.134 280.819 141.996 280.226 139.906C280.088 139.331 279.788 138.813 279.418 138.354C279.191 138.421 278.965 138.489 278.738 138.553C280.061 140.293 279.246 141.947 278.611 143.96C278.287 145.052 277.922 146.416 278.808 147.343C279.341 147.989 280.131 148.398 280.585 149.108C281.07 149.945 281.028 150.959 280.743 151.855C280.561 152.442 280.324 153.008 280.11 153.584C279.878 154.241 279.565 154.952 279.789 155.654C280.002 156.342 280.596 156.787 281.035 157.325C281.263 157.613 281.421 157.94 281.536 158.283C281.808 158.209 282.08 158.133 282.35 158.053C282.174 157.505 281.882 156.998 281.506 156.564C281.153 156.144 280.63 155.74 280.618 155.149Z" fill="white"/>
<path d="M289.839 182.939C289.39 182.581 289.03 183.162 288.697 183.402C288.424 183.609 288.142 183.799 287.853 183.981C286.443 184.827 284.79 185.157 283.161 185.22C279.028 185.215 276.266 183.091 273.438 180.355C270.464 177.375 267.961 173.964 265.434 170.611C263.233 167.676 261.024 164.741 258.665 161.931C259.855 159.014 261.597 156.381 263.366 153.789C263.558 153.881 263.748 153.975 263.932 154.077C264.878 154.537 265.775 155.085 266.669 155.636C268.773 156.933 270.821 158.326 272.834 159.758C274.364 160.923 275.75 162.248 277.14 163.572C277.143 163.574 277.146 163.577 277.148 163.579C278.16 164.557 279.137 165.578 280.086 166.622C280.994 167.65 281.922 168.669 283.021 169.498C283.558 169.932 284.153 170.32 284.83 170.49C285.418 170.736 287.453 170.46 286.95 169.505C286.878 169.402 286.765 169.33 286.64 169.307C286.408 169.27 286.237 169.42 286.012 169.477C285.501 169.647 284.984 169.425 284.535 169.186C283.275 168.393 282.22 167.318 281.228 166.221C278.858 163.684 276.365 161.238 273.639 159.075C271.909 157.8 270.099 156.636 268.331 155.411C267.26 154.727 266.186 154.018 265.031 153.478C264.295 153.044 263.414 152.627 262.939 152.411C262.602 152.222 262.206 152.088 261.924 152.004C261.007 151.708 260.095 151.403 259.158 151.173C258.654 151.109 257.874 150.654 257.398 151.076C256.762 151.927 256.559 153.037 256.201 154.024C255.752 155.52 255.271 157.027 254.981 158.564C254.592 156.782 254.052 155.052 253.506 153.303C253.301 152.632 253.003 151.999 252.74 151.351C252.645 150.969 252.301 150.66 251.889 150.737C250.201 151.205 248.766 152.336 247.309 153.272C244.6 155.257 242.188 157.671 240.125 160.314V160.315C240.124 160.317 240.123 160.318 240.121 160.32C237.253 164.129 234.836 168.252 233.49 172.863C233.003 174.451 232.747 176.147 233.169 177.78C233.448 179.02 234.009 180.348 235.148 181.023C238.382 182.853 241.886 175.63 243.56 173.541C245.143 171.077 246.914 168.75 248.869 166.566C250.334 164.779 251.948 163.128 253.601 161.514C254.128 160.97 254.702 160.469 255.25 159.947C255.481 160.201 255.768 160.428 255.955 160.695C256.805 161.697 257.774 162.592 258.566 163.645C260.854 166.502 263.112 169.398 265.321 172.344C268.226 176.111 271.07 180.022 274.793 183.041C276.484 184.514 278.495 185.623 280.715 186.045C283.375 186.61 286.354 186.193 288.638 184.681C289.093 184.368 289.526 184.02 289.893 183.607C290.069 183.417 290.03 183.101 289.839 182.939ZM243.938 171.347C242.825 172.978 241.65 174.566 240.573 176.222C239.621 177.561 237.893 180.467 236.101 180.5C234.58 180.217 234.168 178.352 233.929 177.043C233.582 174.723 234.546 172.516 235.344 170.369C236.372 167.659 237.997 165.09 239.672 162.708C241.259 160.337 243.158 158.191 245.29 156.285C245.582 156.012 245.882 155.747 246.187 155.49C246.274 155.94 246.39 156.384 246.5 156.828C246.883 158.413 247.51 159.937 248.343 161.34C248.657 161.808 249.445 163.119 250.115 163.763C247.875 166.134 245.82 168.683 243.938 171.347Z" fill="#77966D"/>
<path d="M225.54 99.4449C225.058 99.4061 224.64 99.8269 224.621 100.292C224.601 100.787 224.99 101.169 225.47 101.208C225.95 101.247 226.37 100.826 226.389 100.361C226.409 99.8653 226.02 99.4834 225.54 99.4449ZM235.211 100.752C234.694 100.71 234.244 101.161 234.225 101.662C234.203 102.193 234.621 102.604 235.137 102.645C235.654 102.686 236.104 102.235 236.124 101.735C236.145 101.203 235.727 100.793 235.211 100.752Z" fill="#673632"/>
<path d="M223.526 121.404C222.953 121.261 222.894 122.018 222.722 122.391C222.507 123.053 222.232 123.687 221.892 124.298C220.339 126.771 217.902 129.083 214.916 129.596C212.451 129.978 209.998 128.598 208.503 126.697C207.483 125.409 207.023 123.808 206.596 122.247C206.603 122.248 206.61 122.248 206.617 122.25C209.711 122.404 213.605 119.008 214.161 116.021C214.452 112.162 210.595 111.621 207.842 113.216C207.497 112.803 207.107 112.39 206.618 112.153C205.508 111.681 204.025 111.779 203.345 112.891C202.334 114.415 202.352 116.399 202.678 118.135C203.134 119.85 204.349 121.618 206.109 122.138C206.07 122.603 206.273 123.409 206.313 123.674C206.876 127.178 209.663 130.057 213.207 130.582C217.445 131.128 221.598 127.529 223.204 123.848C223.459 123.231 223.636 122.581 223.8 121.936C223.869 121.719 223.746 121.471 223.526 121.404Z" fill="#673632"/>
<path d="M222.501 103.142C221.457 103.333 220.174 103.616 219.619 104.613C219.015 105.793 220.119 106.774 221.275 106.784C222.451 107.004 223.758 106.776 224.639 105.927C225.764 104.605 223.896 102.929 222.501 103.142ZM241.793 106.903C241.414 105.447 239.858 104.879 238.527 104.595C236.737 104.166 233.581 104.885 232.351 106.289C230.956 108.014 232.52 109.951 234.454 110.115C235.335 110.221 236.225 110.132 237.104 110.089C238.212 110.149 239.348 110.047 240.367 109.582C241.413 109.16 242.119 108.022 241.793 106.903Z" fill="#77966D"/>
<path d="M245.98 101.256C242.89 95.4258 234.572 94.8608 230.745 100.262C229.839 101.516 229.338 102.897 229.165 104.29C229.029 104.186 228.885 104.093 228.731 104.033C228.383 103.914 227.945 103.892 227.549 103.986C227.722 103.177 227.789 102.323 227.722 101.434C227.211 94.5846 219.35 90.7905 213.689 94.7672C208.144 98.6092 208.739 106.938 214.705 110.035C219.849 112.697 225.767 109.776 227.336 104.747C227.476 104.703 227.621 104.672 227.764 104.675C228.311 104.62 228.741 104.878 229.101 105.246C229.04 109.494 232.032 113.606 236.704 114.292C243.946 115.389 249.422 107.717 245.98 101.256ZM219.079 110.192C213.222 110.416 209.079 104.58 211.211 99.1294C213.628 92.9434 222.2 92.1899 225.714 97.825C228.992 103.078 225.296 109.975 219.079 110.192ZM238.319 113.468C232.054 113.718 227.874 107.065 230.84 101.536C234.022 95.6829 242.594 95.9171 245.382 102.025C247.779 107.209 244.058 113.271 238.319 113.468Z" fill="#673632"/>
<path d="M187.708 57.9604C190.411 58.3261 190.175 58.3713 190.117 61.0019C190.079 64.9416 189.432 68.7266 189.101 72.631C188.739 75.5767 188.482 78.5368 188.023 81.4698C187.48 84.3518 186.915 87.2243 186.388 90.108C186.181 91.1784 185.953 92.246 185.718 93.3109C185.693 93.479 185.639 93.6413 185.552 93.7878C184.767 95.1505 180.952 94.6538 179.522 94.6732C177.031 94.6104 174.537 94.6136 172.053 94.3848C169.062 94.1905 166.064 94.1955 163.082 93.8727C160.78 93.7222 158.49 93.4668 156.216 93.0745C154.311 92.8322 152.419 92.4851 150.576 91.9413C149.731 91.6634 148.787 91.6055 148.011 91.1567C147.167 91.3772 147.006 89.4409 146.842 88.9021C146.647 87.9967 146.519 87.081 146.402 86.1625C145.895 82.2405 145.566 78.2977 145.368 74.3481C145.281 69.3364 144.867 64.2066 145.989 59.2843C146.408 58.4685 147.511 58.614 148.281 58.4178C149.276 58.2592 150.278 58.1417 151.279 58.0151C153.298 57.7435 155.327 57.5487 157.363 57.4465C167.471 57.2228 177.645 56.7111 187.708 57.9604Z" fill="#77966D"/>
<path d="M156.86 74.8092C156.605 76.2497 156.269 77.6934 156.152 79.1511C156.152 79.4856 156.432 79.764 156.767 79.764C157.624 79.7057 157.381 78.6028 157.462 78.0071C157.529 76.9553 157.467 75.8949 157.526 74.8485C157.528 74.4372 156.907 74.4186 156.86 74.8092ZM160.181 75.2743C159.824 74.9904 159.595 75.4153 159.595 75.7416C159.512 76.821 159.133 77.8733 159.153 78.9572C159.176 79.2519 159.468 79.4774 159.751 79.4774C160.048 79.4774 160.311 79.2519 160.349 78.9572C160.47 77.9537 160.564 76.9281 160.407 75.9202C160.368 75.7032 160.344 75.4392 160.181 75.2743ZM156.648 68.082C157.35 68.0364 157.186 67.1342 157.256 66.6411C157.286 65.8456 157.366 65.0356 157.229 64.2473C157.206 63.9847 156.94 63.7148 156.683 63.9074C156.498 64.0724 156.49 64.3494 156.454 64.579C156.346 65.596 156.089 66.6076 156.132 67.6346C156.152 67.8877 156.401 68.082 156.648 68.082ZM160.804 63.8486C160.61 63.8084 160.475 63.9372 160.432 64.1153C160.369 64.5845 160.351 65.0604 160.248 65.5255C160.177 66.1728 159.65 67.6192 160.098 68.1191C160.423 68.4658 161.063 68.252 161.111 67.7783C161.232 66.7464 161.375 65.691 161.248 64.6536C161.183 64.368 161.119 63.9594 160.804 63.8486ZM162.665 75.2702C162.45 75.1784 162.208 75.4013 162.271 75.6291C162.306 76.0648 162.205 76.5051 162.133 76.9354C162 77.5881 161.812 78.229 161.769 78.8952C161.749 79.2383 162.072 79.5253 162.401 79.5253C162.697 79.5253 163.005 79.2903 163.026 78.9807C163.071 77.9185 163.248 76.8269 163.005 75.7787C162.954 75.5803 162.873 75.3507 162.665 75.2702ZM152.845 68.511C153.569 68.4558 153.344 67.3891 153.411 66.8829C153.421 66.0788 153.439 65.2674 153.212 64.4801C153.166 64.264 152.916 64.1054 152.739 64.2893C152.558 64.5194 152.592 64.8493 152.559 65.1264C152.538 66.0693 152.289 67.1319 152.367 68.0956C152.41 68.3302 152.598 68.511 152.845 68.511ZM163.34 64.1126C163.149 64.3906 163.211 64.7671 163.168 65.1034C163.128 65.8446 162.972 66.6619 162.932 67.423C162.94 68.0992 163.952 68.1001 163.968 67.423C163.984 66.3649 163.949 65.2964 163.69 64.2658C163.714 64.0769 163.462 63.9661 163.34 64.1126ZM149.848 75.6119C149.62 75.3303 149.394 75.6662 149.379 75.9107C149.271 76.8861 149.162 77.8787 149.187 78.8758C149.275 79.4846 150.178 79.4218 150.187 78.808C150.187 77.9935 150.059 77.1849 149.98 76.3753C149.934 76.124 149.953 75.8461 149.848 75.6119ZM150.369 64.1103C150.375 63.6981 150.02 63.3541 149.611 63.3541C148.799 63.3618 148.827 64.2504 148.823 64.8453C148.829 65.8668 148.634 66.9236 148.929 67.9198C149.019 68.1978 149.26 68.3984 149.56 68.3984C150.858 68.3135 150.3 65.0451 150.369 64.1103ZM152.769 75.0288C152.642 75.1667 152.65 75.3633 152.628 75.5378C152.588 76.0278 152.562 76.5191 152.519 77.0086C152.489 77.3548 152.452 77.7006 152.414 78.0468C152.399 78.544 152.154 79.1682 152.513 79.5877C152.849 79.9489 153.531 79.7278 153.574 79.2315C153.618 78.1372 153.616 77.0249 153.449 75.9401C153.384 75.6133 153.288 74.6821 152.769 75.0288ZM182.373 76.0707C182.096 76.798 181.826 77.5284 181.589 78.2697C181.381 78.916 181.015 79.8372 181.963 80.0433C182.351 80.0976 182.739 79.8146 182.788 79.4182C182.889 78.4767 182.825 77.5252 182.866 76.5801C182.842 76.3536 183.011 76.1245 182.947 75.9464C182.795 75.6467 182.443 75.7891 182.373 76.0707ZM183.485 64.6455C182.971 64.3467 182.971 65.2941 182.911 65.5992C182.862 66.0001 182.805 66.4011 182.727 66.7975C182.69 67.3679 181.996 68.6538 182.899 68.8369C183.594 68.9056 183.546 68.0662 183.584 67.5885C183.656 66.6962 183.662 65.8275 183.578 64.9325C183.569 64.8304 183.56 64.7228 183.485 64.6455ZM179.06 64.476C178.948 64.7359 178.919 65.0279 178.854 65.3031C178.705 65.9644 178.533 66.623 178.404 67.2888C178.298 67.772 178.107 68.5241 178.795 68.6366C179.6 68.7058 179.482 67.725 179.545 67.1853C179.596 66.548 179.662 65.9079 179.624 65.2683C179.613 64.9913 179.484 64.0606 179.06 64.476ZM169.925 64.1745C169.872 63.9218 169.483 63.9209 169.427 64.1718C169.305 64.7047 169.298 65.2665 169.198 65.8067C169.119 66.4589 168.896 67.1017 168.938 67.7634C168.969 68.0888 169.301 68.3184 169.614 68.2755C170.157 68.2063 170.156 67.621 170.149 67.1961C170.155 66.1873 170.114 65.1648 169.925 64.1745ZM185.579 75.8099C185.285 75.7692 184.992 76.0264 185.027 76.3279C184.967 76.586 184.879 76.8364 184.803 77.0904C184.54 77.9754 184.237 78.8559 184.126 79.7766C184.069 80.1776 184.361 80.5604 184.764 80.6151C185.153 80.6684 185.568 80.3832 185.605 79.9787C185.66 79.3857 185.696 78.7922 185.755 78.1992C185.809 77.6328 185.854 77.0601 185.953 76.4996C186.094 76.2135 185.9 75.8533 185.579 75.8099ZM186.603 66.9633C186.596 66.6176 186.613 64.556 185.941 65.0726H185.943C185.797 65.3597 185.807 65.7005 185.747 66.0137C185.618 66.976 185.367 67.9238 185.335 68.8975C185.309 69.4412 186.046 69.7359 186.412 69.3427C186.533 69.222 186.591 69.0656 186.596 68.8975C186.629 68.2524 186.612 67.6084 186.603 66.9633ZM178.802 75.9636C178.622 75.9414 178.504 76.0987 178.484 76.2601C178.323 77.3295 177.916 78.3628 177.851 79.4435C177.86 80.2011 178.972 80.2752 179.083 79.5271C179.122 78.9133 179.513 76.0856 178.802 75.9636ZM176.4 64.2663C176.106 64.6545 176.172 65.2141 176.041 65.6706C175.957 66.0684 175.861 66.4634 175.757 66.8567C175.603 67.4944 175.116 68.6525 176.079 68.8495C176.791 68.9196 176.909 68.2213 176.918 67.6685C176.959 66.8241 176.992 65.9753 176.909 65.1327C176.85 64.8498 176.89 63.9942 176.4 64.2663ZM172.664 75.3552C172.62 75.1866 172.354 75.187 172.311 75.3565C172.233 76.0061 172.229 76.6709 172.088 77.316C172.007 77.7824 171.816 78.2308 171.802 78.7059C171.804 79.0159 172.06 79.2745 172.373 79.2745C173.117 79.2464 172.935 78.3479 172.949 77.8376C172.941 77.005 172.858 76.1647 172.664 75.3552ZM172.776 64.358C172.548 64.5153 172.528 64.8489 172.474 65.0988C172.326 66.0512 172.091 66.9918 172.009 67.9528C171.981 68.5056 172.733 68.8066 173.105 68.4052C173.23 68.2814 173.284 68.125 173.293 67.9528C173.315 67.334 173.279 66.7129 173.254 66.0946C173.189 65.7936 173.25 64.1786 172.776 64.358ZM175.819 75.884C175.821 75.7905 175.778 75.6969 175.684 75.6417C175.538 75.5563 175.373 75.6232 175.302 75.7543C175.057 76.2999 174.98 76.9232 174.845 77.5067C174.73 78.1517 174.567 78.8017 174.565 79.4593C174.582 80.2128 175.677 80.2879 175.789 79.543C175.886 78.5978 175.933 77.645 175.895 76.6954C175.877 76.4237 175.859 76.1525 175.819 75.884Z" fill="white"/>
<path d="M185.552 48.1687C185.883 49.249 186.444 50.3388 186.367 51.4905C186.047 53.5308 183.721 54.2608 182.063 54.9808C178.873 56.255 175.573 57.2264 172.358 58.4309C173.912 59.5528 175.46 60.7031 176.862 62.0099C177.407 62.6043 179.188 63.9399 178.802 64.7978C178.693 65.0347 178.489 65.1838 178.29 65.3425C177.663 65.8654 177.014 66.3599 176.376 66.868C175.41 67.6477 174.463 68.4572 173.576 69.3273C173.003 69.9764 172.234 70.1988 171.787 69.2853C171.228 68.0301 170.705 66.7568 170.128 65.5084C169.961 67.3191 169.73 69.1411 169.651 70.9247C169.252 76.2492 169.156 81.6113 168.823 86.9332C168.705 88.681 168.545 90.4235 168.406 92.1705C168.225 93.3375 168.682 95.1333 166.885 94.934C165.664 94.9028 164.453 94.7473 163.247 94.5706C162.195 94.4585 161.674 94.3338 161.892 93.1328C162.08 91.2109 162.268 89.2921 162.599 87.3879C162.947 84.9213 163.199 82.4434 163.489 79.9705C163.804 77.3946 164.163 74.8218 164.414 72.2386C164.622 68.9241 165.013 65.6295 165.421 62.3358C165.409 62.3471 165.397 62.3593 165.386 62.3706C164.136 63.6434 162.81 64.8394 161.543 66.0928C160.826 66.6962 160.081 67.9171 158.999 67.475C157.927 66.8924 156.876 66.2248 155.977 65.3967C155.029 64.4367 155.697 63.8341 156.554 63.2C157.739 62.2512 158.952 61.312 160.209 60.4622C161.327 59.7729 162.447 58.977 163.623 58.3496C161.822 57.6811 160.069 56.8544 158.298 56.1158C155.957 55.0568 153.489 54.2762 151.197 53.1127C149.077 51.7224 150.308 48.8341 151.101 46.9917C152.67 43.7884 155.167 40.0987 158.489 38.5556C160.684 37.4256 162.706 39.5156 163.822 41.221C165.041 42.9893 165.887 44.9781 166.458 47.0342C167.226 49.442 167.844 51.9004 168.25 54.3941C169.36 50.746 170.342 46.9971 172.309 43.6912C173.229 42.1463 174.348 40.6922 175.739 39.5396C176.905 38.5434 178.176 38.255 179.503 39.1563C182.419 41.3661 184.362 44.7647 185.552 48.1687ZM179.743 51.8815C179.224 50.0762 178.617 48.3527 177.62 46.7739C177.47 46.5949 177.324 46.2929 177.069 46.2785C176.624 46.58 176.279 47.0089 175.913 47.3972C174.732 48.7143 173.792 50.0893 172.822 51.5099C171.361 53.4472 170.044 55.4898 168.495 57.3601C168.478 57.4261 168.46 57.4921 168.442 57.5581C168.497 57.658 168.546 57.7611 168.585 57.8673C170.566 56.9384 172.466 55.8875 174.412 54.9004C176.219 53.9629 178.186 53.2203 179.743 51.8815ZM166.7 57.8275C166.85 57.9102 167.001 57.9952 167.151 58.0797C165.171 55.5562 163.328 52.9333 161.436 50.3447C160.579 49.1428 159.838 47.8541 158.849 46.7513C157.657 47.851 156.687 49.2468 155.732 50.5557C157.118 51.8358 158.764 52.7949 160.407 53.7075C162.627 54.8949 164.519 56.5832 166.7 57.8275Z" fill="#673632"/>
<path d="M156.861 93.0306C157.252 93.145 157.425 93.5631 157.308 93.9369C157.142 94.6104 155.522 97.1194 154.77 96.9454C152.839 96.662 151.009 95.9763 149.202 95.2603C148.253 94.8517 147.254 94.567 146.327 94.1109C146.079 93.9834 145.768 93.908 145.611 93.663C145.49 93.4383 145.531 93.1766 145.54 92.9316C145.431 91.8233 145.427 90.7078 145.613 89.6072C145.95 87.339 146.46 84.8594 148.228 83.2539C148.823 82.7205 149.819 82.7675 150.305 83.4229C151.576 85.2409 150.183 88.8257 149.67 90.814C151.565 91.3401 153.49 91.7718 155.349 92.4186C155.86 92.5999 156.379 92.7789 156.861 93.0306Z" fill="#FDC5AE"/>
<path d="M140.885 174.7C140.249 172.533 139.608 170.366 139.007 168.189C138.086 165.024 136.996 161.913 136.003 158.77C135.006 155.617 133.839 152.524 132.656 149.437C131.9 147.342 131.019 145.291 129.996 143.311C129.289 142.097 128.708 140.548 127.354 139.929C126.629 139.67 125.87 139.526 125.119 139.371C119.462 138.213 113.653 138.538 107.914 138.584C99.8631 138.842 91.8808 139.947 83.9017 140.974C78.3125 141.806 72.6028 142.158 67.185 143.85C65.5879 144.351 64.0026 144.89 62.4445 145.499C61.6389 145.857 60.7409 146.094 60.074 146.693C58.0907 148.971 56.4904 151.561 54.8956 154.117C50.6533 160.939 47.0398 168.138 44.0845 175.602C40.7457 184.073 38.0398 192.798 35.6471 201.576C34.9983 203.629 34.2979 205.666 33.773 207.756C33.1687 209.961 32.5435 212.182 32.3663 214.47C32.2942 215.149 32.2928 216.02 32.9851 216.375C33.384 216.601 33.8609 216.653 34.3043 216.734C35.3383 216.924 36.3824 217.058 37.4259 217.186C39.6799 217.48 41.9484 217.61 44.2187 217.711C54.8448 218.345 65.475 218.958 76.1238 219.028C88.0828 219.273 100.041 218.949 111.987 218.386C121.427 218.078 130.885 217.956 140.291 217.028C141.144 216.929 142.002 216.796 142.821 216.531C143.276 216.382 143.727 216.122 143.922 215.663C144.035 215.396 144.044 215.091 144.063 214.805C144.246 211.717 144.272 208.623 144.264 205.531C144.285 200.922 144.219 196.304 143.691 191.719C143.165 185.99 142.444 180.253 140.885 174.7ZM153.486 95.7101C152.722 95.3236 151.904 95.0696 151.115 94.7442C149.761 94.1963 148.431 93.5771 147.019 93.1897C145.551 92.7129 145.578 93.168 144.927 94.2754C143.99 95.6762 143.087 97.0986 142.143 98.4949C142.136 98.5071 142.128 98.5184 142.12 98.5306C139.602 102.395 136.348 105.692 133.132 108.972C130.399 111.593 127.665 114.248 124.513 116.374C124.333 116.35 124.147 116.393 123.992 116.512C123.858 116.615 123.766 116.769 123.731 116.934C123.626 117.032 123.424 117.159 123.492 117.328C123.534 117.461 123.68 117.436 123.793 117.392C126.337 120.573 128.055 124.377 129.666 128.1C130.416 129.846 131.262 131.551 131.939 133.327C132.185 134.023 132.364 134.738 132.514 135.459C132.627 136.044 132.813 136.823 133.521 136.902C134.059 136.966 134.457 136.521 134.852 136.219C135.213 135.925 135.571 135.628 135.928 135.331C138.17 133.432 140.392 131.481 142.25 129.195C144.752 126.257 146.755 122.942 148.54 119.534C151.264 114.44 153.39 109.016 154.326 103.301C154.648 101.58 155.15 99.8088 155.296 97.9823C155.504 96.4898 154.572 96.3085 153.486 95.7101Z" fill="#77966D"/>
<path d="M105.622 106.318C106.036 107.321 105.912 108.386 105.556 109.388C102.288 118.538 90.566 123.331 82.1368 126.677C76.8323 128.698 71.1811 130.371 65.445 129.757C62.9503 129.696 60.6977 128.01 59.9561 125.631C58.1192 126.734 55.5773 127.171 53.6176 126.143C51.117 124.753 49.5339 121.256 51.1501 118.671C52.4443 116.811 54.9553 115.604 57.2238 115.815C57.2628 113.429 56.6245 111.018 57.0235 108.639C57.295 107.917 58.0049 107.463 58.5213 106.92C60.6379 104.979 62.939 103.249 65.1712 101.443C70.3814 97.4616 75.5856 93.3737 81.5882 90.6581C84.6899 89.388 87.842 87.9597 91.2093 87.6189C91.98 86.2543 95.3152 90.2545 96.06 90.8538C98.8167 93.9197 101.272 97.2519 103.182 100.909C104.216 102.675 105.033 104.386 105.622 106.318Z" fill="#FDC5AE"/>
<path d="M76.2266 118.234C73.5863 118.472 70.8632 119.591 69.126 121.64C67.9918 122.971 67.5371 124.956 68.5462 126.485C69.1673 127.496 70.4275 127.799 71.545 127.789C72.2626 127.806 72.9821 127.748 73.6852 127.607C75.0901 127.556 76.4813 127.225 77.7611 126.646C78.8573 126.223 79.8102 125.51 80.5305 124.584C81.9154 122.971 81.7083 121.184 80.3696 119.622C79.2952 118.586 77.7017 118.123 76.2266 118.234ZM106.051 108.07C105.894 106.848 105.025 105.761 103.842 105.382C102.144 104.809 100.446 105.951 99.337 107.157C98.6421 107.985 98.1316 108.998 97.9857 110.073C97.9612 111.172 98.2169 112.514 99.0623 113.282C99.4767 113.619 99.9889 113.861 100.516 113.956C103.702 114.536 106.574 111.12 106.051 108.07Z" fill="#F4EDE4"/>
<path d="M156.422 162.521C156.394 169.267 151.126 176.503 145.848 180.386C138.537 185.924 129.568 188.696 120.601 190.125C114.31 191.096 107.947 191.889 101.569 191.67C96.3805 191.434 91.1119 191.158 86.1356 189.547C80.5279 187.692 75.4424 184.5 70.6616 181.13C68.9715 179.924 67.3518 178.612 65.8617 177.166C63.5914 174.881 61.7155 172.241 60.0916 169.47C58.4265 166.75 56.8884 163.929 55.9568 160.867C54.0913 155.019 53.3256 148.771 54.3062 142.685C54.7532 138.869 55.6667 135.106 57.0892 131.543C57.2429 131.058 57.4147 130.58 57.6065 130.107C57.995 129.205 58.9742 126.11 59.8813 125.46C59.9733 124.902 61.5042 125.039 61.9081 125.016C63.1507 125.02 64.3892 124.923 65.63 124.884C70.0169 124.868 74.4773 123.827 78.5754 122.444C82.7116 120.987 86.7431 119.242 90.6889 117.333C94.3405 115.455 97.6367 113.063 100.596 110.252C101.835 109.051 102.923 107.755 103.79 106.27C104.007 105.927 104.217 105.578 104.407 105.218C104.524 104.978 104.667 104.748 104.933 104.646C105.209 104.539 105.495 104.511 105.789 104.503C109.32 104.353 112.67 105.57 115.919 106.804C118.475 107.735 120.842 109.114 123.05 110.69C124.685 111.863 126.291 113.091 127.775 114.451C129.162 115.773 130.298 117.328 131.383 118.898C135.622 125.143 137.788 133.188 138.374 140.656C138.728 144.368 138.553 148.097 138.571 151.819C138.578 153.838 139.311 156.191 141.421 156.885C143.208 157.489 145.274 157.18 146.681 155.888C147.403 155.241 148.167 154.335 148.072 153.311C147.964 152.876 147.758 152.475 147.51 152.105C147.196 151.673 146.657 151.109 147.095 150.572C147.73 149.782 150.206 150.728 150.955 151.14C154.793 153.47 156.372 158.232 156.422 162.521Z" fill="white"/>
<path d="M76.7448 106.545C76.1056 106.545 75.5725 107.077 75.5725 107.714C75.5725 108.351 76.1056 108.883 76.7448 108.883C77.384 108.883 77.9172 108.351 77.9172 107.714C77.9172 107.077 77.384 106.545 76.7448 106.545ZM88.6099 100.763C88.0251 100.763 87.5369 101.249 87.5369 101.833C87.5369 102.416 88.0247 102.903 88.6099 102.903C89.1947 102.903 89.683 102.416 89.683 101.833C89.6825 101.249 89.1947 100.763 88.6099 100.763Z" fill="#673632"/>
<path d="M92.9339 109.506C89.9415 109.831 86.7917 110.921 84.7821 113.253C82.0031 116.43 82.364 120.848 87.2868 120.944C88.8879 120.946 90.3753 120.467 91.8205 119.818C92.6211 119.505 93.4194 119.185 94.181 118.787C95.3914 118.131 96.6191 117.38 97.4165 116.231C100.214 112.035 97.5969 109.102 92.9339 109.506ZM94.2531 123.637C94.0745 123.646 93.9322 123.776 93.7649 123.826C93.1443 124.06 92.4674 124.105 91.8146 124.196C90.6047 124.296 89.3771 124.217 88.2238 123.822C88.0615 123.822 87.9386 123.96 87.9087 124.111C87.2713 125.776 87.4885 128.106 89.5489 128.547C91.3191 128.912 93.3768 128.138 94.2395 126.503C94.5555 125.966 94.6824 125.341 94.6888 124.723C94.6824 124.38 94.7599 123.667 94.2531 123.637ZM56.8014 120.834C56.1178 120.788 55.3014 120.822 54.7746 121.31C54.6277 121.452 54.547 121.772 54.8054 121.841C55.174 121.826 55.6096 121.687 56.0788 121.692C56.7842 121.604 57.4697 121.828 58.0486 122.222C58.2326 122.317 58.4679 122.269 58.5876 122.098C59.0164 121.33 57.3364 120.891 56.8014 120.834Z" fill="#77966D"/>
<path d="M76.2076 101.394C74.1689 101.481 72.0115 102.508 71.0663 104.38C70.783 105.03 70.5332 106.01 71.1955 106.513C72.0052 107.014 72.9273 105.832 73.6123 105.465C74.5022 104.899 75.3431 104.234 76.3214 103.822C76.6881 103.673 76.9506 103.669 77.345 103.43C77.7149 103.202 77.8944 102.731 77.811 102.313C77.6759 101.571 76.8695 101.342 76.2076 101.394ZM85.024 96.1676C84.3091 96.6833 82.7469 98.2798 83.329 99.2045C83.8172 99.8057 84.6115 99.3221 85.1854 99.1232C85.6251 98.946 86.0699 98.7657 86.5255 98.6328C87.6407 98.4832 89.3969 98.5699 89.5301 97.0756C89.4853 94.8685 86.2807 95.1501 85.024 96.1676Z" fill="white"/>
<path d="M57.5707 115.449C56.5476 114.998 56.6686 113.719 56.6514 112.789C56.7801 111.748 57.5898 111.021 58.3065 110.331C59.4162 109.356 62.7546 105.849 64.0538 105.908C64.6436 105.586 65.4687 105.881 65.3413 106.638C65.0997 107.336 64.5657 107.902 64.1069 108.47C63.4681 109.247 62.6988 110.096 62.1104 110.829C61.4331 111.755 60.8325 112.736 60.1012 113.622C59.4457 114.37 58.7671 115.797 57.5707 115.449Z" fill="white"/>
<path d="M95.4553 89.1082C95.8388 90.0642 95.9335 90.6952 94.7499 91.0165C88.6122 93.832 82.6694 97.0259 76.699 100.169C72.2033 102.685 67.617 105.166 63.3901 108.108C61.6538 109.261 60.0803 110.619 58.4628 111.927C57.9125 112.234 57.3027 113.16 56.6304 112.817C56.2886 112.691 56.1902 112.266 56.0302 111.991C55.5909 111.111 55.1666 110.186 54.7536 109.313C53.5215 106.807 51.9597 104.486 50.5177 102.099C47.9672 97.905 44.5319 94.3315 41.7847 90.2676C37.8098 85.0858 33.6378 79.8499 28.3615 75.9297C26.2521 74.4562 23.6545 74.0019 21.4209 72.7978C15.8205 68.6615 27.0794 63.7722 30.4436 63.0526C36.4195 61.2668 42.6999 60.9671 48.8979 61.2862C55.0098 61.4851 61.0808 62.6169 66.8078 64.7675C71.1589 66.1208 75.0271 68.5585 78.7581 71.1141C83.3454 74.0955 87.4113 77.8764 91.0162 81.9634C92.8767 84.0792 94.4665 86.4613 95.4553 89.1082Z" fill="#77966D"/>
<path d="M47.0366 67.249C49.0544 66.0001 50.1455 63.6438 50.0662 61.3468C49.748 61.33 49.4302 61.3088 49.1115 61.2975C49.2402 63.1624 48.4274 65.0306 46.7569 66.2604C45.9558 64.2405 43.4444 63.619 42.472 65.8338C42.0331 66.9439 42.9552 68.0345 44.0813 68.1037C44.7518 68.1783 45.4268 68.021 46.047 67.7728C46.3593 70.7502 44.1819 73.257 41.7403 74.6631C41.5213 73.6005 40.6328 72.6947 39.5774 72.4406C38.6254 72.31 37.5782 72.8054 37.085 73.6294C35.9304 76.0232 38.979 77.0538 40.8168 76.2519C40.4442 79.1302 38.1762 81.426 35.5876 82.6549C35.7563 82.8425 35.9222 83.0328 36.089 83.2222C39.1395 81.9204 41.7444 78.9924 41.8745 75.7778C44.9816 74.1519 47.6377 70.9296 47.0366 67.249ZM44.4059 67.169C41.777 66.994 44.6579 63.656 45.8443 66.8051C45.3946 67.0171 44.9055 67.159 44.4059 67.169ZM39.3145 75.4948C38.7469 75.4514 37.959 75.2824 37.8575 74.6197C37.8398 73.8418 38.7596 73.3433 39.4582 73.4563C40.1899 73.7166 40.7026 74.3874 40.8055 75.149C40.335 75.3538 39.8318 75.4993 39.3145 75.4948ZM89.241 80.0257C87.492 81.2705 85.2508 81.8427 83.1133 81.6321C83.3876 79.9149 82.0466 76.9231 79.935 77.8434C78.9154 78.3551 78.8774 79.7576 79.5093 80.5911C80.1122 81.4621 81.0674 82.0312 82.0802 82.3037C81.0642 84.7721 77.7467 86.2429 75.1804 86.1082C75.2131 84.7662 74.9148 83.3284 74.0435 82.2721C73.0606 81.1331 71.2278 81.2049 70.337 82.4172C68.5831 84.8028 72.0669 86.7216 74.1337 86.873C73.7184 88.7524 72.3421 90.3358 70.6394 91.1995C69.5636 91.7483 68.38 92.0886 67.1746 92.1826C67.1999 90.8167 67.0476 89.1556 65.8794 88.2629C64.6567 87.3634 62.9826 88.1504 62.2908 89.345C61.6679 90.3294 62.2142 91.6158 63.1326 92.2071C64.0284 92.81 65.1314 93.0573 66.1981 93.1151C65.5475 96.5806 61.0532 98.851 57.7733 98.9437C57.9506 97.7422 57.8404 96.2886 56.9328 95.3923C56.057 94.4878 54.2876 94.19 53.4871 95.3344C52.8674 96.3062 53.2432 97.6301 53.9776 98.4365C54.6984 99.2131 55.7424 99.6185 56.776 99.7654C56.1168 102.029 54.2772 103.727 52.2236 104.86C52.3755 105.106 52.5264 105.351 52.6765 105.598C54.9595 104.33 56.9723 102.381 57.5988 99.8309C61.4553 99.854 66.4497 97.2139 67.0739 93.1228C70.7155 93.0125 74.3748 90.6766 75.0671 86.948C78.1461 87.1419 81.7791 85.4741 82.8871 82.461C85.2952 82.7716 87.9109 82.1546 89.8675 80.6937C89.6599 80.4686 89.4504 80.2471 89.241 80.0257ZM56.9668 98.9057C56.1114 98.8085 55.2143 98.5161 54.6018 97.886C54.0954 97.3287 53.7251 96.3939 54.1748 95.7064C54.8135 94.9869 55.965 95.4267 56.509 96.0536C57.1024 96.8491 57.1409 97.9606 56.9668 98.9057ZM66.3123 92.2012C66.1496 92.1944 65.9873 92.1863 65.8245 92.1714C58.7797 91.3338 66.6496 84.7319 66.3123 92.2012ZM71.0941 84.6455C69.2245 82.5835 74.2565 80.0478 74.2593 86.0454C73.0919 85.9224 71.925 85.4962 71.0941 84.6455ZM82.3308 81.5005C81.3666 81.2723 80.3829 80.7059 79.9681 79.7712C79.7645 79.3088 79.8593 78.6629 80.372 78.4536C81.7433 78.0599 82.5208 80.4578 82.3308 81.5005ZM59.1787 77.9853C62.5587 77.4334 66.4787 74.7942 65.864 70.9414C68.127 70.2032 70.2255 68.6976 71.4477 66.6632C71.1594 66.519 70.8656 66.3852 70.5732 66.2487C70.3905 66.557 70.1888 66.8526 69.9576 67.1251C68.7943 68.4373 67.2847 69.4186 65.6251 70.0053C65.2193 68.9431 64.5702 67.8113 63.474 67.3529C62.4889 66.9136 61.1661 67.4614 60.8057 68.4807C60.3306 69.7779 61.5138 70.9391 62.7174 71.1985C63.4586 71.3766 64.2324 71.3247 64.9732 71.1746C65.4052 74.4177 61.9005 76.5086 59.1107 77.0266C58.9466 75.9323 58.6283 74.744 57.7044 74.043C56.8553 73.3582 55.4396 73.2999 54.7582 74.2459C54.2636 74.8959 54.2559 75.8492 54.6426 76.552C55.3734 77.777 56.9401 78.1932 58.2915 78.0911C58.3123 81.5679 55.0642 84.1398 51.8764 84.797C51.9344 84.0932 51.8342 83.3686 51.5672 82.7123C50.9987 81.171 49.1944 80.3615 47.8911 81.6619C47.1168 82.3562 47.0706 83.5413 47.5656 84.411C48.198 85.5003 49.5462 85.9378 50.7521 85.894C50.0023 88.954 46.7464 92.0565 43.4353 92.5551C43.5672 92.73 43.6969 92.9063 43.8302 93.0803C45.313 92.8828 46.736 92.3029 47.917 91.3686C49.7643 90.0049 51.2077 88.0771 51.7073 85.8162C55.532 85.2747 59.306 82.061 59.1787 77.9853ZM64.6731 70.2557C64.533 70.2846 64.3934 70.3049 64.2519 70.3266C63.4241 70.4252 62.493 70.323 61.8982 69.6803C61.1987 68.9395 62.1194 67.9026 62.9885 68.1661C63.8856 68.4816 64.3707 69.4217 64.7252 70.2444C64.7075 70.2484 64.6903 70.2521 64.6731 70.2557ZM55.5384 74.7608C56.0235 74.1578 56.9455 74.4588 57.3966 74.9538C57.942 75.5463 58.1111 76.369 58.2294 77.1405C56.8979 77.3381 54.5569 76.3984 55.5384 74.7608ZM50.9425 84.8978C50.1251 84.9669 49.2257 84.8033 48.6282 84.2048C48.1314 83.6787 48.0298 82.7526 48.6169 82.254C50.1746 81.0056 51.2122 83.6389 50.9425 84.8978Z" fill="white"/>
<path d="M29.5342 65.6674C30.0755 67.1672 30.2201 68.7862 30.1467 70.3719C30.0991 71.8951 29.5052 73.3537 28.6325 74.5904C26.2394 77.9058 21.575 79.6813 17.5599 79.1488C15.1663 78.7813 12.4784 76.929 11.5777 74.6491C10.2616 71.2166 11.278 67.0976 13.6045 64.3304C15.5847 62.0759 18.4121 60.6466 21.4037 60.3705C22.9128 60.1955 24.5439 60.1842 25.9365 60.8649C27.7512 61.8584 28.8306 63.7916 29.5342 65.6674Z" fill="white"/>
<path d="M91.2459 166.824C91.7573 167.602 90.8298 168.269 90.2604 168.676C89.4679 169.207 88.705 169.741 87.894 170.233C84.0121 172.367 79.5807 173.398 75.1821 173.718C72.7585 173.884 70.321 173.995 67.9038 173.686C64.1538 173.345 60.7887 172.039 57.7496 169.833C54.3387 167.397 50.9668 164.146 49.4218 160.187C48.1017 156.779 47.6969 152.615 49.7088 149.394C50.9627 147.399 53.3346 145.727 55.7495 145.713C59.0053 145.912 62.1487 149.747 64.2395 151.994C65.6775 153.521 67.1649 154.961 68.8952 156.139C72.6085 158.592 77.4143 159.028 81.706 158.204C83.2999 157.883 84.8526 157.38 86.4048 156.903C87.0816 156.72 87.913 156.327 88.3169 157.166C88.6982 157.35 88.6597 157.851 88.7413 158.206C88.8115 158.635 88.9026 159.061 88.9788 159.432C89.6044 161.93 90.468 164.367 91.2459 166.824Z" fill="#77966D"/>
<path d="M100.925 154.517C99.1313 153.543 95.9684 156.33 94.3604 157.166C94.5513 156.408 94.7426 155.603 94.5721 154.823C94.4461 154.12 93.9193 153.555 93.1754 153.875C92.7125 154.046 92.3617 154.415 92.0425 154.776C91.4269 155.499 90.8444 156.253 90.114 156.867C89.6521 157.226 89.2069 157.668 88.7019 157.978C88.7128 158.057 88.7241 158.134 88.7404 158.205C88.8107 158.634 88.9018 159.061 88.978 159.431C89.604 161.929 90.4676 164.366 91.2456 166.823C91.2537 166.835 91.2587 166.848 91.2664 166.861C91.508 166.881 91.7615 166.847 91.9967 166.823C92.4637 166.769 92.9306 166.724 93.3953 166.645C96.8043 166.1 100.328 164.084 101.476 160.675C102.07 159.166 102.536 155.494 100.925 154.517Z" fill="#FDC5AE"/>
<mask id="mask0_16_1418" style="mask-type:luminance" maskUnits="userSpaceOnUse" x="0" y="0" width="340" height="226">
<path d="M340 0H0V226H340V0Z" fill="white"/>
</mask>
<g mask="url(#mask0_16_1418)">
<path d="M358.456 208.058C360.257 212.237 359.775 216.901 359.207 221.292C359.04 222.685 358.866 224.078 358.727 225.474C358.558 227.075 358.651 228.587 357.093 229.546C355.28 230.719 353.072 231.044 350.983 231.424C347.514 231.962 344.012 232.248 340.516 232.563C319.882 234.436 299.141 234.451 278.468 235.761C257.482 236.625 236.692 238.47 215.788 239.614C187.005 241.212 158.18 241.691 129.364 242.246C108.718 242.639 88.0664 243.109 67.4157 242.868C54.5623 242.774 41.7339 242 28.925 240.987C21.027 240.452 13.1104 240.45 5.20565 240.803C-1.49961 241.023 -8.23433 241.239 -14.921 240.582C-19.1139 240.153 -21.6362 239.63 -23.6363 234.898C-25.5213 230.28 -25.0444 225.169 -25.2139 220.289C-25.2343 218.895 -25.2688 217.5 -25.238 216.106C-25.3558 213.476 -23.2859 212.379 -20.9585 212.03C-17.8182 211.633 -14.6499 211.674 -11.4915 211.534C-4.96398 210.964 1.75215 210.542 8.26429 210.203C11.6888 209.96 15.1087 209.613 18.5364 209.403C23.5144 209.152 28.5056 209.153 33.4887 209.208C40.7878 209.378 48.0751 208.97 55.3661 208.705C66.5512 208.483 77.7394 208.433 88.925 208.158C102.325 207.946 115.728 208.145 129.128 208.01C137.078 207.915 145.022 207.595 152.961 207.159C164.49 206.589 176.035 206.478 187.565 205.917C193.418 205.646 199.268 205.237 205.13 205.177C210.943 205.123 216.759 205.222 222.574 205.143C241.466 204.72 260.363 204.277 279.243 203.478C290.227 202.892 301.216 202.57 312.216 202.465C319.382 202.21 326.554 202.277 333.721 202.518C340.588 202.692 347.479 202.699 354.305 203.564C355.19 203.639 356.12 203.95 356.633 204.725C357.361 205.76 357.926 206.911 358.456 208.058Z" fill="#673632"/>
</g>
<mask id="mask1_16_1418" style="mask-type:luminance" maskUnits="userSpaceOnUse" x="0" y="0" width="340" height="226">
<path d="M340 0H0V226H340V0Z" fill="white"/>
</mask>
<g mask="url(#mask1_16_1418)">
<path d="M73.5859 34.8849C66.5724 32.3709 61.2448 43.402 68.8939 46.1845C71.6343 46.7906 74.9201 45.4654 76.3952 43.053C78.1206 40.261 76.6074 36.0814 73.5859 34.8849ZM60.6845 45.186C60.1405 45.2606 59.6677 45.6154 59.1599 45.8161C58.4536 46.2274 56.7695 46.4977 57.3171 47.6368C57.5352 48.0101 58.032 48.1353 58.3997 47.9193C59.1686 47.4587 59.8558 46.8602 60.5041 46.2446C60.6859 46.0471 60.9198 45.8672 61.0027 45.6032C61.0603 45.3899 60.8998 45.1946 60.6845 45.186ZM65.0415 49.7887C64.7804 49.9379 64.6571 50.2353 64.5106 50.4839C64.2622 50.9472 64.0179 51.4119 63.769 51.8752C63.4684 52.3914 63.0278 53.2624 63.7803 53.6036C64.8139 53.9503 65.0243 52.4081 65.3557 51.7486C65.5347 51.1872 65.9015 50.5205 65.6272 49.942C65.4939 49.7444 65.2555 49.6712 65.0415 49.7887ZM74.7637 52.2666C74.498 51.8372 74.2881 51.2699 73.8022 51.0476C73.2364 50.9007 73.3348 51.6442 73.3837 51.9891C73.4907 52.7972 73.595 53.6176 73.8838 54.3847C74.285 55.309 75.6803 54.8231 75.431 53.8491C75.2936 53.2935 75.0357 52.7679 74.7637 52.2666ZM84.2683 47.7498C83.7818 47.2254 83.0842 46.9854 82.4237 46.7558C81.9821 46.6071 81.5342 46.4394 81.0614 46.4489C80.9127 46.4503 80.778 46.4891 80.6928 46.6189C80.5369 46.9118 80.8968 47.1328 81.0668 47.3226C81.7931 47.9509 82.4604 48.7166 83.3734 49.0737C84.1921 49.4036 84.8902 48.3862 84.2683 47.7498Z" fill="#FDC5AE"/>
<path d="M75.5848 22.1661C74.1631 21.7159 72.6585 21.6296 71.1684 21.7747C71.1829 21.098 71.1008 20.3631 71.1358 20.0128C71.1303 18.184 71.0682 16.3552 71.0646 14.5255C71.0977 10.8385 71.0084 7.14751 71.2468 3.46552C71.5143 0.224675 71.6979 -3.11154 71.7264 -6.38402C71.7373 -7.03806 71.7346 -7.6921 71.7255 -8.34615C71.7536 -8.8881 71.6943 -9.65831 70.9893 -9.6687C70.6575 -9.6687 70.3188 -9.40609 70.2921 -9.06212C70.2867 -6.935 70.2001 -4.81015 70.1103 -2.68394C70.0287 0.485479 69.6769 3.51704 69.6674 6.74523C69.6484 9.57249 69.7263 12.3997 69.7399 15.2275C69.7708 17.0427 69.8206 18.8597 69.7739 20.6759C69.7971 20.9927 69.7495 21.4994 69.7717 21.9781C68.9684 22.1327 68.1773 22.3401 67.4175 22.5964C63.2024 23.9822 60.1936 27.9241 59.4665 32.2263C59.2049 33.4259 59.1315 34.6503 59.0603 35.873C59.0172 36.8218 58.9633 37.8112 59.2516 38.7292C59.593 39.8022 60.8705 39.8343 61.8102 39.9392C63.0025 40.0328 64.2038 40.0219 65.3997 40.0382C69.1107 40.186 72.8049 39.7697 76.5096 39.7127C77.8224 39.7082 79.1371 39.8163 80.4486 39.729C81.5388 39.6725 82.6586 39.5604 82.63 38.1967C83.1205 32.4365 81.7197 24.4116 75.5848 22.1661ZM60.2807 38.5195C59.9158 36.9393 60.2195 35.2841 60.3342 33.6867C60.535 31.2536 61.6543 28.9393 63.2378 27.0974C64.7823 25.2836 66.9578 24.1418 69.2766 23.6604C69.3483 23.6473 69.4208 23.636 69.4924 23.6234C68.0476 25.0774 66.9288 26.8425 66.0598 28.6885C64.8263 31.5306 64.3548 34.682 64.7084 37.7588C64.7388 38.0422 64.7655 38.3283 64.805 38.6117C64.6798 38.6103 64.5547 38.6139 64.4296 38.6117C63.0501 38.5746 61.6484 38.6795 60.2807 38.5195ZM65.5339 38.6108C65.5425 38.124 65.5158 37.6259 65.543 37.4582C65.5557 36.6753 65.5693 35.8938 65.616 35.1127C65.7474 33.3179 66.0974 31.5306 66.679 29.8252C67.5336 27.5603 68.9684 25.3839 70.6679 23.6238C71.187 25.411 71.1561 27.2027 71.2591 29.0754C71.3162 30.6212 71.381 32.1662 71.4068 33.712C71.425 34.8388 71.4554 35.9643 71.4381 37.0911C71.4322 37.4749 71.4091 37.86 71.4295 38.2438C71.4291 38.3215 71.4522 38.3897 71.4844 38.4517C69.5028 38.5565 67.5195 38.6157 65.5339 38.6108ZM75.6695 38.1805C74.5589 38.2663 73.4478 38.3405 72.3362 38.406C72.348 38.3739 72.3611 38.3418 72.3679 38.307C72.4894 37.6263 72.4554 36.9289 72.4731 36.24C72.4822 34.7159 72.4826 33.1904 72.4264 31.6671C72.2659 28.9524 72.3697 26.1622 71.6072 23.5293C71.5891 23.476 71.5673 23.4204 71.5438 23.3648C71.5986 23.3612 71.6535 23.3589 71.7083 23.3567C71.8139 23.4606 71.9137 23.5732 72.0152 23.6699C74.3948 26.5211 75.9452 30.0395 76.33 33.7694C76.4574 34.9844 76.5535 36.2093 76.4819 37.4311C76.4611 37.6584 76.4135 37.9228 76.4243 38.1597C76.1723 38.1601 75.9207 38.166 75.6695 38.1805ZM81.2043 38.1556C80.0238 38.3111 78.8352 38.2329 77.6465 38.1854C77.6919 37.9956 77.7104 37.7908 77.7249 37.6155C77.8541 36.495 77.8483 35.3618 77.7653 34.2372C77.5527 30.9548 76.5168 27.6855 74.4487 25.0892C73.9632 24.4745 73.4382 23.8539 72.8231 23.3558C73.4804 23.3933 74.1309 23.4986 74.7615 23.7083C80.0283 25.5611 81.3906 33.2519 81.2043 38.1556Z" fill="white"/>
</g>
<mask id="mask2_16_1418" style="mask-type:luminance" maskUnits="userSpaceOnUse" x="0" y="0" width="340" height="226">
<path d="M340 0H0V226H340V0Z" fill="white"/>
</mask>
<g mask="url(#mask2_16_1418)">
<path d="M271.869 34.8849C264.856 32.3709 259.528 43.402 267.177 46.1845C269.918 46.7906 273.203 45.4654 274.679 43.053C276.404 40.261 274.89 36.0814 271.869 34.8849ZM258.968 45.186C258.424 45.2606 257.951 45.6154 257.443 45.8161C256.738 46.2274 255.053 46.4977 255.601 47.6368C255.819 48.0101 256.316 48.1353 256.683 47.9193C257.452 47.4587 258.139 46.8602 258.787 46.2446C258.969 46.0471 259.203 45.8672 259.286 45.6032C259.343 45.3899 259.183 45.1946 258.968 45.186ZM263.324 49.7887C263.063 49.9379 262.94 50.2353 262.794 50.4839C262.545 50.9472 262.301 51.4119 262.052 51.8752C261.751 52.3914 261.311 53.2624 262.063 53.6036C263.097 53.9503 263.307 52.4081 263.639 51.7486C263.818 51.1872 264.184 50.5205 263.91 49.942C263.777 49.7444 263.538 49.6712 263.324 49.7887ZM273.047 52.2666C272.781 51.8372 272.571 51.2699 272.085 51.0476C271.519 50.9007 271.618 51.6442 271.667 51.9891C271.774 52.7972 271.878 53.6176 272.167 54.3847C272.568 55.309 273.963 54.8231 273.714 53.8491C273.577 53.2935 273.319 52.7679 273.047 52.2666ZM282.551 47.7498C282.065 47.2254 281.367 46.9854 280.707 46.7558C280.265 46.6071 279.817 46.4394 279.344 46.4489C279.196 46.4503 279.061 46.4891 278.976 46.6189C278.82 46.9118 279.18 47.1328 279.35 47.3226C280.076 47.9509 280.743 48.7166 281.656 49.0737C282.476 49.4036 283.173 48.3862 282.551 47.7498Z" fill="#FDC5AE"/>
<path d="M273.868 22.1661C272.446 21.7159 270.941 21.6296 269.451 21.7747C269.466 21.098 269.384 20.3631 269.419 20.0128C269.413 18.184 269.351 16.3552 269.348 14.5255C269.381 10.8385 269.291 7.14751 269.53 3.46552C269.797 0.224675 269.981 -3.11154 270.009 -6.38402C270.02 -7.03806 270.017 -7.6921 270.008 -8.34615C270.036 -8.8881 269.977 -9.65831 269.272 -9.6687C268.94 -9.6687 268.601 -9.40609 268.575 -9.06212C268.569 -6.935 268.483 -4.81015 268.393 -2.68394C268.311 0.485479 267.959 3.51704 267.95 6.74523C267.931 9.57249 268.009 12.3997 268.022 15.2275C268.053 17.0427 268.103 18.8597 268.056 20.6759C268.08 20.9927 268.032 21.4994 268.054 21.9781C267.251 22.1327 266.46 22.3401 265.7 22.5964C261.485 23.9822 258.476 27.9241 257.749 32.2263C257.487 33.4259 257.414 34.6503 257.343 35.873C257.3 36.8218 257.246 37.8112 257.534 38.7292C257.875 39.8022 259.153 39.8343 260.093 39.9392C261.285 40.0328 262.486 40.0219 263.682 40.0382C267.393 40.186 271.087 39.7697 274.793 39.7127C276.105 39.7082 277.42 39.8163 278.732 39.729C279.822 39.6725 280.942 39.5604 280.913 38.1967C281.403 32.4365 280.003 24.4116 273.868 22.1661ZM258.564 38.5195C258.199 36.9393 258.502 35.2841 258.617 33.6867C258.818 31.2536 259.937 28.9393 261.521 27.0974C263.065 25.2836 265.241 24.1418 267.56 23.6604C267.631 23.6473 267.704 23.636 267.775 23.6234C266.331 25.0774 265.212 26.8425 264.343 28.6885C263.109 31.5306 262.638 34.682 262.991 37.7588C263.022 38.0422 263.048 38.3283 263.088 38.6117C262.963 38.6103 262.838 38.6139 262.713 38.6117C261.334 38.5746 259.932 38.6795 258.564 38.5195ZM263.817 38.6108C263.825 38.124 263.799 37.6259 263.826 37.4582C263.839 36.6753 263.853 35.8938 263.899 35.1127C264.03 33.3179 264.38 31.5306 264.962 29.8252C265.817 27.5603 267.251 25.3839 268.951 23.6238C269.47 25.411 269.439 27.2027 269.542 29.0754C269.599 30.6212 269.664 32.1662 269.69 33.712C269.708 34.8388 269.738 35.9643 269.721 37.0911C269.715 37.4749 269.692 37.86 269.712 38.2438C269.712 38.3215 269.735 38.3897 269.767 38.4517C267.786 38.5565 265.802 38.6157 263.817 38.6108ZM273.952 38.1805C272.842 38.2663 271.731 38.3405 270.619 38.406C270.631 38.3739 270.644 38.3418 270.651 38.307C270.772 37.6263 270.738 36.9289 270.756 36.24C270.765 34.7159 270.766 33.1904 270.709 31.6671C270.549 28.9524 270.653 26.1622 269.89 23.5293C269.872 23.476 269.85 23.4204 269.827 23.3648C269.882 23.3612 269.936 23.3589 269.991 23.3567C270.097 23.4606 270.197 23.5732 270.298 23.6699C272.678 26.5211 274.228 30.0395 274.613 33.7694C274.74 34.9844 274.836 36.2093 274.765 37.4311C274.744 37.6584 274.696 37.9228 274.707 38.1597C274.456 38.1601 274.204 38.166 273.952 38.1805ZM279.488 38.1556C278.307 38.3111 277.119 38.2329 275.93 38.1854C275.975 37.9956 275.994 37.7908 276.008 37.6155C276.138 36.495 276.132 35.3618 276.049 34.2372C275.836 30.9548 274.801 27.6855 272.733 25.0892C272.247 24.4745 271.722 23.8539 271.107 23.3558C271.764 23.3933 272.415 23.4986 273.046 23.7083C278.311 25.5611 279.674 33.2519 279.488 38.1556Z" fill="white"/>
</g>
<path d="M137.743 211.095C134.946 210.717 134.507 206.892 136.471 205.265C138.839 203.123 142.553 204.438 142.686 207.713C142.698 210.26 140.133 212.012 137.743 211.095Z" fill="white"/>
<path d="M210.635 209.701C210.197 209.09 209.648 208.512 209.631 207.708C209.565 206.293 210.456 204.945 211.772 204.424C214.088 203.154 216.744 205.457 215.972 207.914C215.52 209.635 211.927 211.252 210.635 209.701Z" fill="white"/>
<path d="M223.412 210.045C222.223 209.789 221.126 208.723 221.163 207.459C221.233 206.466 221.692 205.475 222.576 204.958C224.265 203.659 226.852 204.291 227.315 206.486C227.953 208.816 225.573 210.549 223.412 210.045Z" fill="#FDC5AE"/>
<path d="M124.654 175.093C125.7 176.725 125.131 178.879 123.7 180.078C125.708 184.259 124.097 188.301 120.076 190.443C116.304 192.436 111.903 192.914 107.689 192.877C104.882 192.851 101.762 192.02 99.7369 190.039C98.984 189.464 98.3362 188.764 97.8706 187.957C97.7541 187.725 97.6566 187.486 97.575 187.242C97.2504 186.534 97.172 185.732 97.1307 184.961C96.9149 181.677 98.614 178.556 101.174 176.57C102.598 175.565 104.223 174.626 106.016 174.616C106.269 173.133 106.925 171.608 108.114 170.638C110.447 168.807 113.646 169.716 113.955 172.844C115.824 173.015 117.715 173.443 119.272 174.537C120.989 173.541 123.432 173.179 124.654 175.093Z" fill="#FDC5AE"/>
<path d="M109.909 172.292C109.295 172.404 108.837 172.917 108.636 173.485C108.544 173.9 108.213 174.669 108.912 174.684C109.448 174.709 109.962 174.557 110.485 174.446C110.75 174.366 111.13 174.325 111.22 174.017C111.259 173.268 110.804 172.211 109.909 172.292ZM122.09 176.126C121.438 175.653 120.402 176.148 120.044 176.779C119.813 177.345 120.867 178.677 121.436 178.731C121.776 178.771 121.941 178.424 122.118 178.197C122.617 177.617 122.803 176.619 122.09 176.126Z" fill="#77966D"/>
<path d="M108.815 178.678C109.008 178.678 109.168 178.518 109.168 178.327C109.168 178.135 109.008 177.975 108.815 177.975C108.623 177.975 108.463 178.135 108.463 178.327C108.463 178.518 108.623 178.678 108.815 178.678ZM113.612 179.624C113.419 179.624 113.259 179.785 113.259 179.976C113.259 180.168 113.419 180.329 113.612 180.329C113.804 180.329 113.965 180.168 113.965 179.976C113.965 179.785 113.804 179.624 113.612 179.624ZM109.376 180.782C107.305 179.802 103.202 179.926 102.615 182.652C102.444 183.815 103.022 184.964 103.817 185.782C104.68 186.621 105.854 187.072 107.035 187.273C108.716 187.443 111.163 187.254 112.078 185.62C112.973 183.595 111.226 181.489 109.376 180.782Z" fill="#673632"/>
<path d="M133.815 197.805C133.445 196.836 132.986 195.904 132.615 194.935C131.907 193.199 131.107 191.504 130.33 189.799C129.811 188.653 129.295 187.501 128.619 186.436C128.121 185.64 127.688 184.779 127.042 184.089C127.039 184.085 127.034 184.082 127.031 184.078C126.975 183.65 126.621 183.344 126.211 183.253C123.09 182.604 119.86 182.911 116.692 182.911C111.089 182.916 105.49 183.164 99.8888 183.258C97.0999 183.3 94.311 183.329 91.5257 183.48C90.6217 183.522 89.721 183.565 88.8179 183.625C88.1796 183.732 87.3523 183.505 86.8781 184.052C86.7494 184.224 86.6886 184.422 86.6501 184.626C86.5118 184.78 86.4012 184.97 86.2661 185.118C84.4614 187.362 82.7995 189.714 81.1738 192.089C80.1946 193.558 79.2422 195.192 78.2766 196.702C77.4887 197.716 77.7013 198.428 78.8033 199.037C79.3383 199.29 79.7281 198.828 79.9439 198.389C80.2848 197.845 80.6203 197.297 80.9635 196.754C82.1707 194.81 83.489 192.934 84.6214 190.944C85.228 189.875 85.9003 188.851 86.5984 187.84C86.2956 191.506 85.9125 195.166 85.9551 198.85C86.0449 203.642 85.7298 208.455 86.087 213.235C86.1636 214.267 87.0508 214.225 87.8419 214.292C88.7594 214.357 89.6919 214.389 90.6204 214.411C94.4075 214.467 98.1942 214.281 101.982 214.309C105.825 214.323 109.667 214.287 113.509 214.185C115.853 214.121 118.197 214.068 120.541 214.07C121.466 214.074 122.388 214.053 123.311 214.002C123.803 213.94 124.349 214.041 124.807 213.828C125.617 213.36 125.359 211.572 125.489 210.708C125.664 207.715 125.897 204.719 126.041 201.72C126.224 198.418 126.402 195.115 126.766 191.826C126.897 190.084 127.049 188.343 127.111 186.598C128.289 189.242 129.235 191.982 130.429 194.62C130.877 195.712 131.31 196.809 131.864 197.852C132.16 198.375 132.286 199.199 133.004 199.276C133.85 199.342 134.173 198.48 133.815 197.805Z" fill="#F4EDE4"/>
<path d="M63.2058 174.892C62.6572 173.825 61.3516 173.529 60.2677 173.305C58.0985 172.959 55.8872 173.018 53.7021 172.839C51.9191 172.735 50.1321 172.777 48.3532 172.911C46.8151 173.04 45.2461 173.068 43.7474 173.465C43.328 173.149 42.7514 173.608 42.945 174.091C43.1113 174.624 43.4627 175.082 43.7292 175.569C44.6359 177.046 45.5212 178.538 46.4873 179.977C46.8033 180.432 47.1392 180.947 47.6759 181.16C48.2254 181.378 48.8156 181.221 49.3678 181.092C51.0936 180.655 52.7991 180.135 54.5294 179.706C56.2308 179.252 57.9412 178.831 59.6435 178.38C60.5298 178.127 61.4523 177.898 62.2334 177.394C63.0784 176.895 63.6913 175.842 63.2058 174.892ZM39.1623 178.399C38.899 177.739 38.612 177.088 38.2965 176.45C38.0612 176.046 37.9207 175.421 37.3939 175.319C36.9519 175.254 36.4899 175.838 36.6142 176.249C35.7125 177.184 35.1195 178.352 34.4386 179.451C32.8352 182.049 31.5577 184.835 30.5921 187.729C30.3255 188.716 29.3295 191.003 30.3754 191.709C31.6551 192.439 34.3398 189.308 35.3222 188.483C36.9555 186.96 38.4724 185.322 40.0803 183.774C40.987 183.126 40.565 182.125 40.2857 181.255C39.9502 180.289 39.5309 179.354 39.1623 178.399Z" fill="white"/>
<path d="M54.4106 187.884C54.5666 188.134 54.7134 188.418 54.6246 188.719C54.5194 189.117 54.1223 189.297 53.77 189.434C53.3217 189.619 52.8788 189.817 52.4332 190.008C51.1035 190.582 49.7599 191.118 48.3903 191.588C47.4959 191.902 46.592 192.197 45.7229 192.576C45.3027 192.759 44.8861 192.951 44.4627 193.126C44.0909 193.271 43.6757 193.465 43.2799 193.301C42.7812 193.06 42.5514 192.479 42.2935 192.022C42.0609 191.575 41.8465 191.12 41.589 190.688C41.5196 190.571 41.5001 190.436 41.5237 190.31C39.9216 186.445 38.0983 182.67 36.5642 178.78C35.8185 176.479 34.9082 174.172 34.8951 171.72C34.8715 170.44 35.1752 169.041 36.1059 168.106C37.4414 166.859 39.3423 166.737 40.8782 167.698C42.5899 168.615 43.7695 170.197 44.9119 171.715C46.1214 173.268 47.2031 174.911 48.1573 176.631C49.6429 179.13 51.0033 181.699 52.3561 184.272C52.8004 185.111 53.27 185.937 53.7392 186.762C53.9541 187.142 54.1898 187.508 54.4106 187.884Z" fill="#673632"/>
<path d="M43.5192 170.572C43.6017 170.47 43.6915 170.366 43.7822 170.261C42.9553 169.252 42.0405 168.321 40.8777 167.698C39.3418 166.737 37.4409 166.86 36.1054 168.107C35.1747 169.041 34.871 170.44 34.8946 171.721C34.8987 172.499 34.9997 173.262 35.1512 174.016C35.3107 174.024 35.4499 174.03 35.5247 174.041C37.0329 174.093 38.5267 173.741 39.9388 173.194C41.3251 172.625 42.5101 171.665 43.5192 170.572ZM47.4768 187.537C46.9723 186.488 46.4732 185.437 45.9636 184.389C45.1744 182.672 44.2432 181.021 43.3143 179.373C42.5722 178.137 42.0205 176.799 41.2576 175.575C41.1256 175.385 41.0477 175.116 40.8405 174.993C40.5798 174.911 40.5472 175.226 40.6193 175.399C41.4869 177.797 42.7658 180.028 43.9445 182.284C44.8847 184.103 45.7261 186.101 46.6436 187.953C46.931 188.45 47.7008 188.054 47.4768 187.537Z" fill="#FDC5AE"/>
<path d="M77.2139 203.069C77.3118 203.326 77.3231 203.601 77.2139 203.858C76.8966 204.665 75.6667 204.673 75.3389 203.858C74.1262 200.753 73.1307 197.653 72.0808 194.521C71.6574 193.211 71.1914 191.921 70.7503 190.621C70.6922 193.58 70.4601 196.531 70.2108 199.48C69.9474 202.319 69.8409 205.173 69.4619 207.999C69.184 210.074 68.7026 212.134 68.7162 214.237C68.5375 215.268 67.5085 215.513 66.6018 215.642C64.6162 215.966 62.5907 215.951 60.587 216.097C54.9303 216.492 49.2564 216.297 43.5906 216.335C40.7056 216.279 37.8201 216.212 34.9351 216.183C32.4744 216.074 29.9344 216.28 27.5286 215.701C26.3512 215.297 26.563 213.816 26.4623 212.819C26.3902 210.699 26.4106 208.579 26.4115 206.458C26.4374 202.829 26.5004 199.172 26.7606 195.555C26.859 194.086 26.9546 192.617 27.0684 191.149C27.1532 190.463 27.15 189.579 27.3826 188.855C27.0594 188.726 26.7466 188.569 26.4351 188.42C24.1068 187.307 21.9167 185.945 19.7416 184.566C17.8898 183.364 15.988 182.245 14.1194 181.07C13.4915 180.649 12.7871 180.305 12.2453 179.775C11.3106 178.809 12.3496 177.256 13.6058 177.761C14.3393 178.114 14.9993 178.609 15.6975 179.028C19.5689 181.383 23.2514 184.027 27.0158 186.544C27.3722 186.846 28.0064 187.213 28.4524 187.64C28.4946 187.625 28.5381 187.611 28.5826 187.598C38.5246 185.29 48.808 185.397 58.9455 184.893C61.8078 184.882 64.6733 184.837 67.5334 184.98C69.9628 185.148 70.6478 185.551 70.777 187.041C72.6393 190.582 73.9118 194.384 75.3303 198.114C75.6476 198.943 75.9468 199.78 76.2537 200.613C76.5566 201.437 76.9015 202.247 77.2139 203.069Z" fill="#FDC5AE"/>
<path d="M204.269 205.598C205.806 209.514 203.574 209.937 200.242 210.372C194.091 211.464 187.85 211.098 181.642 211.474C178.009 211.621 174.393 212.013 170.758 212.118C167.635 212.218 164.51 212.436 161.383 212.375C160.691 212.314 159.522 212.302 158.821 211.885C158.821 211.885 158.821 211.885 158.82 211.884C158.705 211.875 158.59 211.863 158.474 211.849C156.32 211.515 153.26 208.517 152.257 206.643C151.319 204.662 150.384 201.797 152.172 200.029C152.32 199.902 152.617 199.573 152.813 199.756C153.573 199.238 154.596 199.012 155.469 198.838C161.37 197.788 167.347 197.263 173.32 196.818C177.052 196.499 180.788 196.308 184.532 196.246C187.566 196.128 190.601 196.085 193.636 196.082C196.656 196.013 197.361 195.904 199.457 198.283C201.461 200.419 203.067 202.935 204.269 205.598Z" fill="#77966D"/>
<path d="M199.412 197.758C199.031 197.44 198.517 196.999 198.064 196.702C197.916 196.601 197.698 196.456 197.477 196.316C197.197 196.139 196.807 196.256 196.645 196.534C196.27 197.236 197.248 197.595 197.642 197.992C200.546 200.189 202.412 203.489 203.462 206.945C199.985 206.754 196.62 207.184 193.133 207.356C190.97 207.461 188.855 207.621 186.681 207.783C184.103 207.926 181.454 208.017 178.859 208.158C176.621 208.255 174.384 208.362 172.15 208.525C169.359 208.747 166.547 209.017 163.749 208.749C163.321 207.886 162.944 206.993 162.442 206.168C161.994 205.467 161.487 204.803 161.024 204.111C159.915 202.456 158.663 200.824 156.935 199.775C155.36 198.687 153.409 198.344 151.886 199.721C150.533 201.235 150.857 203.575 151.457 205.364C152.42 207.971 154.469 210.872 157.32 211.531C163.413 212.213 160.397 205.169 157.754 202.896C156.599 201.912 155.102 200.906 153.515 201.106C152.897 201.21 152.426 201.711 152.42 202.345C152.285 204.381 154.561 208.094 156.711 208.363C159.204 208.747 158.808 206.158 157.588 204.902C157.152 204.456 156.244 203.68 155.591 203.971C155.458 204.063 155.438 204.285 155.589 204.366C155.588 204.366 155.587 204.365 155.586 204.365C155.581 204.362 155.576 204.359 155.571 204.356C156.428 204.974 157.401 206.207 157.455 207.293C156.261 207.7 155.137 206.271 154.54 205.398C154.027 204.618 153.567 203.784 153.369 202.865C153.324 202.542 153.134 202.014 153.59 201.923C154.248 201.754 154.917 202.126 155.508 202.388C157.148 203.25 158.348 204.755 159.159 206.39C159.606 207.328 160.516 209.465 159.465 210.219C158.043 211.061 156.343 210.221 155.249 209.207C153.287 207.586 150.429 202.262 152.752 200.142C154.282 199.07 156.084 200.256 157.284 201.295C158.58 202.441 159.446 203.823 160.391 205.285C160.721 205.769 161.076 206.235 161.409 206.717C162.04 207.585 162.384 208.629 163.013 209.492C163.237 209.74 163.614 209.778 163.929 209.812C164.466 209.873 165.007 209.888 165.547 209.899C167.953 209.998 170.259 209.744 172.689 209.577C177.376 209.278 182.071 209.153 186.76 208.892C189.962 208.64 193.237 208.469 196.452 208.265C197.958 208.158 199.517 208.045 201.047 208.019C201.858 207.999 202.669 207.997 203.479 207.936C204.147 207.998 204.559 207.548 204.504 206.896C203.742 203.471 202.078 200.104 199.412 197.758Z" fill="#FDC5AE"/>
</g>
<defs>
<clipPath id="clip0_16_1418">
<rect width="340" height="226" fill="white"/>
</clipPath>
</defs>
</svg>
