<svg width="24" height="24" viewBox="0 0 24 24" fill="none" xmlns="http://www.w3.org/2000/svg">
<path d="M10.46 19.59C10.462 19.9069 10.3698 20.2172 10.1952 20.4816C10.0206 20.746 9.77141 20.9527 9.47923 21.0753C9.18705 21.198 8.86503 21.2311 8.55401 21.1705C8.24298 21.1099 7.95695 20.9583 7.73219 20.7349C7.50742 20.5115 7.35404 20.2265 7.29149 19.9158C7.22894 19.6052 7.26004 19.283 7.38084 18.99C7.50164 18.6971 7.7067 18.4466 7.97003 18.2704C8.23336 18.0941 8.5431 18 8.85998 18C9.28259 18 9.68805 18.1672 9.98783 18.4651C10.2876 18.763 10.4573 19.1674 10.46 19.59ZM17.05 18C16.7335 18 16.4242 18.0938 16.1611 18.2696C15.8979 18.4455 15.6929 18.6953 15.5718 18.9877C15.4507 19.2801 15.419 19.6018 15.4807 19.9121C15.5425 20.2225 15.6948 20.5076 15.9186 20.7314C16.1424 20.9551 16.4275 21.1075 16.7378 21.1693C17.0482 21.231 17.3699 21.1993 17.6623 21.0782C17.9546 20.9571 18.2045 20.752 18.3803 20.4889C18.5561 20.2258 18.65 19.9164 18.65 19.6C18.65 19.1757 18.4814 18.7687 18.1813 18.4686C17.8813 18.1686 17.4743 18 17.05 18ZM20.44 8.25L18.82 14.74C18.6554 15.3867 18.2798 15.9601 17.7528 16.3694C17.2258 16.7787 16.5773 17.0006 15.91 17H9.99998C9.33132 17 8.68182 16.7767 8.15461 16.3654C7.62739 15.9542 7.25268 15.3786 7.08998 14.73L4.68998 5H3.09998C2.83476 5 2.58041 4.89464 2.39287 4.7071C2.20533 4.51957 2.09998 4.26521 2.09998 4C2.09998 3.73478 2.20533 3.48043 2.39287 3.29289C2.58041 3.10535 2.83476 3 3.09998 3H5.46998C5.69841 2.99334 5.92223 3.06513 6.10418 3.20341C6.28613 3.34169 6.41523 3.53812 6.46998 3.76L7.24998 7H19.35H19.44C19.5327 6.98522 19.6272 6.98522 19.72 7C19.8496 7.03246 19.9715 7.0906 20.0783 7.17097C20.1851 7.25134 20.2748 7.35231 20.3419 7.46792C20.409 7.58352 20.4523 7.71141 20.4691 7.84402C20.486 7.97664 20.4761 8.11128 20.44 8.24V8.25ZM18.19 9H7.74998L9.05998 14.24C9.11225 14.4519 9.23242 14.6409 9.40214 14.7781C9.57187 14.9153 9.78182 14.9933 9.99998 15H15.88C16.1084 15.0067 16.3322 14.9349 16.5142 14.7966C16.6961 14.6583 16.8252 14.4619 16.88 14.24L18.19 9Z" fill="white"/>
</svg>
