<?xml version="1.0" encoding="utf-8"?>
<!-- Generator: Adobe Illustrator 27.5.0, SVG Export Plug-In . SVG Version: 6.00 Build 0)  -->
<svg version="1.1" xmlns="http://www.w3.org/2000/svg" xmlns:xlink="http://www.w3.org/1999/xlink" x="0px" y="0px"
	 viewBox="0 0 750 500" style="enable-background:new 0 0 750 500;" xml:space="preserve">
<g id="BACKGROUND">
	<rect style="fill:#A1CAC4;" width="750" height="500"/>
</g>
<g id="OBJECTS">
	<g>
		<g>
			<path style="fill:#F2F2F2;" d="M713.063,284.381c0.1,6.403-0.04,12.813-0.205,19.214c-0.591,20.466-4.095,40.699-5.968,61.062
				c-0.749,6.599-1.613,13.194-2.958,19.701c-0.861,3.85-1.652,7.886-3.8,11.259c-2.335,3.923-6.579,3.149-10.476,3.294
				c-50.477,0.482-100.892,3.374-151.344,4.856c-43.641,1.178-87.3,1.274-130.937,2.623c-66.388,2.237-132.781,3.925-199.2,4.811
				c-48.233,1.49-96.368,5.348-144.622,6.375c-5.23-0.007-10.471-0.198-15.646-0.999c-3.54-0.591-7.189-1.354-10.219-3.379
				c-3.781-2.358-4.702-7.017-4.726-11.187c-0.214-12.153,0.948-24.289,1.555-36.421c1.294-21.157,3.43-42.258,4.304-63.44
				c0.894-16.507,0.373-33.102,2.117-49.556c1.164-8.477,1.719-9.987,10.782-10.114c8.928-0.546,17.887-0.234,26.771,0.762
				c22.944,2.627,45.064,10.012,66.257,18.958c17.992,7.472,35.382,16.389,52.313,26.01c10.199,5.902,20.635,11.372,30.908,17.14
				c11.542,6.29,23.236,12.407,35.647,16.817c10.177,3.519,20.745,5.333,31.227,7.237c8.5,1.458,17.024,2.786,25.569,3.954
				c14.064,1.642,28.267,2.337,42.425,2.135c14.074-0.254,28.183-0.593,42.131-2.652c5.389-0.752,10.813-1.731,16.119-2.824
				c15.778-3.172,31.595-6.136,47.297-9.688c9.842-1.967,19.486-4.775,29.168-7.391c6.564-1.717,13.092-3.555,19.623-5.397
				c16.429-4.501,32.844-9.073,49.135-14.044c9.517-3.169,19.239-5.634,28.887-8.366c6.713-1.994,13.944-3.368,20.686-4.681
				c6.479-1.336,12.92-2.884,19.422-4.108c6.771-1.247,13.554-2.436,20.367-3.415c9.889-1.325,19.892-1.755,29.862-1.682
				c8.079,0.205,16.302,0.138,24.164,2.204c1.013-0.46,2.326,0.156,2.594,1.249c0.19,0.74,0.241,1.517,0.33,2.275
				C712.903,279.434,713.013,281.907,713.063,284.381z"/>
		</g>
		<g>
			<path style="fill:#FFFFFF;" d="M181.341,146.631c-0.722-0.645-1.169-1.564-1.231-2.531c-0.064-0.986,0.277-1.974,0.937-2.712
				c0.615-0.687,1.586-1.231,2.531-1.231c1.012,0,1.941,0.247,2.712,0.937c0.721,0.645,1.169,1.564,1.231,2.531
				c0.063,0.986-0.277,1.974-0.937,2.712c-0.615,0.687-1.586,1.231-2.531,1.231C183.042,147.568,182.112,147.322,181.341,146.631z"
				/>
			<path style="fill:#FFFFFF;" d="M147.67,171.828c-0.721-0.645-1.169-1.564-1.231-2.531c-0.063-0.986,0.277-1.974,0.937-2.712
				c0.615-0.687,1.586-1.231,2.531-1.231c1.012,0,1.942,0.246,2.712,0.937c0.722,0.645,1.169,1.564,1.231,2.531
				c0.064,0.986-0.277,1.974-0.937,2.712c-0.615,0.687-1.586,1.231-2.531,1.231C149.37,172.766,148.44,172.519,147.67,171.828z"/>
			<path style="fill:#FFFFFF;" d="M241.865,142.203c-0.721-0.645-1.169-1.564-1.231-2.531c-0.064-0.986,0.277-1.974,0.937-2.712
				c0.615-0.687,1.586-1.231,2.531-1.231c1.012,0,1.942,0.247,2.712,0.937c0.721,0.645,1.169,1.564,1.231,2.531
				c0.063,0.986-0.277,1.974-0.937,2.712c-0.614,0.687-1.586,1.231-2.531,1.231C243.565,143.14,242.636,142.894,241.865,142.203z"/>
			<path style="fill:#FFFFFF;" d="M242.555,190.103c-0.716-0.638-1.16-1.55-1.222-2.507c-0.062-0.977,0.275-1.956,0.93-2.686
				c0.609-0.682,1.572-1.222,2.507-1.222c1.002,0,1.923,0.247,2.687,0.93c0.716,0.638,1.16,1.55,1.222,2.507
				c0.062,0.977-0.275,1.956-0.93,2.686c-0.609,0.682-1.572,1.222-2.507,1.222C244.239,191.033,243.318,190.787,242.555,190.103z"/>
			<path style="fill:#FFFFFF;" d="M303.946,207.247c-0.716-0.638-1.16-1.55-1.222-2.507c-0.062-0.977,0.276-1.956,0.93-2.687
				c0.609-0.682,1.572-1.222,2.507-1.222c1.003,0,1.923,0.246,2.687,0.93c0.716,0.638,1.16,1.55,1.222,2.507
				c0.062,0.977-0.276,1.956-0.93,2.687c-0.609,0.682-1.572,1.222-2.507,1.222C305.631,208.177,304.71,207.93,303.946,207.247z"/>
			<path style="fill:#FFFFFF;" d="M271.023,224.528c-0.535-0.479-0.868-1.16-0.914-1.878c-0.091-1.423,1.069-2.924,2.572-2.924
				c0.75,0,1.439,0.183,2.01,0.694c0.535,0.479,0.868,1.16,0.914,1.878c0.091,1.423-1.07,2.924-2.572,2.924
				C272.282,225.222,271.594,225.039,271.023,224.528z"/>
			<path style="fill:#FFFFFF;" d="M273.776,287.108c-0.535-0.479-0.868-1.16-0.914-1.878c-0.091-1.423,1.07-2.924,2.572-2.924
				c0.75,0,1.439,0.183,2.01,0.694c0.535,0.479,0.868,1.16,0.914,1.878c0.091,1.423-1.07,2.924-2.572,2.924
				C275.036,287.802,274.347,287.62,273.776,287.108z"/>
			<path style="fill:#FFFFFF;" d="M288.744,160.096c-0.493-0.44-0.801-1.07-0.843-1.731c-0.083-1.314,0.986-2.699,2.373-2.699
				c0.693,0,1.329,0.169,1.856,0.642c0.493,0.441,0.801,1.07,0.843,1.731c0.083,1.314-0.986,2.699-2.373,2.699
				C289.908,160.738,289.272,160.569,288.744,160.096z"/>
			<path style="fill:#FFFFFF;" d="M199.541,174.681c-0.325-0.292-0.527-0.707-0.557-1.144c-0.054-0.867,0.653-1.782,1.568-1.782
				c0.457,0,0.877,0.112,1.225,0.424c0.324,0.292,0.527,0.707,0.557,1.144c0.054,0.867-0.653,1.782-1.568,1.782
				C200.31,175.105,199.889,174.993,199.541,174.681z"/>
			<path style="fill:#FFFFFF;" d="M114.98,205.755c-0.325-0.292-0.528-0.707-0.557-1.144c-0.054-0.867,0.653-1.782,1.568-1.782
				c0.457,0,0.877,0.112,1.226,0.424c0.324,0.292,0.527,0.707,0.556,1.144c0.054,0.867-0.653,1.782-1.568,1.782
				C115.748,206.179,115.328,206.067,114.98,205.755z"/>
			<path style="fill:#FFFFFF;" d="M530.503,134.937c-0.526-0.471-0.854-1.142-0.899-1.847c-0.089-1.401,1.051-2.879,2.531-2.879
				c0.74,0,1.418,0.181,1.979,0.683c0.526,0.471,0.854,1.142,0.899,1.847c0.089,1.401-1.051,2.879-2.531,2.879
				C531.743,135.62,531.065,135.439,530.503,134.937z"/>
			<path style="fill:#FFFFFF;" d="M531.014,184.187c-0.645-0.578-1.048-1.401-1.104-2.268c-0.056-0.885,0.25-1.771,0.841-2.433
				c0.551-0.615,1.423-1.104,2.268-1.104c0.908,0,1.74,0.223,2.433,0.841c0.645,0.578,1.048,1.401,1.104,2.268
				c0.056,0.885-0.25,1.771-0.841,2.433c-0.551,0.615-1.423,1.104-2.268,1.104C532.539,185.028,531.707,184.805,531.014,184.187z"/>
			<path style="fill:#FFFFFF;" d="M585.301,120.957c-0.705-0.631-1.144-1.528-1.204-2.473c-0.062-0.964,0.272-1.929,0.915-2.648
				c0.6-0.673,1.55-1.204,2.473-1.204c0.988,0,1.896,0.241,2.648,0.915c0.705,0.631,1.144,1.528,1.204,2.473
				c0.062,0.964-0.272,1.929-0.915,2.648c-0.6,0.673-1.55,1.204-2.473,1.204C586.961,121.872,586.053,121.631,585.301,120.957z"/>
			<path style="fill:#FFFFFF;" d="M629.78,163.034c-0.722-0.645-1.169-1.564-1.231-2.531c-0.064-0.986,0.277-1.974,0.937-2.712
				c0.615-0.687,1.586-1.231,2.531-1.231c1.011,0,1.941,0.246,2.712,0.937c0.721,0.645,1.169,1.564,1.231,2.531
				c0.063,0.986-0.277,1.974-0.937,2.712c-0.615,0.687-1.586,1.231-2.531,1.231C631.48,163.971,630.55,163.724,629.78,163.034z"/>
			<path style="fill:#FFFFFF;" d="M625.518,210.977c-0.721-0.645-1.169-1.564-1.231-2.531c-0.063-0.986,0.277-1.974,0.937-2.712
				c0.614-0.687,1.586-1.231,2.531-1.231c1.012,0,1.941,0.246,2.712,0.937c0.721,0.645,1.169,1.564,1.231,2.531
				c0.063,0.986-0.277,1.974-0.937,2.712c-0.615,0.687-1.586,1.231-2.531,1.231C627.219,211.915,626.288,211.668,625.518,210.977z"
				/>
			<path style="fill:#FFFFFF;" d="M637.471,264.74c-0.64-0.573-1.039-1.39-1.093-2.248c-0.056-0.878,0.247-1.755,0.832-2.411
				c0.546-0.609,1.41-1.093,2.248-1.093c0.901,0,1.726,0.219,2.411,0.832c0.64,0.573,1.039,1.39,1.093,2.248
				c0.056,0.877-0.247,1.755-0.832,2.411c-0.546,0.609-1.41,1.093-2.248,1.093C638.981,265.572,638.157,265.353,637.471,264.74z"/>
			<path style="fill:#FFFFFF;" d="M610.292,260.301c-0.285-0.256-0.461-0.616-0.486-0.997c-0.047-0.758,0.569-1.555,1.367-1.555
				c0.399,0,0.765,0.098,1.07,0.37c0.285,0.254,0.46,0.616,0.486,0.997c0.047,0.758-0.569,1.555-1.367,1.555
				C610.963,260.671,610.596,260.573,610.292,260.301z"/>
		</g>
		<g>
			<g>
				<path style="fill:#D9695F;" d="M504.752,300.176c3.084,4.86,8.957,12.385,8.188,18.306c-0.479,1.943-2.543,2.806-4.394,2.781
					c-4.157-0.363-7.741-2.885-10.815-5.524c-5.057-4.4-8.367-10.299-11.244-16.254c1.186,5.922,2.212,11.878,2.838,17.888
					c0.501,5.127,0.868,10.451-0.364,15.501c-0.696,2.257-3.333,2.987-5.309,1.881c-6.222-3.918-11.385-16.058-14.21-22.847
					c0.346,6.174,5.14,41.206-4.584,39.96c-9.046-1.882-15.901-26.772-17.461-35.136c-1.238,8.949-3.158,18.039-7.572,26.009
					c-1.171,1.945-2.339,4.148-4.467,5.177c-3.646,1.805-6.355-1.108-7.528-4.358c-1.255-2.947-1.86-6.135-2.387-9.28
					c-0.813-5.227-1.398-10.488-1.889-15.755c-1.665,6.283-4.215,12.325-7.712,17.812c-2.919,4.583-6.325,9.301-11.19,11.95
					c-2.787,1.412-5.798-0.158-7.004-2.872c-1.565-3.217-1.658-6.887-1.778-10.397c-0.027-5.589,0.976-11.135,2.06-16.601
					c-5.712,8.516-14.387,18.458-24.243,21.925c-10.273,3.471-13.492-8.045-11.678-16.017c2.222-9.756,7.749-18.338,12.384-27.076
					c6.138-11.276,12.173-22.608,17.788-34.153c5.564-11.678,11.516-23.459,20.18-33.177c3.283-3.585,7.042-6.69,10.943-9.573
					c4.952-3.634,10.609-6.84,16.893-7.026c4.803-0.105,9.511,1.189,14.156,2.256c2.837,0.716,5.566,1.853,8.006,3.479
					c7.697,5.082,10.504,7.242,13.796,16.091c0.185-0.177,0.503-0.172,0.657,0.013c0.323,0.609,0.39,1.357,0.62,1.971
					c1.458,4.409,3.3,8.683,4.835,13.074c4.099,12.19,7.956,24.629,14.121,35.948C498.967,290.948,501.744,295.637,504.752,300.176z
					"/>
			</g>
			<g>
				<path style="fill:#F06B5A;" d="M496.017,261.595c0.366,1.807,0.852,3.624,0.911,5.476c-0.782,5.941-11.184-6.062-12.555-7.748
					c-3.699-4.464-6.582-9.519-9.298-14.623c1.738,6.368,3.186,12.826,4.232,19.343c0.607,4.135,1.243,8.339,0.929,12.523
					c-0.135,2.36-2.476,3.174-4.066,1.425c-2.344-2.66-3.76-6.017-5.44-9.109c-2.966-5.799-5.665-11.751-7.788-17.913
					c1.199,9.534,1.726,19.156,1.475,28.766c-0.049,1.939-0.152,3.877-0.4,5.802c-0.153,1.608-0.56,3.868-2.553,3.989
					c-3.596,0.16-5.963-9.129-6.975-11.98c-2.324-7.72-4.214-15.58-5.671-23.51c-0.448,7.851-1.405,15.732-3.829,23.241
					c-0.887,2.8-1.931,5.549-3.187,8.205c-0.721,1.4-1.315,2.911-2.359,4.107c-7.314,6.475-9.223-12.058-9.759-16.301
					c-0.998-8.006-1.685-16.152-1.807-24.192c-2.318,9.372-5.533,18.549-9.986,27.13c-1.353,2.657-2.847,5.24-4.549,7.691
					c-1.253,1.692-2.346,3.656-4.126,4.849c-1.493,0.988-3.523,0.52-4.548-0.922c-2.258-3.49-1.848-7.96-1.602-11.926
					c0.75-7.884,2.987-15.534,5.49-23.018c-4.046,6.323-8.529,12.656-13.767,18.015c-2.472,2.597-5.14,5.012-7.992,7.187
					c-3.651,2.917-8.037,4.476-9.592-1.424c-1.531-7.711,5.591-18.231,9.464-24.738c6.452-10.19,14.442-19.256,21.617-28.917
					c7.669-10.343,14.053-21.569,19.581-33.182c2.253-4.946,4.203-10.024,6.337-15.021c1.488-3.627,3.067-7.228,5.087-10.596
					c1.258-2.108,2.661-4.194,4.657-5.674c3.298-2.682,8.868-2.595,10.64,1.8c1.444,3.359,1.32,7.029,2.417,10.443
					c1.052,3.317,2.32,6.561,3.343,9.889c0.101,0.317,0.114,0.641-0.004,0.949c5.159,15.806,11.289,31.358,19.199,45.984
					C485.277,238.789,493.189,249.173,496.017,261.595z"/>
			</g>
		</g>
	</g>
	<g>
		<path style="fill:#BAD9D3;" d="M0,0v500h750V0H0z M334.134,302.996l-1.857,64.191c0,0-106.102,4.658-154.755,5.915
			c-48.653,1.258-86.623-4.586-86.623-4.586s-4.638-85.07,2.012-129.325c6.65-44.255,31.185-106.166,77.274-126.344
			c46.089-20.178,105.248-23.618,138.726,21.784S334.134,302.996,334.134,302.996z M672.58,361.178
			c-14.446,5.503-111.21,8.833-111.21,8.833H435.406c0,0-4.28-44.575-3.59-57.673c0.689-13.099,0.688-88.051,8.484-117.631
			c7.796-29.58,30.664-62.706,55.261-80.075c24.597-17.369,92.637-28.384,132.981,3.62c40.344,32.004,40.14,87.003,43.121,108.206
			C674.643,247.661,672.58,361.178,672.58,361.178z"/>
		<path style="fill:#FFFFFF;" d="M670.932,199.03c-1.098-8.187-2.076-16.431-4.262-24.416c-2.116-7.965-5.325-15.623-9.074-22.951
			c-4.74-9.963-10.724-19.425-18.83-27c-6.134-5.686-12.873-10.807-20.249-14.778c-7.415-4.11-15.331-7.099-23.525-9.237
			c-17.281-5.012-35.547-7.05-53.432-4.425c-8.315,1.334-16.614,3.046-24.568,5.849c-7.964,3.046-15.805,6.537-23.157,10.873
			c-12.279,7.213-22.548,17.387-30.725,28.987c-5.061,6.792-9.182,14.232-12.711,21.92c-3.589,7.531-6.699,15.305-9.008,23.326
			c-6.053,23.604-8.648,47.962-10.442,72.217c-0.997,13.791-0.234,27.616-0.559,41.421c-0.482,13.047,1.135,26.046,1.439,39.077
			c0.26,6.778,0.415,13.569,1.152,20.316c0.326,2.309,0.542,4.64,0.992,6.926c0.242,1.04,0.536,2.193,1.432,2.876
			c0.631,0.48,1.417,0.693,2.201,0.737c1.842,0.108,3.687,0.07,5.532,0.095c2.464,0.032,4.927,0.124,7.388,0.221
			c6.712,0.245,13.787,0.39,20.556,0.512c11.023,0.232,22.046,0.706,33.071,0.377c11.188-0.318,22.374-0.092,33.559,0.192
			c20.231,0.567,40.452-0.758,60.687-0.391c17.419,0.208,34.722-2.157,52.026-3.837c5.525-0.516,11.052-1.135,16.493-2.244
			c2.732-0.738,6.778-0.961,7.701-4.168c-0.01-15.753,0.323-31.577,0.102-47.355c-0.404-16.541-0.741-33.081-0.467-49.629
			C674.547,242.642,673.917,220.731,670.932,199.03z M595.107,105.336c5.178,1.444,10.316,3.084,15.171,5.417
			c5.884,2.743,11.582,5.9,16.727,9.881c6.587,4.826,12.63,10.477,17.373,17.152c3.143,4.454,5.891,9.329,8.303,14.26
			c4.408,8.516,8.188,17.421,10.285,26.807c1.627,7.259,2.486,14.659,3.472,22.026c1.367,10.685,2.391,21.414,2.928,32.17
			c-1.355-0.08-2.829-0.132-4.209-0.174c-2.103-0.091-4.354-0.244-6.487-0.432c-12.047-1.342-24.173-1.748-36.284-1.241
			c-19.274,0.743-38.552,1.548-57.836,2.126c-0.262-14.075-0.484-28.152-0.865-42.223c-0.232-8.326-0.921-16.623-1.502-24.927
			c-0.564-13.585-0.852-27.181-1.302-40.771c-0.2-7.887-0.357-15.779-0.939-23.649c-0.053-0.688-0.112-1.375-0.178-2.062
			c7.84,0.091,15.666,0.944,23.316,2.633C587.136,103.14,591.14,104.167,595.107,105.336z M446.775,185.154
			c5.035-14.891,11.678-29.464,21.241-42.031c4.955-6.788,10.597-13.064,17.147-18.35c9.54-7.932,20.837-13.359,32.277-17.975
			c12.291-4.4,25.366-6.812,38.474-7.084c-0.049,0.523-0.088,1.048-0.118,1.572c-0.558,18.797,0.627,37.608,0.987,56.402
			c0.203,10.885,1.516,21.706,1.732,32.592c0.493,14.394,0.567,28.8,0.878,43.2c-13.836,0.383-27.674,0.638-41.515,0.639
			c-7.493-0.093-14.991-0.275-22.485-0.145c-12.337,0.436-24.654,1.413-36.881,3.117c-4.622,0.354-9.257,0.454-13.888,0.641
			c-1.609,0.134-4.941,0.04-7.354,0.676c1.12-10.676,2.546-21.298,4.613-31.927C443.207,199.308,444.55,192.113,446.775,185.154z
			 M518.254,366.549c-8.406-0.058-16.811,0.288-25.216,0.345c-13.665-0.075-27.332-0.059-40.997-0.083
			c-4.816-0.085-9.633,0.022-14.437,0.376c-0.862-4.012-1.151-8.145-1.727-12.21c-0.354-7.34-0.382-14.674-0.637-22.018
			c-0.266-7.733-0.977-15.446-1.052-23.189c-0.1-5.442,0.237-10.878,0.327-16.319c0.06-12.002,0.116-24.014,1.017-35.988
			c0.444-5.471,0.924-10.917,1.468-16.35c0.218,0.032,0.436,0.063,0.652,0.095c6.178,0.884,12.439,0.906,18.667,0.788
			c4.852-0.144,9.641-1,14.47-1.43c6.216-0.503,12.442-0.896,18.668-1.231c16.881-0.758,33.776,0.51,50.667-0.143
			c6.463-0.086,12.925-0.225,19.386-0.388c0.01,0.377,0.015,0.755,0.025,1.132c0.274,25.434,2.33,50.023,2.912,75.303
			c0.326,17.209,0.464,34.43,0.162,51.639c-0.682,0.018-1.365,0.027-2.047,0.046C546.459,367.403,532.357,366.606,518.254,366.549z
			 M669.74,244.022c0.251,16.368-0.101,32.74,0.207,49.109c0.64,22.209,0.709,44.449,0.456,66.655
			c-5.861,1.565-11.941,2.133-17.957,2.793c-5.758,0.51-11.685,1.174-17.478,1.754c-10.282,0.938-20.603,2.072-30.945,2.159
			c-12.374-0.024-24.749,0.021-37.12,0.289c0.058-1.495,0.104-2.992,0.161-4.487c0.507-15.372,0.388-30.754,0.201-46.13
			c-0.111-16.774-1.234-33.51-1.942-50.262c-0.288-9.076-0.493-18.153-0.671-27.231c21.707-0.6,43.405-1.495,65.11-2.099
			c6.521-0.029,12.948,0.029,19.473,0.487c4.495,0.43,8.995,0.735,13.514,0.625c2.269-0.038,4.533-0.228,6.804-0.227
			C669.633,239.644,669.701,241.833,669.74,244.022z"/>
		<path style="fill:#FFFFFF;" d="M336.759,276.623c0.097-19.805-1.138-39.568-2.776-59.296c-1.782-19.133-3.753-38.47-9.687-56.833
			c-1.516-5.113-3.185-10.198-5.545-14.993c-4.907-9.438-11.263-18.223-18.923-25.618c-4.122-3.727-8.527-7.161-13.228-10.126
			c-8.007-4.906-16.477-9.255-25.586-11.689c-16.996-4.46-34.828-3.115-51.916,0.131c-10.645,2.027-20.995,5.31-30.984,9.492
			c-5.068,2.04-10.068,4.265-14.807,6.995c-14.19,8.222-26.462,19.45-36.546,32.344c-5.153,6.464-10.164,13.119-14.046,20.441
			c-2.545,4.838-4.666,9.907-6.606,15.014c-6.213,15.518-10.361,31.731-13.124,48.198c-4.195,21.71-5.41,43.875-5.838,65.945
			c-0.15,20.332-0.064,40.686,1.59,60.962c0.206,3.242-1.724,12.043,2.083,13.358c2.276,0.786,4.7,0.909,7.077,1.149
			c2.527,0.237,5.06,0.448,7.594,0.604c9.147,0.453,18.3,1.345,27.462,1.943c16.884,0.664,33.779,0.996,50.667,1.619
			c27.531,0.905,54.871-3.253,82.375-3.432c8.945-0.269,17.896-0.535,26.829-1.102c7.371-0.547,15.582-1.222,23.178-1.543
			c4.38-0.242,8.747-0.629,13.119-0.983c3.935-0.027,5.893-1.519,5.954-5.396c0.311-4.363,0.87-8.704,1.145-13.069
			c0.453-7.723,0.256-15.462,0.529-23.193C337.394,310.578,337.096,293.595,336.759,276.623z M259.891,103.663
			c13.059,3.867,25.282,10.722,35.524,19.686c9.439,8.913,17.516,19.897,21.825,32.219c2.387,7.384,4.797,14.792,6.376,22.401
			c1.351,6.899,2.443,14.012,3.301,21.025c1.699,14.619,2.967,29.301,3.768,44.005c-3.309-0.436-6.611-0.962-9.955-1.074
			c-16.785-0.895-33.568,0.521-50.357,0.446c-16.417-0.037-32.797,1.006-49.187,1.811c0.015-11.839,0.086-23.676,0.327-35.513
			c-0.047-21.98-0.364-43.959-0.221-65.938c0.093-10.501,0.327-20.998,0.047-31.499c-0.106-3.227-0.241-6.474-0.706-9.672
			C233.756,99.912,247.059,100.231,259.891,103.663z M115.607,171.387c3.321-6.495,7.853-12.768,12.412-18.518
			c7.087-9.066,15.011-17.515,24.127-24.576c5.589-4.15,11.418-8.02,17.599-11.235c6.86-3.354,13.995-6.124,21.173-8.716
			c8.403-2.696,17.114-4.896,25.935-6.254c-0.031,0.416-0.059,0.832-0.1,1.242c-0.192,2.855-0.255,5.718-0.292,8.578
			c-0.12,5.284,0.074,10.569,0.116,15.853c0.055,21.879-0.067,43.758,0.265,65.635c-0.139,17.003-0.28,34.006-0.384,51.009
			c-2.22,0.101-4.44,0.199-6.661,0.283c-10.07,0.391-20.15,0.559-30.223,0.852c-25.283,0.143-50.506,1.96-75.758,2.98
			c-3.145,0.188-6.38,0.061-9.507,0.525c1.824-14.016,4.519-27.934,7.991-41.628C105.729,195.084,110.032,182.921,115.607,171.387z
			 M179.507,371.105c-11.35-0.361-22.693-0.85-34.049-0.964c-7.763-0.109-15.512-0.449-23.251-1.073
			c-9.941-0.715-19.905-0.891-29.849-1.556c-0.329-0.85,0.037-1.668,0.051-2.532c-0.011-3.3-0.214-6.605-0.341-9.905
			c-1.661-33.676-1.905-67.529,1.629-101.097c0.074-0.64,0.161-1.279,0.238-1.919c2.736,0.727,5.679,0.641,8.488,0.868
			c4.94,0.268,9.884,0.1,14.821-0.143c17.781-0.435,35.525-1.71,53.307-2.154c15.301-0.164,30.589-0.696,45.873-1.359
			c-0.11,19.714-0.157,39.428-0.055,59.145c-0.083,16.314,0.057,32.626,0.332,48.938c0.051,3.802,0.126,7.606,0.112,11.41
			c-0.003,0.515-0.022,1.035-0.006,1.549C204.389,371.054,191.931,371.415,179.507,371.105z M332.238,318.177
			c-0.1,5.683-0.312,11.363-0.341,17.047c0.119,9.586-0.323,19.15-1.438,28.673c-7.907,0.406-15.814,0.855-23.72,1.314
			c-9.252,0.727-18.49,1.639-27.77,1.916c-14.761,0.734-29.546,0.79-44.29,1.88c-4.439,0.38-8.887,0.724-13.342,1.023
			c-0.111-4.479,0.023-8.958,0.027-13.437c-0.212-22.045-0.199-44.091-0.183-66.138c0.054-13.798-0.003-27.597-0.001-41.395
			c10.832-0.489,21.662-1.033,32.492-1.556c10.055-0.282,20.115-0.254,30.17-0.449c9.611-0.305,19.224-0.639,28.841-0.602
			c4.573,0.073,9.152,0.013,13.717,0.297c1.551,0.092,2.853,0.189,4.488,0.294c0.328,6.764,0.568,13.532,0.688,20.3
			C331.731,284.289,332.451,301.23,332.238,318.177z"/>
	</g>
	<g>
		<g>
			<path style="fill:#673632;" d="M548.722,189.751c-0.382-0.279-0.467-0.835-0.782-1.207c-1.156-1.556-2.498-2.962-3.51-4.626
				c-3.117-4.308-5.993-8.772-8.259-13.595c-1.487-2.995-2.893-6.049-3.783-9.282c-1.063-4.248-0.69-8.756,0.43-12.954
				c1.08-3.682,2.946-7.064,4.673-10.468c0.748-1.71,4.053-7.173,2.924-8.655c-1.638-1.967-4.49,0.138-6.077,1.24
				c-3.043,2.699-5.354,6.176-7.319,9.715c-1.061-3.088-0.98-6.423-1.009-9.65c0.044-12.749,6.397-24.262,11.215-35.733
				c0.831-2.3,2.029-4.651,1.951-7.144c-0.112-1.874-2.291-2.72-3.836-1.895c-4.278,2.369-7.701,8.938-9.864,13.253
				c-2.986,6.122-5.358,12.587-6.279,19.366c-2.039-4.929-4.245-9.745-7.184-14.223c-1.339-2.046-2.543-4.242-4.342-5.928
				c-3.118-2.658-5.219,0.535-4.999,3.705c0.146,5.327,1.532,10.545,3.577,15.448c1.815,4.514,4.402,9.017,6.577,13.418
				c2.184,4.837,4.009,9.849,5.312,14.998c-5.454-3.691-10.349-8.77-16.927-10.357c-2.865-0.725-7.322,0.135-7.209,3.818
				c0.057,3.037,2.11,5.511,4.143,7.575c3.288,3.348,7.649,5.759,11.455,8.512c1.783,1.236,3.637,2.364,5.351,3.7
				c1.573,1.227,2.804,2.808,3.994,4.393c4.031,5.719,7.572,11.846,11.437,17.69c2.89,4.24,7.627,12.278,12.549,13.893
				c1.171,0.404,2.538,0.362,3.564-0.383c1.159-0.911,2.238-2.294,2.16-3.839c0.174-0.025,0.323-0.163,0.338-0.357
				C549.009,189.963,548.877,189.861,548.722,189.751z M645.18,108.105c-2.174-1.241-7.927,0.986-10.191,1.949
				c-7.14,3.18-13.229,8.23-18.615,13.824c0.5-2.136,1.149-4.241,1.59-6.39c0.442-2.934,2.262-12.141-1.075-13.483
				c-2.259-0.813-3.697,2.01-4.764,3.554c-2.045,3.447-2.589,7.495-3.579,11.318c-2.055,8.445-3.735,17.068-8.048,24.733
				c-1.736,2.527-3.365,5.469-6.117,7.01c-0.001-2.203,0.723-4.327,1.214-6.453c0.93-3.658,1.721-7.44,1.391-11.232
				c-0.291-1.606-0.551-4.292-2.619-4.409c-2.808,0.439-5.071,6.033-6.078,8.494c-3.037,8.746-3.823,18.372-7.767,26.862
				c-3.076,6.59-6.423,13.145-11.008,18.829c-1.274,1.547-2.636,3.023-4.007,4.486c-0.605,0.788-3.855,3.509-3.005,4.431
				c-0.597,0.991-0.361,2.417,0.775,2.893c3.59,1.171,7.954-2.015,10.881-3.923c9.409-7.351,15.377-17.963,23.513-26.579
				c5.201-5.758,11.115-10.803,17.913-14.631c5.965-3.289,12.748-5.433,18.487-9.243c1.509-1.065,3.172-2.29,3.868-4.061
				c0.619-1.647-0.754-2.995-2.378-2.884c-5.356,0.081-10.581,1.926-15.392,4.17c-3.408,1.443-6.492,3.858-10.156,4.591
				c2.918-4.96,7.092-8.739,11.705-12.186c6.65-4.929,13.612-9.411,20.076-14.598C643.571,113.666,647.621,110.531,645.18,108.105z"
				/>
			<path style="fill:#FDC5AE;" d="M682.784,472.104c-0.021,2.829-0.267,5.635-0.624,8.44c-0.128,1.016-0.276,2.023-0.547,3.011
				c-0.326,1.177-1.012,2.218-1.848,3.094c-2.167,2.267-5.137,3.48-8.033,4.524c-1.401,0.504-2.816,0.956-4.24,1.383
				c-2.987,0.885-6.025,1.566-9.086,2.147c-3.072,0.582-6.157,1.073-9.256,1.484c-3.141,0.417-6.297,0.715-9.456,0.977
				c-3.063,0.253-6.132,0.481-9.202,0.636c-6.154,0.308-12.323,0.052-18.475-0.152c-3.11-0.103-6.22-0.227-9.327-0.427
				c-0.827-0.054-1.654-0.114-2.478-0.18c-2.286-0.184-4.567-0.415-6.846-0.667c-6.231-0.685-12.465-1.335-18.657-2.319
				c-2.98-0.473-5.953-0.984-8.922-1.523c-3.145-0.57-6.252-1.288-9.334-2.137c-3.435-0.944-6.831-2.04-10.11-3.437
				c-1.678-0.715-3.295-1.553-4.903-2.41c-1.351-0.72-2.706-1.431-4.021-2.216c-0.317-0.19-0.535-0.485-0.647-0.819
				c-0.955-0.529-1.848-1.158-2.608-1.939c-0.419,0.141-0.898,0.09-1.301-0.271c-1.018-1.273-1.725-2.705-2.232-4.23
				c-0.09-0.057-0.172-0.13-0.244-0.215c-0.661-0.853-0.812-1.973-1.104-2.985c-0.464-1.847-0.943-3.689-1.353-5.55
				c-1.894-7.834-2.303-15.91-2.313-23.941c-0.137-12.655,1.165-25.189,3.65-37.526c1.182-5.259,2.559-10.467,3.99-15.662
				c-1.519,2.323-3.105,4.603-4.879,6.735c-2.062,2.637-6.107,5.293-9.474,3.696c-2.191-1.43-3.167-4.16-3.835-6.58
				c-0.988-4.194,0.388-8.44,1.934-12.318c1.953-5.397,4.578-10.488,7.662-15.321c2.59-4.025,5.154-8.078,7.903-11.994
				c2.313-3.007,4.708-5.947,7.322-8.697c1.565-1.513,3.482-2.805,4.858-4.5c2.776-17.583,2.641-38.983-12.94-50.47
				c-6.854-4.955-15.37-7.01-23.648-8.069c-4.517-0.479-9.149-0.422-13.664-0.303c-2.831,0.095-5.661,0.232-8.494,0.241
				c-0.538-0.045-1.169-0.003-1.801,0.012c-0.422,0.35-0.873,0.668-1.315,0.986c-2.988,2.151-6.249,4.23-10.021,4.5
				c-2.527,0.18-4.958-0.461-7.267-1.445c-1.175-0.502-2.309-1.123-3.324-1.899c-1-0.764-1.893-1.64-2.685-2.616
				c-1.501-1.916-2.544-4.119-3.258-6.442c-0.29-0.991-0.505-1.979-0.641-3.004c-0.153-1.135-0.141-2.284-0.104-3.425
				c0.038-1.204,0.167-2.406,0.317-3.6c0.189-1.521,0.446-3.043,0.806-4.532c0.631-2.611,1.624-5.165,3.061-7.444
				c0.791-1.257,1.641-2.503,2.652-3.596c1.022-1.106,2.146-2.115,3.302-3.079c2.572-2.145,5.342-4.049,7.966-6.13
				c1.941-1.563,3.778-3.233,5.53-5.003c2.493-2.602,4.858-5.345,7.027-8.226c0.782-1.054,1.558-2.115,2.347-3.165
				c0.849-1.129,1.734-2.231,2.616-3.333c1.859-2.321,3.736-4.626,5.63-6.917c1.916-2.32,3.887-4.589,5.925-6.8
				c2.065-2.242,4.273-4.357,6.515-6.422c2.613-2.407,5.375-4.665,8.255-6.757c-1.723-0.234-3.436-0.519-5.134-0.918
				c-4.392-1.01-8.547-2.824-12.612-4.742c-4.051-1.975-7.952-4.325-11.442-7.186c-3.936-3.11-6.658-9.378-3.51-13.887
				c1.809-2.23,5.016-2.469,7.69-2.335c5.404,0.631,10.522,2.941,15.025,5.927c6.605,4.025,12.581,9.007,17.923,14.592
				c0.692,0.737,1.369,1.487,2.032,2.25l0.002,0c1.389-0.734,2.802-1.422,4.239-2.063c1.413-0.632,2.855-1.196,4.301-1.743
				c1.389-0.525,2.797-1.004,4.223-1.413c5.835-1.676,11.901-2.852,17.998-2.497c2.739,0.16,5.447,0.502,8.124,1.113
				c2.763,0.629,5.489,1.421,8.153,2.394c2.869,1.047,5.634,2.384,8.267,3.928c0.056,0.033,0.113,0.066,0.169,0.1
				c5.346-4.761,11.528-8.546,17.965-11.636c3.783-1.885,7.644-3.622,11.676-4.906c6.896-2.19,14.38-4.456,21.625-2.818
				c2.897,0.808,6.12,2.553,5.056,6.095c-1.914,6.391-11.631,10.779-17.333,13.398c-5.765,2.512-11.772,4.398-17.827,6.071
				c-3.147,0.885-6.255,1.898-9.392,2.813c0.733,0.672,1.453,1.362,2.16,2.064c2.022,2.012,3.961,4.115,5.821,6.277
				c1.987,2.313,3.915,4.677,5.676,7.166c1.691,2.391,3.282,4.856,4.708,7.413c3.023,5.427,5.422,11.179,7.75,16.929
				c1.148,2.83,2.18,5.706,3.24,8.572c1.071,2.897,2.094,5.808,3.064,8.74c0.956,2.889,1.961,5.762,2.943,8.642
				c1.04,3.048,1.958,6.135,2.908,9.212c0.921,2.983,1.848,5.967,2.755,8.954c0.891,2.938,1.832,5.86,2.752,8.79
				c1.897,6.049,3.684,12.133,5.293,18.267c1.62,6.174,3.062,12.394,4.582,18.594c0.745,3.039,1.476,6.082,2.212,9.123
				c0.724,2.991,1.513,5.961,2.328,8.929c0.87,3.158,1.714,6.323,2.542,9.161c1.826,6.09,3.634,12.193,5.678,18.214
				c1.05,3.092,2.185,6.153,3.261,9.237c1.135,3.254,2.223,6.525,3.26,9.812c1.95,6.19,3.587,12.467,5.213,18.747
				c1.569,6.059,3.016,12.151,4.311,18.273c1.3,6.135,2.34,12.329,3.36,18.515c0.516,3.115,0.995,6.236,1.339,9.375
				c0.314,2.866,0.532,5.743,0.677,8.622C682.732,466.326,682.805,469.216,682.784,472.104z"/>
			<path style="fill:#FFFFFF;" d="M532.735,196.921c-1.073,0.803-4.127,4.125-2.713,5.372c0.768,0.428,1.349-0.535,1.909-0.922
				c0.925-0.783,1.93-1.517,2.696-2.463C535.621,197.658,534.029,195.991,532.735,196.921z M538.034,191.034
				c-0.604,0.704-1.31,1.447-1.675,2.316c-0.063,0.068-0.1,0.156-0.03,0.246c0.066,0.086,0.174,0.089,0.254,0.033
				c0.594-0.067,1.109-0.45,1.623-0.732c0.824-0.623,2.919-1.194,2.135-2.551C539.593,189.402,538.592,190.402,538.034,191.034z
				 M543.748,196.065c-0.953,0.706-1.648,1.697-2.353,2.637c-0.159,0.277-0.44,0.548-0.39,0.889
				c0.158,0.507,0.714,0.158,1.022,0.007c0.645-0.292,1.281-0.592,1.916-0.906c0.468-0.234,0.897-0.505,1.287-0.856
				C546.26,196.863,544.888,195.227,543.748,196.065z M550.933,184.76c-0.618,0.449-1.141,1.014-1.654,1.576
				c-0.379,0.488-0.93,0.959-1.047,1.584c-0.028,0.297,0.314,0.54,0.58,0.383c0.503-0.463,1.179-0.701,1.786-1.018
				c0.501-0.23,1.006-0.452,1.487-0.722C553.367,185.789,552.168,183.92,550.933,184.76z M529.987,191.528
				c-0.581,0.559-1.098,1.177-1.615,1.795c-0.302,0.47-1.746,1.633-0.853,2.066c0.131,0.041,0.274,0.008,0.378-0.078
				c1.053-0.814,2.173-1.602,3.249-2.399C532.137,192.126,530.927,190.689,529.987,191.528z M607.394,246.823
				c0.219,1.142,0.204,2.722,1.309,3.388c0.931,0.45,2.016-0.478,1.749-1.468c-0.258-1.12-0.822-2.133-1.384-3.126
				c-0.164-0.289-0.387-0.648-0.7-0.788C607.155,244.467,607.243,246.064,607.394,246.823z M607.616,235.283
				c0.886,0.429,1.903-0.543,1.517-1.449c-0.289-0.713-0.726-1.342-1.174-1.963c-0.271-0.472-0.813-0.852-1.155-0.217
				c-0.325,0.701-0.071,1.517,0.018,2.249C606.932,234.431,607.062,235.048,607.616,235.283z M616.992,243.538
				c-0.511-0.407-1.293,0.05-1.268,0.688c0.107,0.832,0.594,1.582,0.813,2.395c0.293,0.927,0.552,1.864,0.855,2.791
				c0.098,0.373,0.285,0.708,0.622,0.914c0.971,0.634,2.282-0.34,1.98-1.453C619.614,246.826,618.59,244.889,616.992,243.538z
				 M613.588,261.365c-0.164-0.318-0.387-0.682-0.72-0.851c-1.008-0.407-1.375,0.632-1.16,1.456c0.18,1.283,0.223,2.591,0.599,3.837
				c0.097,0.321,0.277,0.595,0.567,0.773c0.942,0.609,2.18-0.326,1.904-1.398C614.514,263.875,614.195,262.559,613.588,261.365z
				 M623.841,263.443c0.111-0.699-0.864-1.107-1.297-0.542c-0.883,1.314,0.245,3.567,0.615,4.977
				c0.585,1.455,2.789,0.74,2.419-0.779C625.268,265.757,624.498,264.626,623.841,263.443z M619.047,277.222
				c-0.039-0.399-0.553-0.697-0.924-0.404c-0.474,0.425-0.384,1.155-0.343,1.73c0.046,0.671,0.078,1.342,0.145,2.011
				c0.295,1.755,2.861,1.107,2.298-0.58C619.887,279.038,619.392,278.155,619.047,277.222z M654.393,417.756
				c-0.306-0.531-0.651-1.217-1.309-1.345c-0.733-0.099-1.031,0.704-0.892,1.305c0.107,0.91,0.111,1.827,0.322,2.722
				c0.49,1.747,3.065,1.091,2.674-0.675C655.026,419.065,654.734,418.384,654.393,417.756z M659.759,407.222
				c-0.17-1.049-0.431-2.094-0.886-3.061c-0.123-0.251-0.255-0.477-0.509-0.609c-0.885-0.314-1.06,0.884-1.101,1.506
				c-0.002,1.076-0.519,2.503,0.367,3.337C658.481,409.141,659.944,408.347,659.759,407.222z M668.457,421.109
				c-0.229-2.173-1.046-4.197-1.894-6.187c-0.109-0.629-1.057-0.687-1.252-0.083c-0.136,0.326-0.081,0.712-0.026,1.049
				c0.376,1.902,0.779,3.659,1.118,5.601c0.111,0.557,0.738,0.891,1.271,0.757C668.167,422.121,668.53,421.623,668.457,421.109z
				 M657.99,428.618c-0.359,1.196,0.002,2.519,0.146,3.734c0.074,0.377,0.498,0.603,0.858,0.513
				c1.297-0.366-0.329-2.908-0.288-3.862C659.005,428.514,658.247,428.106,657.99,428.618z M669.234,430.527
				c-0.208-0.899-0.958-2.844-2.096-1.794c-0.453,0.763-0.717,2.465,0.058,3.094C668.096,432.605,669.556,431.67,669.234,430.527z
				 M592.513,408.006c-1.696-5.971-3.462-12.019-6.391-17.542c-3.792-6.875-9.697-13.235-17.672-14.842
				c-4.445-1.01-9.211-0.336-13.393,1.39c-2.591,1.157-4.831,2.973-6.77,5.023c-6.751,7.76-11.381,17.205-13.03,27.431
				c-1.41,8.767-1.981,17.814-0.202,26.568c0.674,3.453,1.836,6.785,2.509,10.233c0.415,1.528,0.303,3.693,1.897,4.519
				c3.34,1.133,6.932,1.43,10.412,1.961c8.431,0.959,16.937,1.1,25.417,0.957c3.284-0.041,6.568-0.262,9.831-0.653
				c2.119-0.287,4.283-0.609,6.222-1.557c3.139-1.207,3.283-4.26,3.677-7.172c0.433-3.389,0.67-6.802,0.799-10.218
				C596.032,425.306,594.896,416.478,592.513,408.006z"/>
		</g>
		<g>
			<path style="fill:#673632;" d="M679.137,392.435c-0.735-0.398-1.507-1.086-2.379-1.177c-1.42,0.375,0.228,2.596,0.765,3.21
				c0.792,0.948,1.83,1.7,3.02,2.058c1.352,0.512,2.459-1.313,1.368-2.262C681.058,393.542,680.09,393.017,679.137,392.435z
				 M688.306,391.901c-1.116-0.904-2.47-1.416-3.744-2.049c-0.398-0.112-1.251-0.748-1.417-0.079
				c0.358,1.67,2.506,3.774,4.104,4.418C688.695,394.686,689.594,392.71,688.306,391.901z M696.618,386.843
				c-1.609-1.376-3.8-1.648-5.702-2.429c-1.135,0.061-0.582,1.422-0.072,1.995c1.105,1.435,2.475,2.864,4.304,3.278
				C696.754,390.078,697.879,387.927,696.618,386.843z M703.632,378.073c-1.331-0.563-2.81-0.523-4.217-0.735
				c-0.67-0.111-1.739-0.451-1.801,0.624c0.118,1.039,1.22,1.673,1.973,2.272c0.908,0.64,1.881,1.255,2.994,1.454
				C704.859,382.143,705.801,378.917,703.632,378.073z M706.403,370.284c-1.213,0.08-2.536-0.185-3.684,0.255
				c-1.422,1.325,2.138,2.72,3.088,3.072c2.068,0.781,6.22,2.653,6.797-0.742C712.617,369.738,708.539,370.376,706.403,370.284z
				 M706.876,365.678c1.803,0.303,3.307,0.376,5.203,0.048c2.44-0.548,1.765-4.105-0.711-3.732
				c-1.762,0.241-3.364,1.047-5.043,1.587C704.062,364.193,705.132,365.387,706.876,365.678z M692.174,380.372
				c4.219-4.161,8.221-8.907,10.091-14.622c1.67-4.857-0.755-7.728-5.17-9.45c-11.469-4.06-24.207-4.717-34.714-11.317
				c-3.842-2.525-7.939-5.532-9.712-9.973c3.18-2.516,6.073-5.428,7.205-9.37c0.641-2.832-0.01-5.767-0.523-8.569
				c-1.264-5.893-3.321-11.671-6.631-16.737c-1.025-1.593-1.953-3.338-3.494-4.494c-2.721-1.859-6.378-1.852-9.35-0.603
				c-2.485,1.235-4.661,2.594-7.179,3.951c-7.179,4.368-15.319,6.836-23.477,8.819c-11.968,2.989-24.173,4.953-36.444,6.156
				c-4.96,0.288-9.924,0.438-14.862,1.039c-3.748,0.345-7.52,0.316-11.266,0.666c-2.961,0.38-6.347,1.179-8.027,3.888
				c-1.579,2.687-2.577,5.662-3.456,8.637c-1.188,4.306-2.415,8.752-2.877,13.229c-0.437,3.267,0.235,6.128,4.119,5.519
				c0.987,0.793,2.079-0.023,2.69-0.87c1.178-1.001,2.138-2.325,3.51-3.067c3.948-1.444,6.659,2.566,9.531,4.542
				c1.403,1.02,3.023,1.667,4.504,2.561c1.313,0.855,2.568,1.831,4.01,2.467c3.67,1.387,7.023-1.708,9.592-3.969
				c2.517-2.236,8.558-11.428,12.151-9.779c5.043,2.313,9.407,5.856,14.091,8.805c6.405,4.33,6.042,5.912,14.315,4.534
				c6.036-0.956,11.984-2.434,17.703-4.577c0.149,0.505,0.325,1.004,0.478,1.503c0.809,2.604,1.614,5.212,2.614,7.752
				c2.42,5.636,5.962,10.749,9.698,15.588c6.499,8.291,14.43,17.924,25.671,18.856C676.013,392.01,685.695,386.325,692.174,380.372z
				"/>
			<path style="fill:#FFFFFF;" d="M591.244,328.35c-0.985-1.333-2.215-2.724-1.753-4.506c0.851-4.12,3.406-7.938,2.723-12.283
				c-0.621,0.106-1.241,0.213-1.863,0.314c0.023,3.919-2.003,7.064-2.941,11.315c-0.439,1.86,0.117,3.71,1.318,5.166
				c2.356,2.824,2.856,5.378,1.665,8.876c-0.441,1.437-0.88,2.88-1.038,4.382c-0.053,0.459-0.144,1.007,0.061,1.435
				c0.01,0.024,0.028,0.04,0.041,0.063c0.225,0.15,0.449,0.302,0.674,0.454c0.396,0.061,0.828-0.096,1.014-0.49
				c0.237-0.525,0.103-1.13,0.231-1.685c0.537-3.127,2.313-6.223,1.489-9.475C592.63,330.613,592.002,329.422,591.244,328.35z
				 M551.763,337.693c0.032-2.661-0.669-5.251-1.774-7.656c-0.471-1.117-0.818-2.321-0.619-3.542
				c0.515-2.37,1.832-4.496,2.344-6.875c0.335-1.333,0.335-2.717,0.097-4.065c-0.565,0.024-1.129,0.051-1.693,0.079
				c0.002,0.597,0.002,1.196-0.119,1.765c-0.802,4.459-5.172,8.019-3.14,12.819c0.581,1.578,1.303,2.809,1.734,4.505
				c0.449,1.786,0.516,3.64,0.365,5.469c-0.05,0.707,0.48,1.344,1.192,1.401C552.082,341.63,551.606,339.001,551.763,337.693z
				 M558.599,320.02c0.095-1.679-0.379-3.288-1.097-4.787c-0.492,0.042-0.984,0.073-1.477,0.105
				c1.454,6.554-2.089,6.659-2.992,12.794c-0.097,2.682,1.372,5.097,1.348,7.777c-0.013,0.702-0.099,1.509-0.198,2.316
				c-0.064,0.527,0.339,1.029,0.843,1.139c1.646,0.204,1.535-2.073,1.64-3.195c0.09-1.578-0.256-3.121-0.645-4.638
				c-0.515-1.913-0.688-3.931,0.282-5.734C557.089,323.945,558.49,322.114,558.599,320.02z M587.079,331.128
				c-0.228-1.753-0.633-3.521-1.491-5.078c-0.99-1.588-2.342-3.137-2.145-5.144c-0.031-1.94,0.948-3.484,1.175-5.478
				c0.095-0.893,0.081-1.793-0.065-2.675c-0.461,0.065-0.923,0.131-1.384,0.193c-0.013,0.258-0.035,0.516-0.07,0.772
				c-0.38,2.579-2.178,4.739-2.197,7.406c-0.15,1.438,0.154,2.902,0.808,4.188c0.747,1.368,1.807,2.572,2.113,4.147
				c0.543,1.963,0.632,4.007,0.465,6.028c-0.041,1.395-0.567,2.957-0.265,4.342c0.653,0.341,1.297,0.696,1.932,1.069
				c0.177-0.129,0.321-0.303,0.398-0.526c0.186-0.477-0.008-0.962,0.01-1.451C586.68,336.346,587.407,333.798,587.079,331.128z
				 M660.094,369.703c2.151-3.721,7.628-0.829,11.138-5.355c0.604-0.781,1.068-1.671,1.322-2.627
				c0.478-1.425,0.075-3.271,1.307-4.36c2.045-2.165,5.557-3.117,7.621-5.249c-0.689-0.167-1.378-0.335-2.065-0.508
				c-2.975,1.742-6.65,2.661-8.424,5.768c-0.917,1.984-0.616,4.581-2.56,5.999c-1.271,0.986-2.931,1.228-4.48,1.482
				c-4.423,0.58-6.126,3.104-7.628,7.002c-1.175,2.731-2.761,5.368-5.161,7.19c-0.961,0.666-2.003,1.194-3.058,1.697
				c0.591,0.629,1.198,1.243,1.814,1.845c1.318-0.614,2.619-1.298,3.705-2.276c1.414-1.251,2.548-2.708,3.513-4.342
				C658.296,374.117,659.004,371.665,660.094,369.703z M688.688,353.843c-1.401,2.586-3.236,4.949-5.905,6.308
				c-1.282,0.691-2.939,1.133-4.234,1.959c-6.715,4.76,1.123,9.228-10.443,12.179c-3.813,0.804-6.715,2.341-8.151,6.181
				c-0.517,1.331-0.556,2.814-1.199,4.094c-0.811,1.19-1.969,2.056-3.274,2.635c0.697,0.472,1.411,0.91,2.14,1.319
				c1.43-0.782,2.686-1.876,3.41-3.34c0.635-1.336,0.747-2.857,1.349-4.209c0.711-1.539,1.845-2.924,3.462-3.545
				c3.758-1.244,8.18-1.847,10.556-5.424c0.893-1.41,0.737-3.138,0.913-4.728c0.462-3.473,3.062-3.879,5.84-4.91
				c3.568-1.441,6.237-4.462,7.947-7.896C690.296,354.253,689.493,354.045,688.688,353.843z M629.459,342.056
				c-0.395-3.332,1.417-6.415,1.551-9.709c0.13-1.923-0.375-3.875-1.553-5.418c-1.61-2.033-4.119-2.544-3.914-5.671
				c0.305-6.121,2.333-12.388-1.963-17.622c-0.291,0.114-0.585,0.223-0.878,0.333c3.354,5.472,1.333,9.892,0.178,16.579
				c-0.794,6.606,3.83,5.584,5.192,9.566c0.577,2.212-0.367,4.437-0.92,6.558c-1.231,4.233-0.868,6.394,1.789,9.897
				c0.796,1.205,2.638,0.133,2.023-1.138C630.452,344.316,629.633,343.297,629.459,342.056z M619.01,343.25
				c0.852-4.559,4.224-8.914,1.919-13.69c-0.906-2.182-3.163-3.275-4.542-5.096c-2.108-3.372,3.067-10.314,1.759-14.938
				c-0.305-1.271-0.968-2.417-1.783-3.432c-0.5,0.148-0.999,0.298-1.5,0.439c2.918,3.85,1.12,7.508-0.28,11.962
				c-0.714,2.417-1.521,5.434,0.435,7.486c1.176,1.429,2.918,2.333,3.919,3.905c1.069,1.85,0.978,4.093,0.348,6.076
				c-0.401,1.298-0.923,2.552-1.395,3.826c-0.513,1.454-1.203,3.027-0.709,4.579c0.471,1.522,1.781,2.506,2.748,3.698
				c0.504,0.637,0.852,1.359,1.106,2.118c0.6-0.163,1.199-0.332,1.795-0.508c-0.388-1.212-1.033-2.334-1.862-3.295
				C620.191,345.451,619.036,344.558,619.01,343.25z"/>
		</g>
		<path style="fill:#F06B5A;" d="M639.35,404.732c-0.989-0.791-1.785,0.494-2.518,1.025c-0.602,0.457-1.224,0.877-1.863,1.28
			c-3.11,1.873-6.757,2.603-10.35,2.741c-9.117-0.01-15.209-4.71-21.448-10.763c-6.559-6.592-12.081-14.139-17.656-21.556
			c-4.854-6.494-9.726-12.987-14.931-19.205c2.625-6.453,6.469-12.278,10.371-18.013c0.422,0.204,0.841,0.411,1.247,0.637
			c2.087,1.018,4.066,2.23,6.038,3.45c4.641,2.869,9.16,5.951,13.6,9.118c3.375,2.579,6.432,5.509,9.499,8.438
			c0.005,0.006,0.012,0.012,0.016,0.017c2.234,2.163,4.388,4.422,6.482,6.732c2.003,2.275,4.049,4.528,6.474,6.363
			c1.185,0.959,2.496,1.819,3.991,2.194c1.297,0.544,5.786-0.066,4.676-2.178c-0.16-0.229-0.408-0.389-0.685-0.438
			c-0.51-0.082-0.887,0.25-1.384,0.376c-1.128,0.376-2.267-0.115-3.259-0.644c-2.778-1.755-5.105-4.133-7.295-6.56
			c-5.227-5.614-10.726-11.024-16.739-15.809c-3.817-2.822-7.81-5.398-11.709-8.107c-2.363-1.514-4.732-3.083-7.279-4.276
			c-1.625-0.961-3.567-1.884-4.615-2.361c-0.744-0.418-1.618-0.715-2.239-0.901c-2.023-0.655-4.035-1.329-6.102-1.839
			c-1.111-0.142-2.832-1.147-3.882-0.213c-1.403,1.882-1.852,4.338-2.64,6.522c-0.991,3.308-2.052,6.643-2.693,10.043
			c-0.858-3.942-2.048-7.769-3.252-11.639c-0.452-1.485-1.11-2.884-1.69-4.318c-0.211-0.846-0.969-1.53-1.878-1.36
			c-3.724,1.037-6.888,3.538-10.102,5.609c-5.976,4.393-11.296,9.732-15.848,15.581l0,0.002c-0.002,0.004-0.004,0.007-0.008,0.01
			c-6.328,8.427-11.659,17.548-14.627,27.75c-1.076,3.514-1.639,7.266-0.708,10.878c0.614,2.744,1.851,5.683,4.365,7.175
			c7.134,4.05,14.862-11.931,18.555-16.553c3.493-5.45,7.399-10.599,11.711-15.43c3.232-3.955,6.793-7.607,10.439-11.178
			c1.163-1.204,2.428-2.311,3.637-3.466c0.509,0.561,1.143,1.063,1.556,1.654c1.875,2.216,4.011,4.196,5.76,6.526
			c5.045,6.321,10.027,12.729,14.899,19.247c6.408,8.334,12.682,16.986,20.895,23.665c3.729,3.26,8.167,5.713,13.064,6.645
			c5.867,1.251,12.439,0.328,17.477-3.017c1.002-0.693,1.958-1.462,2.768-2.376C639.858,405.79,639.772,405.091,639.35,404.732z
			 M538.099,379.087c-2.456,3.608-5.048,7.122-7.424,10.785c-2.1,2.963-5.912,9.392-9.864,9.465
			c-3.355-0.627-4.265-4.753-4.791-7.649c-0.766-5.132,1.36-10.015,3.122-14.766c2.266-5.994,5.852-11.678,9.547-16.949
			c3.5-5.244,7.688-9.993,12.392-14.21c0.644-0.604,1.305-1.189,1.978-1.759c0.193,0.995,0.448,1.978,0.691,2.961
			c0.845,3.506,2.227,6.879,4.066,9.983c0.691,1.035,2.431,3.935,3.907,5.359C546.782,367.554,542.25,373.192,538.099,379.087z"/>
		<g>
			<path style="fill:#673632;" d="M497.514,220.011c-1.062-0.086-1.985,0.845-2.027,1.873c-0.044,1.096,0.814,1.941,1.873,2.027
				c1.06,0.086,1.985-0.845,2.027-1.873C499.431,220.941,498.573,220.096,497.514,220.011z M518.847,222.902
				c-1.139-0.092-2.133,0.906-2.175,2.013c-0.048,1.176,0.874,2.084,2.013,2.175c1.139,0.092,2.133-0.906,2.176-2.013
				C520.908,223.901,519.986,222.994,518.847,222.902z"/>
			<path style="fill:#673632;" d="M493.073,268.594c-1.265-0.317-1.395,1.357-1.775,2.183c-0.474,1.465-1.08,2.866-1.831,4.218
				c-3.426,5.472-8.8,10.588-15.388,11.721c-5.437,0.845-10.848-2.206-14.147-6.412c-2.25-2.851-3.264-6.392-4.206-9.847
				c0.016,0.003,0.032,0.004,0.047,0.007c6.824,0.341,15.415-7.172,16.64-13.781c0.642-8.537-7.866-9.733-13.938-6.206
				c-0.761-0.913-1.621-1.827-2.701-2.351c-2.447-1.045-5.719-0.828-7.219,1.633c-2.23,3.371-2.19,7.76-1.471,11.601
				c1.006,3.795,3.685,7.706,7.569,8.856c-0.087,1.03,0.361,2.813,0.45,3.4c1.241,7.752,7.389,14.121,15.207,15.282
				c9.348,1.208,18.508-6.754,22.051-14.898c0.563-1.365,0.954-2.802,1.316-4.231C493.829,269.29,493.557,268.742,493.073,268.594z"
				/>
			<path style="fill:#F06B5A;" d="M490.811,228.19c-2.303,0.424-5.134,1.05-6.358,3.254c-1.332,2.612,1.104,4.781,3.653,4.804
				c2.594,0.486,5.478-0.018,7.422-1.897C498.009,231.428,493.889,227.719,490.811,228.19z M533.366,236.512
				c-0.834-3.223-4.268-4.478-7.203-5.106c-3.948-0.95-10.91,0.641-13.624,3.746c-3.077,3.817,0.373,8.103,4.64,8.465
				c1.943,0.234,3.905,0.038,5.844-0.058c2.444,0.133,4.951-0.092,7.199-1.12C532.529,241.504,534.085,238.987,533.366,236.512z"/>
			<path style="fill:#673632;" d="M542.603,224.017c-6.817-12.898-25.165-14.148-33.607-2.198c-1.998,2.773-3.103,5.83-3.486,8.912
				c-0.299-0.232-0.617-0.436-0.956-0.57c-0.769-0.262-1.734-0.312-2.609-0.104c0.383-1.79,0.53-3.678,0.383-5.645
				c-1.128-15.154-18.468-23.548-30.956-14.75c-12.232,8.5-10.918,26.926,2.241,33.779c11.348,5.889,24.402-0.573,27.863-11.699
				c0.309-0.098,0.629-0.167,0.944-0.16c1.208-0.122,2.155,0.45,2.95,1.263c-0.136,9.398,6.464,18.496,16.771,20.014
				C538.115,255.286,550.195,238.313,542.603,224.017z M483.263,243.787c-12.921,0.497-22.059-12.415-17.356-24.474
				c5.332-13.686,24.239-15.353,31.991-2.886C505.13,228.049,496.977,243.307,483.263,243.787z M525.704,251.035
				c-13.82,0.554-23.042-14.165-16.499-26.398c7.02-12.949,25.928-12.431,32.078,1.082
				C546.57,237.189,538.362,250.6,525.704,251.035z"/>
		</g>
	</g>
	<g>
		<g>
			<path style="fill:#F06B5A;" d="M414.061,128.231c5.963,0.809,5.443,0.909,5.316,6.729c-0.086,8.716-1.513,17.09-2.242,25.728
				c-0.798,6.517-1.365,13.066-2.379,19.555c-1.196,6.376-2.443,12.731-3.605,19.111c-0.458,2.368-0.961,4.73-1.479,7.086
				c-0.055,0.372-0.174,0.731-0.367,1.055c-1.73,3.015-10.146,1.916-13.301,1.959c-5.494-0.139-10.996-0.132-16.476-0.638
				c-6.597-0.43-13.211-0.419-19.788-1.133c-5.077-0.333-10.13-0.898-15.146-1.766c-4.201-0.536-8.376-1.304-12.441-2.507
				c-1.864-0.615-3.947-0.743-5.658-1.736c-1.862,0.488-2.217-3.796-2.579-4.988c-0.43-2.003-0.713-4.029-0.971-6.061
				c-1.117-8.677-1.844-17.4-2.279-26.138c-0.194-11.088-1.107-22.437,1.369-33.327c0.925-1.805,3.357-1.483,5.056-1.917
				c2.195-0.351,4.405-0.611,6.612-0.891c4.455-0.601,8.93-1.032,13.421-1.258C369.421,126.599,391.865,125.467,414.061,128.231z"/>
			<path style="fill:#FFFFFF;" d="M346.016,165.507c-0.564,3.187-1.304,6.381-1.563,9.606c0,0.74,0.617,1.356,1.356,1.356
				c1.892-0.129,1.356-2.569,1.533-3.887c0.149-2.327,0.013-4.673,0.141-6.988C347.489,164.684,346.119,164.643,346.016,165.507z
				 M353.341,166.536c-0.788-0.628-1.292,0.312-1.294,1.034c-0.183,2.388-1.019,4.716-0.973,7.114
				c0.05,0.652,0.693,1.151,1.319,1.151c0.654,0,1.235-0.499,1.319-1.151c0.266-2.22,0.473-4.489,0.127-6.719
				C353.754,167.485,353.701,166.901,353.341,166.536z M345.547,150.624c1.548-0.101,1.188-2.097,1.342-3.188
				c0.065-1.76,0.243-3.552-0.059-5.296c-0.051-0.581-0.639-1.178-1.205-0.752c-0.409,0.365-0.426,0.978-0.506,1.486
				c-0.238,2.25-0.805,4.488-0.711,6.76C344.453,150.194,345.003,150.624,345.547,150.624z M354.715,141.258
				c-0.428-0.089-0.725,0.196-0.82,0.59c-0.14,1.038-0.179,2.091-0.407,3.12c-0.157,1.432-1.319,4.632-0.331,5.738
				c0.717,0.767,2.13,0.294,2.235-0.754c0.267-2.283,0.583-4.618,0.303-6.913C355.552,142.407,355.41,141.503,354.715,141.258z
				 M358.819,166.527c-0.474-0.203-1.007,0.29-0.869,0.794c0.079,0.964-0.145,1.938-0.303,2.89
				c-0.294,1.444-0.708,2.862-0.803,4.336c-0.045,0.759,0.667,1.394,1.394,1.394c0.652,0,1.333-0.52,1.379-1.205
				c0.098-2.35,0.489-4.765-0.048-7.084C359.458,167.213,359.278,166.705,358.819,166.527z M337.158,151.573
				c1.597-0.122,1.101-2.482,1.249-3.602c0.021-1.779,0.061-3.574-0.44-5.316c-0.101-0.478-0.653-0.829-1.043-0.422
				c-0.399,0.509-0.324,1.239-0.396,1.852c-0.048,2.086-0.596,4.437-0.424,6.569C336.199,151.173,336.614,151.573,337.158,151.573z
				 M360.31,141.842c-0.423,0.615-0.286,1.448-0.38,2.192c-0.089,1.64-0.433,3.448-0.522,5.132c0.018,1.496,2.252,1.498,2.286,0
				c0.036-2.341-0.041-4.705-0.612-6.985C361.135,141.763,360.578,141.518,360.31,141.842z M330.547,167.283
				c-0.503-0.623-1.002,0.12-1.035,0.661c-0.237,2.158-0.479,4.354-0.423,6.56c0.194,1.347,2.186,1.208,2.205-0.15
				c0-1.802-0.282-3.591-0.456-5.382C330.737,168.416,330.78,167.801,330.547,167.283z M331.697,141.837
				c0.012-0.912-0.77-1.673-1.672-1.673c-1.792,0.017-1.729,1.983-1.739,3.299c0.014,2.26-0.417,4.598,0.235,6.802
				c0.198,0.615,0.729,1.059,1.39,1.059C332.776,151.136,331.544,143.905,331.697,141.837z M336.99,165.993
				c-0.279,0.305-0.261,0.74-0.31,1.126c-0.089,1.084-0.145,2.171-0.24,3.254c-0.068,0.766-0.148,1.531-0.232,2.297
				c-0.033,1.1-0.574,2.481,0.219,3.409c0.74,0.799,2.245,0.31,2.34-0.788c0.096-2.421,0.093-4.882-0.276-7.282
				C338.347,167.286,338.135,165.226,336.99,165.993z M402.294,168.298c-0.611,1.609-1.207,3.225-1.73,4.865
				c-0.458,1.43-1.266,3.468,0.825,3.924c0.855,0.12,1.713-0.506,1.821-1.383c0.222-2.083,0.081-4.188,0.171-6.279
				c-0.052-0.501,0.319-1.008,0.179-1.402C403.225,167.36,402.448,167.675,402.294,168.298z M404.747,143.021
				c-1.135-0.661-1.135,1.435-1.267,2.11c-0.108,0.887-0.233,1.774-0.406,2.651c-0.082,1.262-1.612,4.107,0.379,4.512
				c1.534,0.152,1.428-1.705,1.513-2.762c0.157-1.974,0.171-3.896-0.014-5.876C404.931,143.43,404.911,143.192,404.747,143.021z
				 M394.986,142.646c-0.247,0.575-0.312,1.221-0.455,1.83c-0.329,1.463-0.707,2.92-0.992,4.393
				c-0.235,1.069-0.655,2.733,0.861,2.982c1.777,0.153,1.516-2.017,1.655-3.211c0.113-1.41,0.259-2.826,0.175-4.241
				C396.206,143.786,395.92,141.727,394.986,142.646z M374.835,141.979c-0.118-0.559-0.975-0.561-1.099-0.006
				c-0.269,1.179-0.285,2.422-0.505,3.617c-0.174,1.443-0.666,2.865-0.574,4.329c0.068,0.72,0.801,1.228,1.492,1.133
				c1.197-0.153,1.195-1.448,1.181-2.388C375.342,146.432,375.252,144.17,374.835,141.979z M409.365,167.721
				c-0.648-0.09-1.295,0.479-1.217,1.146c-0.133,0.571-0.327,1.125-0.493,1.687c-0.582,1.958-1.25,3.906-1.495,5.943
				c-0.125,0.887,0.52,1.734,1.408,1.855c0.858,0.118,1.773-0.513,1.855-1.408c0.121-1.312,0.201-2.625,0.33-3.937
				c0.12-1.253,0.219-2.52,0.437-3.76C410.501,168.614,410.074,167.817,409.365,167.721z M411.625,148.149
				c-0.015-0.765,0.021-5.326-1.46-4.183c0.001,0,0.002,0,0.003,0c-0.321,0.635-0.299,1.389-0.431,2.082
				c-0.286,2.129-0.838,4.226-0.909,6.38c-0.059,1.203,1.567,1.855,2.375,0.985c0.266-0.267,0.394-0.613,0.406-0.985
				C411.681,151.001,411.644,149.576,411.625,148.149z M394.416,168.061c-0.396-0.049-0.658,0.299-0.701,0.656
				c-0.356,2.366-1.252,4.652-1.396,7.043c0.02,1.676,2.472,1.84,2.718,0.185C395.122,174.587,395.985,168.331,394.416,168.061z
				 M389.118,142.182c-0.649,0.859-0.503,2.097-0.792,3.107c-0.185,0.88-0.396,1.754-0.627,2.624
				c-0.34,1.411-1.414,3.973,0.711,4.409c1.571,0.155,1.831-1.39,1.85-2.613c0.091-1.868,0.163-3.746-0.02-5.61
				C390.111,143.473,390.199,141.58,389.118,142.182z M380.877,166.715c-0.097-0.373-0.685-0.372-0.779,0.003
				c-0.171,1.437-0.18,2.908-0.493,4.335c-0.178,1.032-0.598,2.024-0.629,3.075c0.004,0.686,0.568,1.258,1.258,1.258
				c1.643-0.062,1.241-2.05,1.271-3.179C381.488,170.365,381.305,168.506,380.877,166.715z M381.123,142.385
				c-0.503,0.348-0.547,1.086-0.665,1.639c-0.326,2.107-0.845,4.188-1.026,6.314c-0.063,1.223,1.598,1.889,2.418,1.001
				c0.275-0.274,0.394-0.62,0.415-1.001c0.047-1.369-0.031-2.743-0.087-4.111C382.034,145.561,382.169,141.988,381.123,142.385z
				 M387.836,167.885c0.005-0.207-0.091-0.414-0.297-0.536c-0.323-0.189-0.686-0.041-0.844,0.249
				c-0.54,1.207-0.709,2.586-1.008,3.877c-0.254,1.427-0.612,2.865-0.618,4.32c0.038,1.667,2.453,1.833,2.702,0.185
				c0.213-2.091,0.317-4.199,0.233-6.3C387.965,169.079,387.925,168.479,387.836,167.885z"/>
			<path style="fill:#673632;" d="M409.307,106.568c0.729,2.39,1.967,4.801,1.798,7.349c-0.706,4.514-5.838,6.129-9.495,7.722
				c-7.037,2.819-14.316,4.968-21.408,7.633c3.427,2.482,6.843,5.027,9.934,7.918c1.203,1.315,5.132,4.27,4.28,6.168
				c-0.241,0.524-0.691,0.854-1.13,1.205c-1.381,1.157-2.814,2.251-4.22,3.375c-2.133,1.725-4.22,3.516-6.177,5.441
				c-1.264,1.436-2.96,1.928-3.947-0.093c-1.233-2.777-2.386-5.594-3.659-8.356c-0.369,4.006-0.879,8.037-1.053,11.983
				c-0.879,11.78-1.092,23.643-1.827,35.417c-0.26,3.867-0.613,7.722-0.918,11.587c-0.401,2.582,0.609,6.555-3.356,6.114
				c-2.693-0.069-5.364-0.413-8.026-0.804c-2.319-0.248-3.468-0.524-2.987-3.181c0.413-4.252,0.829-8.497,1.559-12.71
				c0.768-5.457,1.324-10.939,1.962-16.41c0.695-5.699,1.488-11.391,2.042-17.106c0.458-7.333,1.321-14.622,2.22-21.909
				c-0.027,0.025-0.052,0.052-0.077,0.077c-2.757,2.816-5.681,5.462-8.476,8.235c-1.582,1.335-3.227,4.036-5.612,3.058
				c-2.365-1.289-4.683-2.766-6.667-4.598c-2.09-2.124-0.618-3.457,1.272-4.86c2.616-2.099,5.291-4.177,8.064-6.057
				c2.465-1.525,4.936-3.286,7.531-4.674c-3.974-1.479-7.841-3.308-11.746-4.942c-5.165-2.343-10.609-4.07-15.665-6.644
				c-4.676-3.076-1.962-9.466-0.212-13.542c3.461-7.087,8.969-15.25,16.297-18.664c4.842-2.5,9.303,2.124,11.764,5.897
				c2.689,3.912,4.555,8.312,5.815,12.861c1.695,5.327,3.058,10.766,3.954,16.283c2.447-8.071,4.614-16.365,8.953-23.679
				c2.03-3.418,4.498-6.635,7.565-9.185c2.572-2.204,5.377-2.842,8.303-0.848C402.396,91.518,406.682,99.037,409.307,106.568z
				 M396.493,114.782c-1.146-3.994-2.484-7.807-4.685-11.3c-0.33-0.396-0.652-1.064-1.215-1.096
				c-0.982,0.667-1.741,1.616-2.55,2.475c-2.605,2.914-4.678,5.956-6.818,9.099c-3.222,4.286-6.127,8.805-9.545,12.943
				c-0.037,0.146-0.077,0.292-0.116,0.438c0.121,0.221,0.228,0.449,0.316,0.684c4.368-2.055,8.561-4.38,12.852-6.564
				C388.718,119.387,393.057,117.744,396.493,114.782z M367.72,127.937c0.331,0.183,0.665,0.371,0.996,0.558
				c-4.368-5.583-8.433-11.386-12.607-17.113c-1.891-2.659-3.525-5.51-5.706-7.95c-2.629,2.433-4.769,5.521-6.877,8.417
				c3.058,2.832,6.69,4.954,10.313,6.973C358.736,121.449,362.91,125.184,367.72,127.937z"/>
		</g>
		<g>
			<path style="fill:#FDC5AE;" d="M346.017,205.82c0.862,0.253,1.244,1.178,0.986,2.005c-0.367,1.49-3.939,7.041-5.598,6.656
				c-4.261-0.627-8.298-2.144-12.282-3.728c-2.094-0.904-4.298-1.534-6.344-2.543c-0.545-0.282-1.231-0.449-1.579-0.991
				c-0.266-0.497-0.176-1.076-0.155-1.618c-0.241-2.452-0.251-4.92,0.159-7.355c0.745-5.018,1.869-10.504,5.77-14.056
				c1.313-1.18,3.509-1.076,4.582,0.374c2.803,4.022-0.271,11.953-1.401,16.352c4.179,1.164,8.426,2.119,12.526,3.55
				C343.809,204.867,344.953,205.263,346.017,205.82z"/>
			<path style="fill:#F06B5A;" d="M310.776,386.504c-1.403-4.794-2.818-9.588-4.143-14.405c-2.032-7.002-4.437-13.884-6.626-20.838
				c-2.199-6.975-4.774-13.818-7.383-20.649c-1.668-4.635-3.612-9.171-5.868-13.553c-1.559-2.686-2.841-6.113-5.829-7.481
				c-1.598-0.574-3.272-0.893-4.929-1.235c-12.48-2.561-25.293-1.843-37.952-1.741c-17.76,0.57-35.368,3.015-52.969,5.288
				c-12.329,1.841-24.924,2.618-36.875,6.362c-3.523,1.108-7.02,2.302-10.457,3.648c-1.777,0.793-3.758,1.317-5.229,2.641
				c-4.375,5.042-7.905,10.771-11.423,16.426c-9.358,15.093-17.329,31.019-23.848,47.534c-7.365,18.741-13.334,38.043-18.612,57.464
				c-1.431,4.541-2.976,9.048-4.134,13.672c-1.333,4.879-2.712,9.793-3.103,14.854c-0.159,1.502-0.162,3.429,1.365,4.215
				c0.88,0.499,1.932,0.615,2.91,0.795c2.281,0.419,4.584,0.716,6.886,1c4.972,0.649,9.976,0.937,14.984,1.16
				c23.44,1.403,46.889,2.76,70.379,2.914c26.38,0.542,52.759-0.175,79.111-1.419c20.822-0.683,41.685-0.952,62.434-3.006
				c1.882-0.218,3.775-0.512,5.582-1.1c1.003-0.328,1.998-0.905,2.427-1.919c0.25-0.592,0.269-1.265,0.312-1.898
				c0.404-6.833,0.461-13.678,0.444-20.519c0.046-10.197-0.1-20.412-1.264-30.556C315.805,411.482,314.214,398.79,310.776,386.504z
				 M338.571,211.748c-1.684-0.855-3.489-1.417-5.23-2.137c-2.987-1.212-5.92-2.582-9.035-3.439
				c-3.238-1.055-3.179-0.048-4.614,2.402c-2.067,3.099-4.06,6.246-6.141,9.335c-0.016,0.027-0.034,0.052-0.052,0.079
				c-5.553,8.549-12.731,15.843-19.826,23.101c-6.029,5.799-12.06,11.671-19.013,16.376c-0.396-0.053-0.806,0.041-1.148,0.305
				c-0.296,0.228-0.499,0.568-0.576,0.934c-0.232,0.216-0.677,0.497-0.527,0.871c0.093,0.294,0.415,0.239,0.663,0.141
				c5.612,7.038,9.401,15.454,12.956,23.691c1.654,3.864,3.521,7.635,5.013,11.564c0.543,1.54,0.938,3.121,1.269,4.717
				c0.249,1.294,0.659,3.017,2.222,3.192c1.187,0.143,2.064-0.843,2.935-1.511c0.797-0.65,1.586-1.306,2.375-1.964
				c4.945-4.202,9.846-8.518,13.945-13.576c5.519-6.499,9.937-13.833,13.875-21.373c6.009-11.27,10.698-23.271,12.763-35.915
				c0.711-3.807,1.818-7.725,2.139-11.766C343.023,213.473,340.968,213.072,338.571,211.748z"/>
		</g>
		<g>
			<path style="fill:#FDC5AE;" d="M232.989,235.216c0.914,2.22,0.64,4.575-0.144,6.792c-7.21,20.245-33.067,30.848-51.661,38.251
				c-11.701,4.471-24.167,8.173-36.82,6.813c-5.503-0.134-10.472-3.864-12.108-9.128c-4.052,2.442-9.659,3.407-13.982,1.133
				c-5.516-3.074-9.008-10.812-5.443-16.531c2.855-4.115,8.394-6.784,13.398-6.319c0.086-5.279-1.322-10.611-0.442-15.875
				c0.599-1.597,2.165-2.602,3.304-3.803c4.669-4.295,9.745-8.123,14.669-12.117c11.493-8.809,22.973-17.853,36.214-23.861
				c6.842-2.81,13.795-5.97,21.223-6.724c1.7-3.019,9.057,5.831,10.7,7.157c6.081,6.783,11.498,14.155,15.711,22.246
				C229.888,227.158,231.69,230.943,232.989,235.216z"/>
			<path style="fill:#A1CAC4;" d="M168.147,261.579c-5.824,0.528-11.831,3.003-15.663,7.537c-2.502,2.944-3.505,7.335-1.279,10.719
				c1.37,2.235,4.15,2.907,6.615,2.885c1.583,0.036,3.17-0.091,4.721-0.403c3.099-0.114,6.168-0.846,8.991-2.126
				c2.418-0.936,4.52-2.515,6.109-4.562c3.055-3.57,2.598-7.522-0.355-10.978C174.916,262.359,171.401,261.335,168.147,261.579z
				 M233.937,239.094c-0.347-2.705-2.263-5.109-4.874-5.949c-3.746-1.267-7.49,1.26-9.937,3.928
				c-1.533,1.832-2.659,4.072-2.981,6.451c-0.054,2.431,0.51,5.401,2.375,7.1c0.914,0.745,2.044,1.281,3.206,1.492
				C228.755,253.399,235.09,245.841,233.937,239.094z"/>
			<path style="fill:#FFFFFF;" d="M345.049,359.559c-0.062,14.925-11.682,30.934-23.326,39.525
				c-16.126,12.252-35.911,18.384-55.692,21.546c-13.877,2.149-27.913,3.903-41.981,3.418c-11.446-0.522-23.068-1.133-34.045-4.696
				c-12.37-4.104-23.588-11.167-34.134-18.623c-3.728-2.668-7.301-5.569-10.588-8.768c-5.008-5.056-9.146-10.898-12.728-17.028
				c-3.673-6.018-7.066-12.259-9.121-19.033c-4.115-12.938-5.804-26.76-3.641-40.226c0.986-8.442,3.001-16.768,6.139-24.65
				c0.339-1.073,0.718-2.131,1.141-3.176c0.857-1.996,3.017-8.843,5.018-10.281c0.203-1.235,3.58-0.932,4.471-0.982
				c2.741,0.007,5.473-0.207,8.21-0.294c9.677-0.034,19.516-2.338,28.556-5.398c9.124-3.222,18.017-7.084,26.721-11.306
				c8.055-4.156,15.326-9.447,21.854-15.666c2.734-2.657,5.132-5.525,7.045-8.811c0.479-0.759,0.943-1.531,1.362-2.327
				c0.258-0.531,0.574-1.039,1.16-1.265c0.608-0.237,1.24-0.299,1.887-0.317c7.791-0.331,15.18,2.36,22.346,5.091
				c5.639,2.06,10.86,5.111,15.731,8.597c3.607,2.596,7.148,5.312,10.422,8.322c3.06,2.923,5.567,6.364,7.959,9.837
				c9.352,13.818,14.128,31.616,15.422,48.138c0.781,8.212,0.394,16.463,0.435,24.696c0.014,4.468,1.632,9.673,6.287,11.208
				c3.94,1.337,8.499,0.654,11.603-2.206c1.591-1.431,3.277-3.434,3.067-5.701c-0.237-0.961-0.693-1.85-1.24-2.668
				c-0.691-0.955-1.88-2.204-0.914-3.391c1.401-1.748,6.861,0.346,8.515,1.256C341.455,339.535,344.939,350.071,345.049,359.559z"/>
			<path style="fill:#673632;" d="M169.29,235.719c-1.41,0-2.586,1.176-2.586,2.586c0,1.41,1.176,2.586,2.586,2.586
				s2.586-1.176,2.586-2.586C171.876,236.896,170.7,235.719,169.29,235.719z M195.463,222.927c-1.29,0-2.367,1.076-2.367,2.367
				c0,1.29,1.076,2.367,2.367,2.367c1.29,0,2.367-1.076,2.367-2.367C197.829,224.003,196.753,222.927,195.463,222.927z"/>
			<path style="fill:#F06B5A;" d="M205.001,242.27c-6.601,0.72-13.549,3.131-17.982,8.29c-6.13,7.029-5.334,16.802,5.525,17.016
				c3.532,0.004,6.813-1.057,10.001-2.491c1.766-0.693,3.527-1.401,5.207-2.281c2.67-1.452,5.378-3.113,7.137-5.656
				C221.061,247.865,215.287,241.375,205.001,242.27z M207.911,273.533c-0.394,0.02-0.708,0.308-1.077,0.419
				c-1.369,0.517-2.862,0.617-4.302,0.818c-2.669,0.221-5.377,0.046-7.921-0.827c-0.358,0-0.629,0.305-0.695,0.638
				c-1.406,3.684-0.927,8.839,3.618,9.816c3.905,0.806,8.444-0.905,10.347-4.523c0.697-1.189,0.977-2.57,0.991-3.938
				C208.858,275.176,209.029,273.599,207.911,273.533z M125.297,267.331c-1.508-0.101-3.309-0.025-4.471,1.053
				c-0.324,0.316-0.502,1.024,0.068,1.176c0.813-0.033,1.774-0.34,2.809-0.331c1.556-0.193,3.068,0.303,4.345,1.173
				c0.406,0.211,0.925,0.105,1.189-0.273C130.183,268.43,126.477,267.458,125.297,267.331z"/>
			<path style="fill:#FFFFFF;" d="M168.105,224.323c-4.497,0.192-9.256,2.465-11.341,6.606c-0.625,1.439-1.176,3.606,0.285,4.719
				c1.786,1.109,3.82-1.507,5.331-2.318c1.963-1.252,3.818-2.723,5.976-3.635c0.809-0.33,1.388-0.339,2.258-0.868
				c0.816-0.504,1.212-1.547,1.028-2.47C171.344,224.714,169.565,224.207,168.105,224.323z M187.553,212.76
				c-1.577,1.141-5.023,4.673-3.739,6.719c1.077,1.33,2.829,0.26,4.095-0.18c0.97-0.392,1.951-0.791,2.956-1.085
				c2.46-0.331,6.334-0.139,6.628-3.445C197.394,209.886,190.325,210.509,187.553,212.76z"/>
			<path style="fill:#FFFFFF;" d="M126.994,255.419c-2.257-0.998-1.99-3.829-2.028-5.886c0.284-2.303,2.07-3.912,3.651-5.437
				c2.448-2.158,9.812-9.916,12.678-9.787c1.301-0.712,3.121-0.058,2.84,1.615c-0.533,1.546-1.711,2.797-2.723,4.053
				c-1.409,1.721-3.106,3.599-4.404,5.221c-1.494,2.047-2.819,4.217-4.432,6.179C131.13,253.032,129.633,256.189,126.994,255.419z"
				/>
		</g>
		<g>
			<path style="fill:#F06B5A;" d="M210.563,197.142c0.846,2.115,1.055,3.511-1.556,4.222c-13.539,6.229-26.648,13.295-39.818,20.248
				c-9.917,5.567-20.034,11.056-29.358,17.566c-3.83,2.55-7.301,5.555-10.869,8.447c-1.214,0.681-2.559,2.728-4.042,1.971
				c-0.754-0.28-0.971-1.219-1.324-1.828c-0.969-1.948-1.905-3.994-2.816-5.926c-2.718-5.544-6.163-10.678-9.344-15.959
				c-5.626-9.279-13.204-17.185-19.264-26.176c-8.768-11.464-17.971-23.048-29.61-31.721c-4.653-3.26-10.383-4.265-15.31-6.929
				c-12.354-9.151,12.482-19.968,19.903-21.56c13.182-3.951,27.036-4.614,40.708-3.908c13.482,0.44,26.874,2.944,39.507,7.702
				c9.598,2.994,18.131,8.387,26.361,14.041c10.119,6.596,19.088,14.961,27.04,24.003
				C204.875,186.016,208.382,191.286,210.563,197.142z"/>
			<path style="fill:#FFFFFF;" d="M103.757,148.781c4.451-2.763,6.858-7.976,6.683-13.058c-0.702-0.037-1.403-0.084-2.106-0.109
				c0.284,4.126-1.509,8.259-5.194,10.98c-1.767-4.469-7.307-5.844-9.452-0.944c-0.968,2.456,1.066,4.869,3.55,5.022
				c1.479,0.165,2.968-0.183,4.336-0.732c0.689,6.587-4.114,12.133-9.5,15.244c-0.483-2.351-2.443-4.355-4.771-4.917
				c-2.1-0.289-4.41,0.807-5.498,2.63c-2.547,5.296,4.178,7.576,8.232,5.802c-0.822,6.368-5.825,11.447-11.535,14.166
				c0.372,0.415,0.738,0.836,1.106,1.255c6.729-2.88,12.475-9.358,12.762-16.47C99.224,164.053,105.083,156.924,103.757,148.781z
				 M97.954,148.604c-5.799-0.387,0.556-7.772,3.173-0.805C100.135,148.268,99.056,148.582,97.954,148.604z M86.723,167.024
				c-1.252-0.096-2.99-0.47-3.214-1.936c-0.039-1.721,1.99-2.824,3.531-2.574c1.614,0.576,2.745,2.06,2.972,3.745
				C88.974,166.712,87.864,167.034,86.723,167.024z M196.855,177.048c-3.858,2.754-8.802,4.02-13.517,3.554
				c0.605-3.799-2.353-10.418-7.011-8.382c-2.249,1.132-2.333,4.235-0.939,6.079c1.33,1.927,3.437,3.186,5.671,3.789
				c-2.241,5.461-9.559,8.715-15.22,8.417c0.072-2.969-0.586-6.15-2.508-8.487c-2.168-2.52-6.211-2.361-8.176,0.321
				c-3.869,5.278,3.816,9.523,8.375,9.858c-0.916,4.158-3.952,7.661-7.708,9.572c-2.373,1.214-4.984,1.967-7.643,2.175
				c0.056-3.022-0.28-6.697-2.857-8.672c-2.697-1.99-6.39-0.249-7.916,2.394c-1.374,2.178-0.169,5.024,1.857,6.332
				c1.976,1.334,4.409,1.881,6.762,2.009c-1.435,7.667-11.349,12.69-18.584,12.895c0.391-2.658,0.148-5.874-1.854-7.857
				c-1.932-2.001-5.835-2.66-7.601-0.128c-1.367,2.15-0.538,5.079,1.082,6.863c1.59,1.718,3.893,2.615,6.173,2.94
				c-1.454,5.009-5.512,8.764-10.042,11.272c0.335,0.543,0.668,1.086,0.999,1.631c5.036-2.804,9.476-7.117,10.858-12.758
				c8.507,0.051,19.524-5.79,20.901-14.841c8.033-0.244,16.105-5.412,17.632-13.661c6.792,0.429,14.806-3.261,17.25-9.927
				c5.312,0.687,11.082-0.678,15.398-3.91C197.779,178.028,197.317,177.538,196.855,177.048z M125.662,218.818
				c-1.887-0.215-3.866-0.862-5.217-2.256c-1.117-1.233-1.934-3.301-0.942-4.822c1.409-1.592,3.949-0.619,5.149,0.768
				C125.961,214.268,126.046,216.727,125.662,218.818z M146.277,203.985c-0.359-0.015-0.717-0.033-1.076-0.066
				C129.661,202.066,147.021,187.46,146.277,203.985z M156.825,187.269c-4.124-4.562,6.976-10.172,6.982,3.097
				C161.232,190.094,158.658,189.151,156.825,187.269z M181.612,180.311c-2.127-0.505-4.297-1.758-5.212-3.826
				c-0.449-1.023-0.24-2.452,0.891-2.915C180.316,172.699,182.031,178.004,181.612,180.311z M130.541,172.534
				c7.456-1.221,16.103-7.06,14.747-15.584c4.992-1.633,9.621-4.964,12.317-9.465c-0.636-0.319-1.284-0.615-1.929-0.917
				c-0.403,0.682-0.848,1.336-1.358,1.939c-2.566,2.903-5.896,5.074-9.557,6.372c-0.895-2.35-2.327-4.854-4.745-5.868
				c-2.173-0.972-5.091,0.24-5.886,2.495c-1.048,2.87,1.562,5.439,4.217,6.013c1.635,0.394,3.342,0.279,4.976-0.053
				c0.953,7.175-6.778,11.801-12.932,12.947c-0.362-2.421-1.064-5.05-3.102-6.601c-1.873-1.515-4.996-1.644-6.499,0.449
				c-1.091,1.438-1.108,3.547-0.255,5.102c1.612,2.71,5.068,3.631,8.049,3.405c0.046,7.692-7.119,13.382-14.151,14.836
				c0.128-1.557-0.093-3.16-0.682-4.612c-1.254-3.41-5.234-5.201-8.109-2.324c-1.708,1.536-1.81,4.158-0.718,6.082
				c1.395,2.41,4.369,3.378,7.029,3.281c-1.654,6.77-8.836,13.634-16.14,14.737c0.291,0.387,0.577,0.777,0.871,1.162
				c3.271-0.437,6.41-1.72,9.015-3.787c4.075-3.017,7.259-7.282,8.361-12.284C122.497,188.661,130.822,181.551,130.541,172.534z
				 M142.661,155.433c-0.309,0.064-0.617,0.109-0.929,0.157c-1.826,0.218-3.88-0.008-5.192-1.43
				c-1.543-1.639,0.488-3.933,2.405-3.35c1.979,0.698,3.049,2.778,3.831,4.598C142.737,155.417,142.699,155.425,142.661,155.433z
				 M122.511,165.4c1.07-1.334,3.104-0.668,4.099,0.427c1.203,1.311,1.576,3.131,1.837,4.838
				C125.51,171.102,120.346,169.023,122.511,165.4z M112.373,187.827c-1.803,0.153-3.787-0.209-5.105-1.533
				c-1.096-1.164-1.32-3.213-0.025-4.316C110.679,179.216,112.968,185.042,112.373,187.827z"/>
			<path style="fill:#FFFFFF;" d="M65.149,145.282c1.194,3.318,1.513,6.9,1.351,10.408c-0.105,3.37-1.415,6.597-3.34,9.333
				c-5.279,7.335-15.568,11.263-24.425,10.085c-5.28-0.813-11.209-4.911-13.196-9.955c-2.903-7.594-0.661-16.707,4.471-22.829
				c4.368-4.988,10.605-8.15,17.204-8.761c3.329-0.387,6.927-0.412,9.999,1.094C61.216,136.855,63.597,141.132,65.149,145.282z"/>
		</g>
		<g>
			<g>
				<path style="fill:#F06B5A;" d="M201.278,369.079c1.128,1.721-0.918,3.197-2.174,4.099c-1.748,1.174-3.431,2.356-5.22,3.443
					c-8.563,4.721-18.338,7.004-28.041,7.711c-5.346,0.367-10.723,0.613-16.055-0.071c-8.272-0.754-15.695-3.644-22.399-8.524
					c-7.524-5.389-14.962-12.582-18.37-21.341c-2.912-7.54-3.805-16.752,0.633-23.878c2.766-4.413,7.998-8.112,13.325-8.144
					c7.182,0.44,14.116,8.925,18.728,13.897c3.172,3.377,6.453,6.564,10.27,9.169c8.191,5.428,18.792,6.391,28.259,4.569
					c3.516-0.711,6.941-1.823,10.365-2.878c1.493-0.406,3.327-1.274,4.218,0.581c0.841,0.408,0.756,1.515,0.936,2.301
					c0.155,0.95,0.356,1.893,0.524,2.712C197.657,358.253,199.562,363.643,201.278,369.079z"/>
			</g>
			<path style="fill:#FDC5AE;" d="M222.628,341.852c-3.956-2.156-10.933,4.012-14.48,5.861c0.421-1.677,0.843-3.459,0.467-5.184
				c-0.278-1.556-1.44-2.805-3.081-2.098c-1.021,0.378-1.795,1.196-2.499,1.994c-1.358,1.599-2.643,3.267-4.254,4.626
				c-1.019,0.794-2.001,1.771-3.115,2.458c0.024,0.174,0.049,0.345,0.085,0.502c0.155,0.95,0.356,1.893,0.524,2.712
				c1.381,5.528,3.286,10.919,5.002,16.354c0.018,0.028,0.029,0.056,0.046,0.084c0.533,0.044,1.092-0.031,1.611-0.084
				c1.03-0.118,2.06-0.219,3.085-0.394c7.52-1.206,15.292-5.665,17.826-13.207C225.155,352.138,226.183,344.013,222.628,341.852z"/>
		</g>
	</g>
	<g>
		<defs>
			<rect id="SVGID_1_" width="750" height="500"/>
		</defs>
		<clipPath id="SVGID_00000114757888089632655070000006123512808092779404_">
			<use xlink:href="#SVGID_1_"  style="overflow:visible;"/>
		</clipPath>
		<g style="clip-path:url(#SVGID_00000114757888089632655070000006123512808092779404_);">
			<path style="fill:#673632;" d="M790.712,460.305c3.972,9.245,2.91,19.564,1.656,29.278c-0.369,3.083-0.752,6.164-1.059,9.253
				c-0.372,3.543-0.168,6.888-3.603,9.009c-4.001,2.595-8.87,3.315-13.478,4.156c-7.654,1.189-15.378,1.821-23.089,2.52
				c-45.518,4.143-91.27,4.176-136.872,7.075c-46.292,1.911-92.152,5.992-138.264,8.524c-63.491,3.536-127.076,4.594-190.642,5.822
				c-45.543,0.871-91.097,1.91-136.65,1.376c-28.353-0.208-56.651-1.919-84.906-4.161c-17.422-1.183-34.885-1.187-52.322-0.408
				c-14.791,0.487-29.647,0.966-44.397-0.488c-9.249-0.95-14.813-2.106-19.225-12.576c-4.158-10.215-3.106-21.524-3.48-32.32
				c-0.045-3.083-0.121-6.171-0.053-9.255c-0.26-5.819,4.306-8.244,9.44-9.016c6.927-0.88,13.916-0.789,20.883-1.098
				c14.399-1.262,29.214-2.194,43.579-2.946c7.554-0.536,15.098-1.304,22.659-1.77c10.981-0.554,21.991-0.551,32.983-0.43
				c16.101,0.376,32.176-0.526,48.259-1.114c24.673-0.49,49.353-0.602,74.027-1.21c29.558-0.469,59.125-0.029,88.683-0.326
				c17.536-0.21,35.061-0.918,52.572-1.884c25.432-1.26,50.9-1.506,76.334-2.748c12.911-0.599,25.814-1.504,38.745-1.636
				c12.824-0.119,25.653,0.098,38.479-0.075c41.674-0.936,83.358-1.916,125.007-3.685c24.229-1.296,48.47-2.009,72.733-2.24
				c15.809-0.565,31.629-0.417,47.438,0.117c15.148,0.385,30.349,0.401,45.406,2.313c1.953,0.166,4.003,0.854,5.136,2.57
				C788.297,455.222,789.543,457.767,790.712,460.305z"/>
		</g>
	</g>
	<g>
		<defs>
			<rect id="SVGID_00000060019614334028549570000000390171646346673820_" width="750" height="500"/>
		</defs>
		<clipPath id="SVGID_00000080207633182220954830000004663894531065083065_">
			<use xlink:href="#SVGID_00000060019614334028549570000000390171646346673820_"  style="overflow:visible;"/>
		</clipPath>
		<g style="clip-path:url(#SVGID_00000080207633182220954830000004663894531065083065_);">
			<path style="fill:#FDC5AE;" d="M162.322,77.179c-15.471-5.562-27.223,18.843-10.35,24.999c6.045,1.341,13.293-1.591,16.547-6.928
				C172.325,89.073,168.987,79.826,162.322,77.179z M133.863,99.969c-1.2,0.165-2.243,0.95-3.363,1.394
				c-1.558,0.91-5.273,1.508-4.065,4.028c0.481,0.826,1.577,1.103,2.388,0.625c1.696-1.019,3.212-2.343,4.642-3.705
				c0.401-0.437,0.917-0.835,1.1-1.419C134.692,100.42,134.338,99.988,133.863,99.969z M143.474,110.152
				c-0.576,0.33-0.848,0.988-1.171,1.538c-0.548,1.025-1.087,2.053-1.636,3.078c-0.663,1.142-1.635,3.069,0.025,3.824
				c2.28,0.767,2.744-2.645,3.475-4.104c0.395-1.242,1.204-2.717,0.599-3.997C144.472,110.054,143.946,109.892,143.474,110.152z
				 M164.92,115.634c-0.586-0.95-1.049-2.205-2.121-2.697c-1.248-0.325-1.031,1.32-0.923,2.083c0.236,1.788,0.466,3.603,1.103,5.3
				c0.885,2.045,3.963,0.97,3.413-1.185C166.089,117.906,165.52,116.743,164.92,115.634z M185.886,105.641
				c-1.073-1.16-2.612-1.691-4.069-2.199c-0.974-0.329-1.962-0.7-3.005-0.679c-0.328,0.003-0.625,0.089-0.813,0.376
				c-0.344,0.648,0.45,1.137,0.825,1.557c1.602,1.39,3.074,3.084,5.088,3.874C185.718,109.3,187.258,107.049,185.886,105.641z"/>
			<path style="fill:#FFFFFF;" d="M166.731,49.04c-3.136-0.996-6.455-1.187-9.742-0.866c0.032-1.497-0.149-3.123-0.072-3.898
				c-0.012-4.046-0.149-8.092-0.157-12.14c0.073-8.157-0.124-16.323,0.402-24.469c0.59-7.17,0.995-14.551,1.058-21.791
				c0.024-1.447,0.018-2.894-0.002-4.341c0.062-1.199-0.069-2.903-1.624-2.926c-0.732,0-1.479,0.581-1.538,1.342
				c-0.012,4.706-0.203,9.407-0.401,14.111c-0.18,7.012-0.956,13.719-0.977,20.861c-0.042,6.255,0.13,12.51,0.16,18.766
				c0.068,4.016,0.178,8.036,0.075,12.054c0.051,0.701-0.054,1.822-0.005,2.881c-1.772,0.342-3.517,0.801-5.193,1.368
				c-9.298,3.066-15.935,11.787-17.539,21.305c-0.577,2.654-0.739,5.363-0.896,8.068c-0.095,2.099-0.214,4.288,0.422,6.319
				c0.753,2.374,3.571,2.445,5.644,2.677c2.63,0.207,5.28,0.183,7.918,0.219c8.186,0.327,16.335-0.594,24.507-0.72
				c2.896-0.01,5.796,0.229,8.689,0.036c2.405-0.125,4.875-0.373,4.812-3.39C183.354,71.762,180.264,54.008,166.731,49.04z
				 M132.972,85.22c-0.805-3.496-0.135-7.158,0.118-10.692c0.443-5.383,2.912-10.503,6.405-14.578
				c3.407-4.013,8.206-6.539,13.321-7.604c0.158-0.029,0.318-0.054,0.476-0.082c-3.187,3.217-5.655,7.122-7.572,11.206
				c-2.721,6.288-3.761,13.26-2.981,20.067c0.067,0.627,0.126,1.26,0.213,1.887c-0.276-0.003-0.552,0.005-0.828,0
				C139.081,85.342,135.989,85.574,132.972,85.22z M144.56,85.422c0.019-1.077-0.04-2.179,0.02-2.55
				c0.028-1.732,0.058-3.461,0.161-5.189c0.29-3.971,1.062-7.925,2.345-11.698c1.885-5.011,5.05-9.826,8.799-13.72
				c1.145,3.954,1.077,7.918,1.304,12.061c0.126,3.42,0.269,6.838,0.326,10.258c0.04,2.493,0.107,4.983,0.069,7.476
				c-0.013,0.849-0.064,1.701-0.019,2.55c-0.001,0.172,0.05,0.323,0.121,0.46C153.315,85.302,148.94,85.433,144.56,85.422z
				 M166.918,84.47c-2.45,0.19-4.901,0.354-7.353,0.499c0.026-0.071,0.055-0.142,0.07-0.219c0.268-1.506,0.193-3.049,0.232-4.573
				c0.02-3.372,0.021-6.747-0.103-10.117c-0.354-6.006-0.125-12.179-1.807-18.004c-0.04-0.118-0.088-0.241-0.14-0.364
				c0.121-0.008,0.242-0.013,0.363-0.018c0.233,0.23,0.453,0.479,0.677,0.693c5.249,6.308,8.669,14.092,9.518,22.344
				c0.281,2.688,0.493,5.398,0.335,8.101c-0.046,0.503-0.151,1.088-0.127,1.612C168.027,84.425,167.472,84.438,166.918,84.47z
				 M179.127,84.415c-2.604,0.344-5.226,0.171-7.848,0.066c0.1-0.42,0.141-0.873,0.173-1.261c0.285-2.479,0.272-4.986,0.089-7.474
				c-0.469-7.262-2.754-14.495-7.316-20.239c-1.071-1.36-2.229-2.733-3.586-3.835c1.45,0.083,2.885,0.316,4.276,0.78
				C176.533,56.551,179.538,73.566,179.127,84.415z"/>
		</g>
		<g style="clip-path:url(#SVGID_00000080207633182220954830000004663894531065083065_);">
			<path style="fill:#FDC5AE;" d="M599.712,77.179c-15.471-5.562-27.223,18.843-10.35,24.999c6.045,1.341,13.293-1.591,16.547-6.928
				C609.714,89.073,606.376,79.826,599.712,77.179z M571.253,99.969c-1.2,0.165-2.243,0.95-3.363,1.394
				c-1.557,0.91-5.273,1.508-4.065,4.028c0.482,0.826,1.578,1.103,2.388,0.625c1.696-1.019,3.212-2.343,4.642-3.705
				c0.401-0.437,0.917-0.835,1.1-1.419C572.081,100.42,571.727,99.988,571.253,99.969z M580.863,110.152
				c-0.576,0.33-0.848,0.988-1.171,1.538c-0.548,1.025-1.086,2.053-1.636,3.078c-0.663,1.142-1.635,3.069,0.025,3.824
				c2.28,0.767,2.744-2.645,3.475-4.104c0.395-1.242,1.204-2.717,0.599-3.997C581.861,110.054,581.335,109.892,580.863,110.152z
				 M602.309,115.634c-0.586-0.95-1.049-2.205-2.121-2.697c-1.248-0.325-1.031,1.32-0.923,2.083c0.236,1.788,0.466,3.603,1.103,5.3
				c0.885,2.045,3.963,0.97,3.413-1.185C603.478,117.906,602.91,116.743,602.309,115.634z M623.275,105.641
				c-1.073-1.16-2.612-1.691-4.069-2.199c-0.974-0.329-1.962-0.7-3.005-0.679c-0.328,0.003-0.625,0.089-0.813,0.376
				c-0.344,0.648,0.45,1.137,0.825,1.557c1.603,1.39,3.074,3.084,5.088,3.874C623.108,109.3,624.647,107.049,623.275,105.641z"/>
			<path style="fill:#FFFFFF;" d="M604.12,49.04c-3.136-0.996-6.455-1.187-9.742-0.866c0.032-1.497-0.149-3.123-0.072-3.898
				c-0.012-4.046-0.149-8.092-0.157-12.14c0.073-8.157-0.125-16.323,0.402-24.469c0.59-7.17,0.995-14.551,1.057-21.791
				c0.024-1.447,0.018-2.894-0.002-4.341c0.062-1.199-0.069-2.903-1.624-2.926c-0.732,0-1.479,0.581-1.538,1.342
				c-0.012,4.706-0.203,9.407-0.401,14.111c-0.18,7.012-0.956,13.719-0.977,20.861c-0.042,6.255,0.13,12.51,0.16,18.766
				c0.068,4.016,0.178,8.036,0.075,12.054c0.051,0.701-0.054,1.822-0.005,2.881c-1.772,0.342-3.517,0.801-5.193,1.368
				c-9.298,3.066-15.935,11.787-17.539,21.305c-0.577,2.654-0.739,5.363-0.896,8.068c-0.094,2.099-0.214,4.288,0.422,6.319
				c0.753,2.374,3.571,2.445,5.644,2.677c2.63,0.207,5.28,0.183,7.918,0.219c8.186,0.327,16.335-0.594,24.508-0.72
				c2.896-0.01,5.796,0.229,8.69,0.036c2.405-0.125,4.874-0.373,4.811-3.39C620.743,71.762,617.654,54.008,604.12,49.04z
				 M570.361,85.22c-0.805-3.496-0.135-7.158,0.118-10.692c0.443-5.383,2.912-10.503,6.405-14.578
				c3.407-4.013,8.206-6.539,13.321-7.604c0.158-0.029,0.318-0.054,0.476-0.082c-3.187,3.217-5.655,7.122-7.572,11.206
				c-2.721,6.288-3.761,13.26-2.981,20.067c0.067,0.627,0.126,1.26,0.213,1.887c-0.276-0.003-0.552,0.005-0.828,0
				C576.471,85.342,573.379,85.574,570.361,85.22z M581.949,85.422c0.018-1.077-0.04-2.179,0.02-2.55
				c0.028-1.732,0.059-3.461,0.161-5.189c0.289-3.971,1.062-7.925,2.345-11.698c1.885-5.011,5.05-9.826,8.799-13.72
				c1.145,3.954,1.077,7.918,1.304,12.061c0.126,3.42,0.269,6.838,0.326,10.258c0.04,2.493,0.107,4.983,0.069,7.476
				c-0.013,0.849-0.064,1.701-0.02,2.55c-0.001,0.172,0.05,0.323,0.121,0.46C590.704,85.302,586.329,85.433,581.949,85.422z
				 M604.307,84.47c-2.45,0.19-4.901,0.354-7.353,0.499c0.026-0.071,0.055-0.142,0.07-0.219c0.268-1.506,0.193-3.049,0.232-4.573
				c0.02-3.372,0.021-6.747-0.103-10.117c-0.354-6.006-0.125-12.179-1.807-18.004c-0.04-0.118-0.088-0.241-0.14-0.364
				c0.121-0.008,0.242-0.013,0.363-0.018c0.233,0.23,0.453,0.479,0.677,0.693c5.249,6.308,8.669,14.092,9.518,22.344
				c0.281,2.688,0.493,5.398,0.335,8.101c-0.046,0.503-0.151,1.088-0.127,1.612C605.417,84.425,604.862,84.438,604.307,84.47z
				 M616.517,84.415c-2.604,0.344-5.226,0.171-7.848,0.066c0.1-0.42,0.141-0.873,0.173-1.261c0.285-2.479,0.272-4.986,0.089-7.474
				c-0.469-7.262-2.753-14.495-7.315-20.239c-1.071-1.36-2.229-2.733-3.586-3.835c1.45,0.083,2.885,0.316,4.277,0.78
				C613.922,56.551,616.927,73.566,616.517,84.415z"/>
		</g>
	</g>
	<g>
		<path style="fill:#FFFFFF;" d="M303.845,467.024c-6.17-0.836-7.138-9.299-2.805-12.897c5.222-4.739,13.415-1.83,13.708,5.416
			C314.774,465.177,309.116,469.052,303.845,467.024z"/>
		<path style="fill:#FFFFFF;" d="M464.636,463.941c-0.965-1.353-2.177-2.631-2.214-4.411c-0.147-3.13,1.819-6.113,4.723-7.264
			c5.109-2.81,10.968,2.285,9.265,7.72C475.412,463.795,467.486,467.371,464.636,463.941z"/>
		<path style="fill:#FDC5AE;" d="M492.821,464.702c-2.623-0.566-5.043-2.926-4.961-5.722c0.155-2.197,1.167-4.39,3.117-5.533
			c3.725-2.875,9.433-1.475,10.454,3.38C502.837,461.982,497.588,465.816,492.821,464.702z"/>
		<g>
			<g>
				<path style="fill:#FDC5AE;" d="M274.973,387.373c2.306,3.612,1.052,8.376-2.106,11.029c4.43,9.251,0.877,18.193-7.993,22.932
					c-8.321,4.409-18.03,5.467-27.325,5.384c-6.191-0.057-13.075-1.894-17.541-6.277c-1.661-1.274-3.09-2.821-4.117-4.607
					c-0.257-0.513-0.472-1.041-0.652-1.581c-0.716-1.568-0.889-3.341-0.98-5.047c-0.476-7.266,3.272-14.171,8.919-18.564
					c3.142-2.224,6.726-4.302,10.68-4.323c0.558-3.281,2.005-6.656,4.628-8.802c5.147-4.051,12.204-2.04,12.886,4.881
					c4.122,0.378,8.294,1.326,11.728,3.746C266.887,383.941,272.276,383.139,274.973,387.373z"/>
				<path style="fill:#F06B5A;" d="M242.446,381.177c-1.354,0.247-2.364,1.382-2.807,2.639c-0.204,0.919-0.933,2.62,0.608,2.653
					c1.183,0.056,2.317-0.282,3.47-0.527c0.585-0.176,1.422-0.267,1.622-0.948C245.425,383.336,244.42,380.998,242.446,381.177z
					 M269.316,389.659c-1.438-1.046-3.723,0.048-4.512,1.445c-0.511,1.252,1.814,4.2,3.069,4.318c0.75,0.088,1.114-0.678,1.506-1.18
					C270.48,392.957,270.89,390.75,269.316,389.659z"/>
				<path style="fill:#673632;" d="M240.034,395.305c0.424,0,0.777-0.353,0.777-0.777s-0.353-0.777-0.777-0.777
					c-0.424,0-0.777,0.353-0.777,0.777S239.61,395.305,240.034,395.305z M250.614,397.399c-0.424,0-0.779,0.355-0.779,0.779
					c0,0.424,0.355,0.779,0.779,0.779c0.424,0,0.779-0.355,0.779-0.779C251.393,397.754,251.039,397.399,250.614,397.399z
					 M241.27,399.96c-4.567-2.169-13.619-1.894-14.914,4.138c-0.376,2.572,0.898,5.115,2.652,6.925
					c1.903,1.855,4.493,2.853,7.098,3.297c3.708,0.376,9.106-0.041,11.126-3.657C249.205,406.183,245.352,401.525,241.27,399.96z"/>
			</g>
			<path style="fill:#A1CAC4;" d="M295.18,437.621c-0.816-2.144-1.829-4.206-2.646-6.35c-1.562-3.839-3.327-7.589-5.042-11.361
				c-1.143-2.536-2.283-5.084-3.773-7.44c-1.1-1.762-2.055-3.666-3.479-5.193c-0.007-0.009-0.018-0.016-0.025-0.025
				c-0.123-0.947-0.903-1.624-1.809-1.826c-6.884-1.435-14.009-0.756-20.997-0.756c-12.359,0.011-24.711,0.56-37.066,0.768
				c-6.152,0.093-12.304,0.157-18.448,0.492c-1.994,0.093-3.981,0.187-5.973,0.321c-1.408,0.235-3.233-0.267-4.279,0.943
				c-0.284,0.382-0.418,0.82-0.503,1.271c-0.305,0.34-0.549,0.761-0.847,1.088c-3.981,4.965-7.647,10.169-11.233,15.422
				c-2.16,3.251-4.261,6.866-6.391,10.206c-1.738,2.244-1.269,3.819,1.162,5.166c1.18,0.561,2.04-0.463,2.516-1.433
				c0.752-1.205,1.492-2.417,2.249-3.618c2.663-4.3,5.571-8.452,8.069-12.853c1.338-2.365,2.821-4.631,4.361-6.867
				c-0.668,8.11-1.513,16.208-1.419,24.357c0.198,10.602-0.497,21.25,0.291,31.825c0.169,2.285,2.126,2.19,3.871,2.34
				c2.024,0.144,4.081,0.214,6.129,0.262c8.354,0.125,16.707-0.287,25.062-0.224c8.478,0.029,16.953-0.05,25.427-0.276
				c5.171-0.141,10.341-0.258,15.513-0.253c2.039,0.009,4.074-0.039,6.109-0.151c1.085-0.137,2.29,0.087,3.3-0.385
				c1.788-1.035,1.219-4.992,1.506-6.902c0.385-6.622,0.9-13.252,1.217-19.885c0.404-7.307,0.797-14.613,1.6-21.891
				c0.288-3.853,0.623-7.704,0.76-11.566c2.599,5.85,4.686,11.912,7.32,17.749c0.988,2.414,1.942,4.842,3.165,7.149
				c0.652,1.157,0.931,2.981,2.514,3.15C295.258,441.022,295.971,439.114,295.18,437.621z"/>
		</g>
		<g>
			<g>
				<path style="fill:#FFFFFF;" d="M139.425,386.929c-1.21-2.361-4.09-3.015-6.481-3.512c-4.785-0.764-9.663-0.633-14.483-1.03
					c-3.933-0.23-7.875-0.137-11.799,0.159c-3.393,0.285-6.854,0.348-10.16,1.226c-0.925-0.699-2.197,0.317-1.77,1.386
					c0.367,1.178,1.142,2.192,1.73,3.268c2,3.268,3.953,6.569,6.084,9.753c0.697,1.007,1.438,2.147,2.622,2.618
					c1.212,0.481,2.514,0.134,3.732-0.15c3.807-0.968,7.569-2.119,11.386-3.067c3.753-1.005,7.526-1.937,11.281-2.933
					c1.955-0.56,3.99-1.068,5.713-2.183C139.144,391.361,140.496,389.032,139.425,386.929z M86.388,394.689
					c-0.581-1.461-1.214-2.901-1.91-4.313c-0.519-0.893-0.829-2.277-1.991-2.502c-0.975-0.143-1.994,1.148-1.72,2.058
					c-1.989,2.067-3.297,4.653-4.799,7.084c-3.537,5.747-6.355,11.912-8.485,18.313c-0.588,2.185-2.785,7.244-0.478,8.805
					c2.823,1.616,8.745-5.311,10.912-7.137c3.603-3.368,6.949-6.993,10.496-10.418c2-1.433,1.069-3.648,0.453-5.573
					C88.126,398.869,87.201,396.8,86.388,394.689z"/>
				<path style="fill:#673632;" d="M120.024,415.673c0.344,0.552,0.668,1.18,0.472,1.848c-0.232,0.88-1.108,1.278-1.885,1.581
					c-0.989,0.408-1.966,0.848-2.949,1.269c-2.933,1.271-5.897,2.456-8.918,3.496c-1.973,0.695-3.967,1.347-5.884,2.185
					c-0.927,0.406-1.846,0.83-2.78,1.219c-0.82,0.319-1.736,0.748-2.609,0.385c-1.1-0.533-1.607-1.818-2.176-2.828
					c-0.513-0.989-0.986-1.996-1.554-2.953c-0.153-0.257-0.196-0.556-0.144-0.836c-3.534-8.549-7.556-16.901-10.94-25.507
					c-1.645-5.091-3.653-10.195-3.682-15.62c-0.052-2.833,0.618-5.927,2.671-7.995c2.946-2.759,7.139-3.03,10.527-0.904
					c3.776,2.028,6.378,5.528,8.898,8.887c2.668,3.436,5.054,7.071,7.159,10.876c3.277,5.53,6.278,11.213,9.262,16.905
					c0.98,1.857,2.016,3.684,3.051,5.51C119.017,414.03,119.537,414.841,120.024,415.673z"/>
				<path style="fill:#FDC5AE;" d="M95.999,377.372c0.182-0.227,0.38-0.457,0.58-0.689c-1.824-2.231-3.842-4.292-6.407-5.669
					c-3.388-2.126-7.581-1.855-10.527,0.904c-2.053,2.067-2.723,5.161-2.671,7.995c0.009,1.723,0.232,3.411,0.566,5.079
					c0.352,0.016,0.659,0.031,0.824,0.055c3.327,0.114,6.622-0.665,9.737-1.875C91.159,381.913,93.773,379.79,95.999,377.372z
					 M104.729,414.904c-1.113-2.32-2.214-4.646-3.338-6.963c-1.741-3.799-3.795-7.451-5.844-11.097
					c-1.637-2.736-2.854-5.695-4.537-8.403c-0.291-0.422-0.463-1.017-0.92-1.288c-0.575-0.181-0.647,0.516-0.488,0.898
					c1.914,5.306,4.735,10.241,7.335,15.233c2.074,4.023,3.93,8.443,5.954,12.541C103.525,416.924,105.223,416.049,104.729,414.904z
					"/>
			</g>
			<path style="fill:#FDC5AE;" d="M170.325,449.267c0.216,0.57,0.241,1.178,0,1.746c-0.7,1.786-3.413,1.803-4.136,0
				c-2.675-6.87-4.871-13.728-7.187-20.656c-0.934-2.898-1.962-5.754-2.935-8.629c-0.128,6.546-0.64,13.074-1.19,19.6
				c-0.581,6.28-0.816,12.594-1.652,18.846c-0.613,4.591-1.675,9.149-1.645,13.801c-0.394,2.281-2.664,2.823-4.664,3.11
				c-4.38,0.715-8.848,0.683-13.268,1.005c-12.478,0.875-24.994,0.444-37.492,0.527c-6.364-0.123-12.729-0.273-19.093-0.337
				c-5.428-0.241-11.031,0.216-16.338-1.066c-2.597-0.893-2.13-4.17-2.352-6.376c-0.159-4.689-0.114-9.381-0.112-14.073
				c0.057-8.028,0.196-16.119,0.77-24.122c0.217-3.249,0.428-6.499,0.679-9.746c0.187-1.518,0.18-3.475,0.693-5.077
				c-0.713-0.285-1.403-0.631-2.09-0.962c-5.136-2.461-9.967-5.475-14.765-8.527c-4.085-2.659-8.28-5.134-12.402-7.733
				c-1.385-0.932-2.939-1.693-4.134-2.865c-2.062-2.139,0.23-5.573,3.001-4.457c1.618,0.782,3.074,1.877,4.614,2.803
				c8.54,5.211,16.663,11.06,24.967,16.629c0.786,0.668,2.185,1.479,3.169,2.425c0.093-0.034,0.189-0.064,0.287-0.093
				c21.931-5.107,44.615-4.87,66.977-5.984c6.314-0.025,12.635-0.125,18.944,0.191c5.359,0.372,6.87,1.265,7.155,4.56
				c4.108,7.834,6.915,16.247,10.044,24.499c0.7,1.834,1.36,3.684,2.037,5.528C168.875,445.657,169.636,447.448,170.325,449.267z"/>
		</g>
		<g>
			<path style="fill:#F06B5A;" d="M450.593,454.862c3.39,8.664-1.533,9.6-8.882,10.562c-13.569,2.417-27.337,1.608-41.031,2.438
				c-8.012,0.326-15.989,1.194-24.007,1.426c-6.89,0.221-13.783,0.704-20.68,0.569c-1.527-0.135-4.106-0.162-5.653-1.085
				c0,0,0,0-0.002-0.002c-0.253-0.02-0.508-0.046-0.763-0.078c-4.751-0.738-11.502-7.371-13.713-11.518
				c-2.069-4.382-4.133-10.721-0.189-14.631c0.326-0.283,0.982-1.01,1.415-0.604c1.675-1.148,3.933-1.648,5.858-2.033
				c13.018-2.322,26.202-3.484,39.377-4.468c8.232-0.706,16.474-1.128,24.732-1.265c6.694-0.262,13.389-0.356,20.084-0.363
				c6.662-0.153,8.217-0.394,12.84,4.87C444.399,443.404,447.943,448.972,450.593,454.862z"/>
			<path style="fill:#FDC5AE;" d="M439.879,437.517c-0.84-0.702-1.973-1.678-2.973-2.335c-0.326-0.223-0.807-0.545-1.294-0.855
				c-0.618-0.392-1.479-0.132-1.837,0.483c-0.827,1.552,1.33,2.348,2.199,3.226c6.407,4.861,10.523,12.162,12.839,19.808
				c-7.669-0.424-15.093,0.528-22.785,0.909c-4.771,0.231-9.436,0.586-14.232,0.943c-5.687,0.318-11.529,0.519-17.254,0.83
				c-4.936,0.215-9.871,0.451-14.799,0.813c-6.157,0.491-12.36,1.089-18.531,0.496c-0.946-1.91-1.777-3.886-2.883-5.71
				c-0.989-1.553-2.107-3.022-3.13-4.553c-2.445-3.66-5.207-7.27-9.019-9.591c-3.475-2.408-7.778-3.166-11.138-0.121
				c-2.983,3.351-2.269,8.527-0.946,12.485c2.124,5.767,6.645,12.185,12.933,13.644c13.44,1.509,6.789-14.076,0.957-19.104
				c-2.548-2.177-5.85-4.402-9.349-3.96c-1.364,0.231-2.403,1.339-2.416,2.741c-0.298,4.505,4.723,12.719,9.465,13.314
				c5.5,0.85,4.626-4.878,1.934-7.658c-0.961-0.985-2.965-2.703-4.405-2.059c-0.293,0.203-0.337,0.696-0.004,0.874
				c-0.002,0-0.005-0.001-0.007-0.001c-0.011-0.007-0.022-0.014-0.033-0.022c1.89,1.369,4.036,4.097,4.157,6.499
				c-2.634,0.9-5.115-2.261-6.43-4.193c-1.132-1.726-2.147-3.57-2.583-5.604c-0.101-0.715-0.52-1.883,0.487-2.083
				c1.452-0.374,2.926,0.449,4.231,1.027c3.618,1.908,6.263,5.238,8.052,8.856c0.986,2.074,2.994,6.802,0.677,8.471
				c-3.138,1.862-6.887,0.004-9.301-2.239c-4.329-3.587-10.632-15.366-5.507-20.055c3.373-2.372,7.348,0.252,9.997,2.55
				c2.857,2.536,4.769,5.592,6.853,8.828c0.727,1.07,1.511,2.101,2.245,3.167c1.393,1.921,2.151,4.231,3.539,6.139
				c0.494,0.55,1.326,0.633,2.021,0.709c1.183,0.134,2.377,0.168,3.568,0.193c5.307,0.218,10.394-0.343,15.755-0.712
				c10.339-0.662,20.695-0.94,31.039-1.517c7.063-0.556,14.286-0.935,21.38-1.386c3.322-0.237,6.759-0.487,10.135-0.545
				c1.789-0.044,3.579-0.048,5.365-0.184c1.474,0.138,2.383-0.859,2.261-2.301C449.43,450.157,445.76,442.708,439.879,437.517z"/>
		</g>
	</g>
</g>
</svg>
