<svg width="24" height="24" viewBox="0 0 24 24" fill="none" xmlns="http://www.w3.org/2000/svg">
<path d="M16.44 3.21999C15.0831 3.21938 13.7734 3.71765 12.76 4.61999C12.551 4.80694 12.2804 4.91029 12 4.91029C11.7196 4.91029 11.449 4.80694 11.24 4.61999C10.4403 3.90818 9.45177 3.44286 8.39359 3.28013C7.33541 3.1174 6.25276 3.2642 5.27612 3.70284C4.29949 4.14148 3.47057 4.85323 2.88928 5.7523C2.308 6.65137 1.99916 7.69938 2 8.76999C2 13.52 9.3 19.08 11.42 20.6C11.5894 20.7206 11.7921 20.7854 12 20.7854C12.2079 20.7854 12.4106 20.7206 12.58 20.6C14.7 19.08 22 13.52 22 8.76999C21.9974 7.29712 21.4104 5.88548 20.368 4.84494C19.3256 3.8044 17.9129 3.21999 16.44 3.21999ZM12 18.54C7.93 15.54 4 11.45 4 8.76999C4.00271 8.08662 4.20206 7.41847 4.57423 6.84532C4.94641 6.27218 5.47568 5.81826 6.09885 5.53779C6.72202 5.25731 7.41274 5.16212 8.08855 5.26358C8.76435 5.36505 9.39667 5.65888 9.91 6.10999C10.4843 6.62512 11.2285 6.91001 12 6.91001C12.7715 6.91001 13.5157 6.62512 14.09 6.10999C14.6033 5.65888 15.2356 5.36505 15.9115 5.26358C16.5873 5.16212 17.278 5.25731 17.9012 5.53779C18.5243 5.81826 19.0536 6.27218 19.4258 6.84532C19.7979 7.41847 19.9973 8.08662 20 8.76999C20 11.45 16.07 15.52 12 18.54Z" fill="white"/>
</svg>
