<svg width="24" height="24" viewBox="0 0 24 24" fill="none" xmlns="http://www.w3.org/2000/svg">
<path d="M20.16 17.66C20.1589 18.1543 20.0114 18.6371 19.736 19.0475C19.4606 19.4579 19.0697 19.7775 18.6127 19.9658C18.1558 20.1542 17.6532 20.2029 17.1686 20.1057C16.684 20.0086 16.2391 19.7699 15.89 19.42L10.19 13.73C9.64408 13.907 9.07395 13.9981 8.50003 14C8.19151 14.0027 7.88344 13.9759 7.58003 13.92C6.49441 13.7409 5.48804 13.2385 4.69238 12.4785C3.89672 11.7185 3.34874 10.7363 3.12003 9.66C3.03991 9.27854 2.99969 8.88979 3.00003 8.5C2.99235 7.6313 3.19476 6.77361 3.59003 6C3.66046 5.85878 3.76333 5.73623 3.8902 5.64237C4.01708 5.54852 4.16437 5.48602 4.32003 5.46C4.47686 5.43418 4.63759 5.4461 4.78889 5.4948C4.94019 5.54349 5.0777 5.62755 5.19003 5.74L7.71003 8.29C7.7481 8.3281 7.79331 8.35832 7.84307 8.37894C7.89283 8.39956 7.94616 8.41018 8.00003 8.41018C8.05389 8.41018 8.10722 8.39956 8.15698 8.37894C8.20674 8.35832 8.25195 8.3281 8.29003 8.29C8.32812 8.25193 8.35835 8.20672 8.37897 8.15696C8.39959 8.1072 8.4102 8.05387 8.4102 8C8.4102 7.94614 8.39959 7.89281 8.37897 7.84305C8.35835 7.79329 8.32812 7.74808 8.29003 7.71L5.77003 5.19C5.65757 5.07768 5.57352 4.94016 5.52482 4.78886C5.47613 4.63756 5.4642 4.47683 5.49003 4.32C5.51286 4.1672 5.5708 4.02176 5.65928 3.8951C5.74777 3.76844 5.8644 3.66401 6.00003 3.59C6.20594 3.48055 6.41989 3.38694 6.64003 3.31C7.23776 3.10114 7.86687 2.99629 8.50003 3C8.83491 3.00118 9.16922 3.02793 9.50003 3.08C10.6187 3.2871 11.6462 3.83418 12.4426 4.64665C13.239 5.45911 13.7654 6.49742 13.95 7.62C13.9915 7.9114 14.0082 8.20579 14 8.5C13.9981 9.07392 13.907 9.64406 13.73 10.19L19.42 15.89C19.6547 16.1211 19.8411 16.3967 19.9681 16.7006C20.0952 17.0044 20.1604 17.3306 20.16 17.66ZM18.16 17.66C18.1586 17.5924 18.1437 17.5257 18.1162 17.4639C18.0887 17.4021 18.0492 17.3464 18 17.3L12 11.3V11.24L11.79 11C11.6833 10.8588 11.616 10.6919 11.5949 10.5162C11.5739 10.3405 11.5998 10.1624 11.67 10C11.89 9.53071 12.0028 9.01831 12 8.5C12.0198 8.31052 12.0198 8.11949 12 7.93C11.8806 7.21211 11.5397 6.5495 11.0251 6.03489C10.5105 5.52029 9.84793 5.17943 9.13003 5.06C8.92238 5.02023 8.71145 5.00014 8.50003 5H8.42003L9.71003 6.3C9.93497 6.52229 10.1136 6.78702 10.2355 7.07883C10.3574 7.37065 10.4201 7.68375 10.4201 8C10.4201 8.31625 10.3574 8.62936 10.2355 8.92118C10.1136 9.21299 9.93497 9.47771 9.71003 9.7C9.25374 10.1483 8.63967 10.3995 8.00003 10.3995C7.36038 10.3995 6.74631 10.1483 6.29003 9.7L5.00003 8.42C5.00003 8.42 5.00003 8.47 5.00003 8.5C4.9975 8.75226 5.02434 9.00396 5.08003 9.25C5.21981 9.93845 5.56352 10.5689 6.06646 11.0594C6.5694 11.5498 7.20829 11.8776 7.90003 12C8.09861 12.0307 8.2991 12.0474 8.50003 12.05C9.02216 12.0372 9.53476 11.9073 10 11.67C10.1624 11.5997 10.3406 11.5738 10.5162 11.5949C10.6919 11.616 10.8589 11.6833 11 11.79L11.22 11.96L11.31 12.04L17.31 18.04C17.4054 18.1357 17.5349 18.1897 17.67 18.19C17.8018 18.1874 17.9275 18.1339 18.0207 18.0407C18.114 17.9475 18.1675 17.8218 18.17 17.69L18.16 17.66Z" fill="#E1E1E1"/>
</svg>
